<?xml version="1.0" encoding="UTF-8"?>
<svg id="Layer_1" xmlns="http://www.w3.org/2000/svg" version="1.1" viewBox="0 0 1372.55 386.2">
  <!-- Generator: Adobe Illustrator 30.5.1, SVG Export Plug-In . SVG Version: 2.1.4 Build 3)  -->
  <defs>
    <style>
      .st0 {
        fill: #002bff;
      }

      .st1 {
        fill: #ccc;
      }

      .st2 {
        fill: #303030;
      }

      .st3 {
        fill: #ddd;
      }

      .st4 {
        fill: #ff0;
      }

      .st5 {
        fill: #00ff18;
      }

      .st6 {
        fill: red;
      }

      .st7 {
        fill: aqua;
      }

      .st8 {
        display: none;
      }

      .st9 {
        fill: #afafaf;
      }

      .st10 {
        fill: #ff00cf;
      }
    </style>
  </defs>
  <g id="Layer_11" data-name="Layer_1" class="st8">
    <g>
      <rect class="st6" x=".5" y="0" width="254.45" height="187.62"/>
      <rect class="st10" x="906.78" y="0" width="254.45" height="187.62"/>
      <rect x="254.95" y="0" width="225.56" height="187.62"/>
      <rect class="st5" x="480.85" y="0" width="184.78" height="187.62"/>
      <rect x="1161.23" y="0" width="184.78" height="187.62"/>
      <rect x="665.93" y="0" width="240.85" height="187.62"/>
      <rect x="897.81" y="187.63" width="243.65" height="187.62"/>
      <rect class="st0" x="669.12" y="187.63" width="228.69" height="187.62"/>
      <rect x=".8" y="187.63" width="240.85" height="187.62"/>
      <rect class="st10" x="241.65" y="187.63" width="222.93" height="187.62"/>
      <rect x="464.57" y="187.63" width="204.55" height="187.62"/>
      <rect class="st4" x="1141.46" y="187.63" width="204.55" height="187.62"/>
      <g>
        <path class="st5" d="M908.56,187.63h156.06c2.45,0,4.8.97,6.54,2.71l51.33,51.33c3.61,3.61,3.61,9.46,0,13.07l-13.65,13.65c-1.73,1.73-4.09,2.71-6.54,2.71h-137.07c-2.45,0-4.8.97-6.54,2.71h0c-5.82,5.82-1.7,15.78,6.54,15.78h136.34c2.45,0,4.8.97,6.54,2.71l30.66,30.66c1.73,1.73,2.71,4.09,2.71,6.54v36.51c0,5.11-4.14,9.24-9.24,9.24h-114.66c-2.45,0-4.8-.97-6.54-2.71l-35.92-35.92c-1.73-1.73-2.71-4.09-2.71-6.54v-23.15c0-5.11-4.14-9.24-9.24-9.24h-30.48c-2.45,0-4.8.97-6.54,2.71l-1.1,1.1c-3.61,3.61-3.61,9.46,0,13.07l18.09,18.09c1.73,1.73,2.71,4.09,2.71,6.54v26.81c0,5.11-4.14,9.24-9.24,9.24h-29.52c-5.11,0-9.24-4.14-9.24-9.24v-57.84c0-2.45.97-4.8,2.71-6.54l46.29-46.29c1.73-1.73,4.09-2.71,6.54-2.71h131.21c2.45,0,4.8-.97,6.54-2.71l3.31-3.31c3.61-3.61,3.61-9.46,0-13.07l-5.02-5.02c-3.61-3.61-9.46-3.61-13.07,0l-12.77,12.77c-1.73,1.73-4.09,2.71-6.54,2.71h-113.22c-2.59,0-5.06-1.08-6.81-2.99-6.38-6.96-22.65-24.65-35.12-37.76-5.6-5.89-1.42-15.61,6.7-15.61h-.04Z"/>
        <path d="M61.66,186.87c.24.48.72.76,1.22.76.2,0,.41-.05.6-.14.67-.33.95-1.15.62-1.82-8.35-17.06-28.22-60.43-24.6-70.22.33-.9.78-1.09.92-1.15,1.33-.57,2.61-.53,3.94.13,6.17,3.07,11.08,18.33,12.45,23.95.14.57.62.98,1.21,1.03.56.03,1.13-.28,1.37-.81.1-.23,10.13-22.68,27.75-22.68,3.95,0,6.66,1.13,8.05,3.37,3.76,6.05-2.21,18.29-2.27,18.41-.29.58-.12,1.29.39,1.69.52.4,1.24.37,1.73-.06,9.81-8.63,31.36-14.99,42.52-10.12,4.02,1.75,6.11,4.83,6.22,9.13.47,17.93-19.49,24.81-19.81,24.92h0c-.71.24-1.1,1.01-.86,1.72s1,1.1,1.72.87h0c.27-.09,26.92-8.87,48.39-5.94,23.36,3.18,57.06,27.02,57.4,27.26.61.43,1.46.3,1.9-.31.44-.61.3-1.46-.3-1.9-.2-.15-20.33-14.99-27.59-29.51-6.93-13.87,1.71-22.45,2.07-22.81.44-.42.55-1.09.26-1.63-.29-.54-.9-.82-1.5-.69-.21.05-21.52,4.86-33.23,4.86s-21.47-5.19-25.44-13.87c-1.83-4.01-1.8-7.84.09-10.78,2.14-3.33,7.74-7.3,22.23-7.3,23.29,0,48.32,17.36,48.57,17.54.57.4,1.35.31,1.81-.22.46-.52.45-1.31-.02-1.82-.14-.15-13.7-15.14-6.71-22.12,6.12-6.12,31.32-1.81,40.52.36.68.16,1.37-.22,1.6-.88.23-.66-.07-1.39-.71-1.68-.09-.04-9.5-4.49-18.78-10.22-15.86-9.8-18.23-15.14-18.23-17.45,0-10.25,20.51-23.62,20.72-23.75.52-.34.75-.99.55-1.58s-.79-.97-1.39-.93c-.3.02-29.99,2.22-51.92,2.22-3.88,0-7.28-1.45-10.11-4.31-10.46-10.56-10.32-36.74-10.32-37,0-.67-.47-1.24-1.12-1.36-.66-.12-1.3.26-1.52.89-.1.29-10.73,29.32-39.62,29.32s-31.44-23.99-31.54-25.01c-.08-.74-.73-1.29-1.48-1.22-.74.07-1.29.72-1.24,1.46.03.46.71,11.29-10.43,19.4-6.75,4.91-24.24,6.45-39.59,6.93-9.06-.19-16.55.13-18.49.22-.74.04-1.32.66-1.3,1.4s.62,1.33,1.36,1.33c4.68,0,10.86,0,17.5-.19,16,.32,35.25,2.11,39.01,7.89,6.28,9.65-12.56,26.66-12.75,26.83-.54.48-.61,1.29-.17,1.85.44.56,1.24.69,1.84.29.22-.15,22.29-15,33.8-20.14,7.52-3.36,30.43-13.6,38.15-4.37,1.1,1.31,1.46,2.67,1.13,4.15-1.28,5.69-12.28,11.84-16.4,13.73-.67.31-.97,1.09-.69,1.76.28.68,1.05,1.01,1.74.75.3-.11,30.01-11.21,44.66-12.67,10.12-1.02,22.95-.27,28.6,4.84,1.79,1.62,2.66,3.52,2.66,5.81,0,1.14-.46,2.12-1.41,2.99-5.23,4.8-22.79,4.44-29.11,3.9-.73-.07-1.36.45-1.47,1.16s.37,1.39,1.07,1.53c.17.03,16.72,3.48,21.89,7.95,2.96,2.56,5.56,6.75,4.54,9.48-.93,2.5-4.98,3.87-11.4,3.87-18.01,0-42.1-21.68-42.34-21.9-.49-.45-1.24-.48-1.76-.06-.52.41-.67,1.14-.35,1.73.06.1,5.64,10.38,1.99,16.57-1.92,3.26-6.2,4.91-12.71,4.91-21.74,0-40.29-16.88-43.78-20.25-.34-.35-.57-.57-.63-.62-.54-.51-1.39-.5-1.91.03-.52.53-.53,1.37-.02,1.91.09.09.4.41.91.91,3.22,3.33,8.91,10.53,7.11,15.02-1.31,3.28-6.68,5.01-15.54,5.01-32.14,0-70.8-30.79-71.17-31.09-.56-.45-1.37-.38-1.86.15-.48.53-.47,1.35.02,1.86.23.24,24.15,25.21,24.39,42.46.23,16.85-23.65,26.62-23.9,26.72-.65.26-.99.97-.8,1.64s.85,1.1,1.55.97c.15-.03,15.18-2.5,30.49,8.03,15.52,10.67,28.91,36.41,29.05,36.7h0Z"/>
        <path d="M896.11,244.62c-14.65-2.45-37.9-9.63-37.9-18.49,0-9.74,11.7-20.26,11.82-20.36.75-.67.9-1.79.35-2.64-.56-.84-1.65-1.15-2.56-.72-.37.17-36.92,17.19-48.52,17.53-1.25.05-2.39-.44-3.46-1.46-5.59-5.32-7.17-22.63-7.3-28.85-.02-1.06-.85-1.92-1.91-1.98-1.08-.08-1.98.69-2.13,1.74-.04.28-4.15,27.88-17.6,31.32-13.32,3.4-25.09-15.24-25.21-15.43-.5-.81-1.51-1.16-2.41-.84-.9.32-1.46,1.23-1.33,2.18,1.96,15.05-.36,20.83-13.08,32.52-12.4,11.39-34.1,13.11-45.97,13.12h-.06c-1.12,0-2.03.91-2.03,2.03s.91,2.03,2.03,2.03h0c.38,0,25.55.11,34.64,10.91,2.76,3.28,3.71,7.15,2.89,11.83-.89,5.09-3.39,9.05-7.45,11.77-11.75,7.9-32.74,3.45-32.95,3.4-.96-.21-1.92.3-2.31,1.2-.38.9-.06,1.95.76,2.49.64.42,15.62,10.48,8.21,22.02-7.85,12.23-31.1,10.7-31.34,10.68-.92-.07-1.77.49-2.07,1.37-.3.87.02,1.83.79,2.35,18.37,12.34,14.79,30.88,12.4,38.27-.33,1.03.21,2.15,1.23,2.53.23.09.47.13.71.13.79,0,1.55-.47,1.87-1.24,9.88-23.39,32.31-22.77,33.28-22.73.81.01,1.59-.43,1.93-1.18s.2-1.63-.36-2.24c-3.55-3.81-12.24-15.02-9.84-21.09,1.17-2.95,11.76-5.81,31.65-2.94,1.07.16,2.06-.55,2.28-1.6.22-1.05-.42-2.09-1.46-2.37-5.83-1.59-9.37-7.97-8.4-15.18,1.05-7.86,7.77-16.26,23.48-16.26,4.04,0,9.13.63,10.49,3.63,2.1,4.65-4.52,13.78-7.01,16.61-.66.75-.68,1.86-.04,2.63.63.77,1.73.97,2.59.47.33-.19,32.61-18.63,41.48-3.91,1.98,3.29,2.43,6.39,1.35,9.48-3.06,8.81-17.27,14.28-17.54,14.39h0c-1.05.4-1.58,1.57-1.19,2.62.4,1.05,1.57,1.58,2.62,1.19h.01c2.99-1.12,11.37-2.9,15.92-.31,2.88,1.64,5.04,6.17,4.96,9.63-.36,15.37-26.99,25.27-27.24,25.35-.9.3-1.48,1.19-1.38,2.14s.84,1.7,1.79,1.81c3.42.39,6.76.57,10.02.57,47.32,0,78.03-38.51,78.36-38.93.67-.86.54-2.11-.3-2.81-.84-.7-2.09-.61-2.82.21-.06.07-6.48,7.2-15.44,12.19-6.57,3.66-14.59,4.88-19.5,2.97-2.36-.92-5.81-2.16-6.31-6.53-.5-4.35,5.2-12.97,14.9-19.68.89-.61,1.14-1.81.58-2.73s-1.74-1.24-2.69-.73c-1.3.7-5.84,2.99-9.71,3.28-7.49.57-11.32-4.81-13.23-9.43-2.45-5.91-2.75-11.07-.9-15.34,2.31-5.34,7.4-7.77,8.46-8.23.15-.06.24-.1.28-.12,1.02-.43,1.51-1.59,1.1-2.62s-1.56-1.54-2.59-1.16c-.03.01-.14.05-.31.12-1.84.72-14.65,5.46-22.9.9-3.09-1.71-4.51-4.75-3.69-7.92.95-3.68,5.15-7.98,13.88-7.98,15.44,0,31.96,12.32,32.12,12.44.74.55,1.76.55,2.48-.03.72-.57.98-1.56.61-2.41-.3-.69-7.16-17,7.88-24.37,9.6-4.7,39.79-7.16,40.09-7.18,1.02-.08,1.82-.91,1.87-1.94.04-1.03-.68-1.92-1.69-2.09h-.03ZM755.63,258.71c-1.33-1.58-1.79-3.47-1.4-5.77,1.5-8.77,19.83-20.09,42.13-22.12,3.9-.35,7.58-.53,11-.53,12.17,0,21.15,2.21,25.79,6.45,2.33,2.13,3.51,4.74,3.51,7.76,0,8.38-21.6,20.82-51.44,20.82-19.85,0-27.05-3.6-29.6-6.61h.01Z"/>
        <path d="M650.68,109.35c-15.91-7.08-33.65-7.26-51.26-5.97-25.22,1.05-48.82,9.56-63.93,17.7-5.55,2.99-13.09,7.66-20.01,7.7-11.72-.61-10.32-13.25-3.22-19.37,16.4-14,52.4-15.38,75.53-15.46,21.63,1.16,45.55-.98,60.43-14.54,15.35-13.48,20.47-29.59,12.08-47.92C646.72,4.57,615.08,0,589.23,0,501.33,0,485.43,75.16,493.5,87.87c3.92,6.18,17.8,5.26,25.87-.37,25.25-17.64,7.6-50.26,19.87-56.3,11.25-4.88,17.64,19.15,62.3,2.78,11.53-4.23,16.86-15.15,30.56-15.15s23.47,13.73,23.47,28.76c0,13.29-11.08,25.25-17.24,24.12-7.81-1.13-4.7-17.15-18.73-24.21-10.45-5.26-23.25-4.35-35.17-2.98-23.23,2.28-39.47,17.27-48.55,29.62-5.35,7.43-7.93,12.49-21.06,24.32-11.12,10.35-27.38,29.97-32.48,48.33-2.25,8.09-1.94,15.52.85,23.62,2.4,6.74,11.28,14.62,20.29,15.64,7.86.98,16.21.57,24.01-.75,2.85-.6,12.6-2.1,5.74-4.33-10.34-2.94-15.69-14.98-15.69-24.14,0-13.85,13.92-26.05,26.19-32.64,9.71-4.94,26.38-8.41,37.51-5.78,8.49,2.06,7.86,8.9,1.24,12.78-5.64,3.02-10.76,3.15-17.7,6.94-3.32,1.81-6.13,4.66-8.04,8.44-7.24,14.98-.14,34,18.47,38.65,14.22,3.74,32.63,2.19,46.09,1.52,1.89.09,18.42-2.37,10.59-3.7-5.53-.67-13.09-.18-19.08-1.58-6.84-1.46-9.56-6.71-3.91-10.55,5.23-3.42,13.18-5.09,19.36-7.21,14.61-4.73,31.54-12.1,36.23-28.26,3.7-11.72-1.81-20.85-13.56-25.95l-.25-.12v-.02Z"/>
        <path class="st4" d="M839.43,81.4h-72.03c-5.6,0-10.4-3.36-10.5-7.64-.1-4.36,4.49-7.92,10.16-7.92h47.71c23.75,0,43.01-14.74,43.01-32.92h0C857.78,14.74,838.52,0,814.77,0h-100.37c-6.33,0-11.46,3.93-11.46,8.77v66.77c0,8.91,15.35,12.15,21.31,4.49,11.53-14.83,25.21-32.11,34.24-42.47,16.32-18.72,39.54-20.11,69.14-20.12,3.73,0,7.06,2.01,7.62,4.83.69,3.51-2.98,6.53-7.34,6.53-36.08,0-51.2-1.15-78.65,37.03l-11,15.56-71.05,93.03c-4.47,5.85,1.04,13.2,9.9,13.2h58.42c4.11,0,7.91-1.69,9.95-4.42l42.92-57.45c5.44-7.3-1.44-16.39-12.42-16.39h-16.46c-4.54,0-8.5-2.62-8.79-6.09-.32-3.8,3.61-6.95,8.5-6.95h68.94c5.32,0,10.33,2.24,12.57,5.93,1.91,3.13,1.61,6.66-.5,9.49l-46.87,62.75c-4.37,5.85,1.15,13.13,9.95,13.13h91.99c6.33,0,11.46-3.93,11.46-8.77v-45.91c0-28.47-30.15-51.54-67.35-51.54h0Z"/>
        <path class="st7" d="M174.3,269.02h-72.03c-5.6,0-10.4-3.36-10.5-7.64-.1-4.36,4.49-7.92,10.16-7.92h47.71c23.75,0,43.01-14.74,43.01-32.92h0c0-18.18-19.26-32.92-43.01-32.92H49.28c-6.33,0-11.46,3.93-11.46,8.77v66.77c0,8.91,15.35,12.15,21.31,4.49,11.53-14.83,25.21-32.11,34.24-42.47,16.32-18.72,39.54-20.11,69.14-20.12,3.73,0,7.06,2.01,7.62,4.83.69,3.51-2.98,6.53-7.34,6.53-36.08,0-51.2-1.15-78.65,37.03l-11,15.56L2.08,362.05c-4.47,5.85,1.04,13.2,9.9,13.2h58.42c4.11,0,7.91-1.69,9.95-4.42l42.92-57.45c5.44-7.3-1.44-16.39-12.42-16.39h-16.46c-4.54,0-8.5-2.62-8.79-6.09-.32-3.8,3.61-6.95,8.5-6.95h68.94c5.32,0,10.33,2.24,12.57,5.93,1.91,3.13,1.61,6.66-.5,9.49l-46.87,62.75c-4.37,5.85,1.15,13.13,9.95,13.13h91.99c6.33,0,11.46-3.93,11.46-8.77v-45.91c0-28.47-30.15-51.54-67.35-51.54h0Z"/>
        <path d="M445.57,365.38c-12.44-7.82-18.75-19.13-18.75-33.63,0-5.46,3.08-17.27,6.65-30.95,6.56-25.13,14-53.62,7.63-61.86-1.26-1.63-2.99-2.46-5.13-2.46-9.62,0-32.18,19.36-63,46.7-22.15,19.65-45.06,39.98-52.07,39.98-.26,0-.59-.04-.71-.2-.74-1.04.79-5.5,2.14-9.44,1.98-5.78,4.44-12.97,4.44-19.89,0-8.67-2.22-11.87-4-14.45-1.08-1.56-1.86-2.69-1.86-4.81,0-1.38.3-2.32.91-2.85,1.5-1.31,5.22-.83,9.92-.22,3.45.45,7.36.96,11.69.96,28.24,0,68-15.22,68-49.05,0-8.62-2.62-15.51-7.79-20.48-11.92-11.45-34.36-10.56-50.75-9.9-3.16.13-6.15.25-8.63.25-62.89,0-88.34-5.05-88.59-5.1l-1.63-.33,8.75,70.97,2.38-.1c0-.15.67-15.11,10.64-29.85,13.16-19.47,36.62-29.76,67.83-29.76,28.63,0,42.54,10.03,42.54,30.65,0,18.72-23.2,34.76-42.18,34.76-3.58,0-9.13-.27-15.56-.59-14.05-.69-31.53-1.56-42.74-.36-16.52,1.76-19.54,5.46-19.54,12.1,0,6.26,3.79,26.9,7.46,46.86,2.93,15.97,5.71,31.05,5.71,34.59,0,15.77-37.32,15.96-37.69,15.96v2.39h91.09l.11-2.39c-.15-.01-15.44-1.62-33.25-19.43-14.21-14.21-26.04-49.72-26.04-58.66,0-14.08,12.22-25.54,27.23-25.54s16.59,8.94,16.59,12.79c0,4.96-4.07,15.16-8.01,25.03-6.08,15.22-11.82,29.6-8.17,34.98.97,1.43,2.49,2.16,4.53,2.16,4.06,0,13.18-8,30.29-23.32,24.71-22.12,58.54-52.41,77.78-52.41,5.29,0,8.77,2.18,10.63,6.67,7.28,17.58-14.16,67.05-29.97,82.85-13.78,13.78-41.08,14.88-41.35,14.89l.04,2.39h111.23l.19-2.38c-.09-.02-9.62-1.61-19-7.49v-.03Z"/>
        <g id="FekGMR.tif">
          <path class="st6" d="M572.32,320.73l-8.51,8.41-5.62,5.19-5.13,4.59-11.26,8.99c-7.85,6.26-22.3,13.96-35.05,18.73-12.7,4.75-27.12,8.31-41.09,8.61,5.6-1.46,11-3.14,16.07-5.91,4.1-2.24,7.92-4.64,11.41-7.67l8.74-7.59c7.95-6.9,19.36-20.63,16.62-31.86-.82-3.35-3.62-5.59-6.99-5.37-5.98.39-13.75,5.83-18.08,9.84l-6.09,5.64c-2.8,2.6-5.11,5.48-7.48,8.56,1.33-6.38,3.6-12.12,6.31-17.8,3.46-7.26,8.19-14.06,13.08-20.36,3.47-4.47,7.12-8.55,11.22-12.5,8.17-7.87,16.85-15.04,26.05-21.68l7.76-5.26c8.6-5.84,17.51-10.96,26.63-16.05l16.65-8.71c2.96-1.55,5.6-3.18,8.37-4.99,3.5-2.3,6.69-4.82,9.2-8.22,3.22-4.38,6.74-12.43,5.21-17.86-.97-3.43-3.71-6.08-6.99-7.44-8.63-3.57-19.91,1.24-27.16,5.92-12,7.74-19.99,15.98-28.88,26.98-5.18,6.41-10.07,12.81-14.82,19.57l-8.89,12.66c-1.38,1.96-2.7,3.73-4.34,5.46-3.49,3.68-7.26,6.98-11.75,9.3-9.3,4.82-20.59,2.46-28.19-5.67-1.73-1.85-3.33-3.69-4.78-5.84-4.64-6.85-7.46-14.34-8.78-22.35-3.48-21.16.64-42.01,13.16-58.41-.99,4.33-1.2,6.71-.43,11.21.86,5.04,2.19,7.47,4.85,12.16,3.67,6.45,9.95,11.07,17.17,12.15,8.11,1.21,16.49-2.16,23.41-5.73,4.5-2.32,8.63-4.78,12.95-7.42,11.45-6.99,22-13.04,35.13-17.04,7.99-2.43,16.02-4.11,24.45-4.89,5.93-.55,11.71-.45,17.66.54,5.25.87,10.2,2.79,14.52,6,5.61,4.16,6.75,13.01,5.03,19.38-2.56,9.53-9.46,17.51-17,23.45-5.4,4.25-11.16,7.61-17.29,10.77l-12.57,6.47c-11.24,6.11-21.63,13.3-31.27,21.59l-8.1,7.4c-3.19,2.92-6.05,5.99-8.64,9.48-2.59,3.49-4.68,8.72-3.53,13.03.88,3.31,4.89,3.92,8.32,3.59,5.9-.56,11.34-2.41,16.18-5.6,6.14-4.04,11.89-8.31,17.57-12.98,4.48-3.68,8.36-7.73,12.42-11.85l9.13-8.54c6.47-6.05,18.15-14.09,27.32-10.78,4.36,1.57,4.77,5.85,4.23,10.22-.57,4.57-2.11,8.59-4.49,12.4l-6.24,10c-2.01,3.22-3.41,6.62-4.51,10.3-.94,3.14-.54,6.51,2.55,7.39,4.32,1.22,11.53-1.52,15.67-3.66,5.48-2.84,10.32-6.27,15.12-10.11,6.06-4.85,11.42-10.22,15.89-16.59l4.31-6.88.13-.46c.02-.08.04-.01.27.19-2.24,8.11-5.25,15.77-9.33,22.99-3.08,5.95-6.36,11.49-10.46,16.74-3.78,4.84-7.66,9.35-12.09,13.56l-7.05,6.7c-15.35,13.94-33.06,25.09-52.81,32.16-20.57,7.36-50.83,9.82-55.73,10.21,0,0,19.31-7.37,28.22-13.48,17.16-11.77,33.75-31.9,41.12-41.26s23.3-32.62,19.99-37.01c-.91-1.2-4.75.98-6.5,2.54l-6.42,5.7c-3.51,3.55-6.59,7.19-9.78,11.05-5.14,6.23-10.15,12.27-15.95,18.01h-.02Z"/>
        </g>
        <g id="FekGMR.tif1">
          <path d="M1249.21,320.73l-8.51,8.41-5.62,5.19-5.13,4.59-11.26,8.99c-7.85,6.26-22.3,13.96-35.05,18.73-12.7,4.75-27.12,8.31-41.09,8.61,5.6-1.46,11-3.14,16.07-5.91,4.1-2.24,7.92-4.64,11.41-7.67l8.74-7.59c7.95-6.9,19.36-20.63,16.62-31.86-.82-3.35-3.62-5.59-6.99-5.37-5.98.39-13.75,5.83-18.08,9.84l-6.09,5.64c-2.8,2.6-5.11,5.48-7.48,8.56,1.33-6.38,3.6-12.12,6.31-17.8,3.46-7.26,8.19-14.06,13.08-20.36,3.47-4.47,7.12-8.55,11.22-12.5,8.17-7.87,16.85-15.04,26.05-21.68l7.76-5.26c8.6-5.84,17.51-10.96,26.63-16.05l16.65-8.71c2.96-1.55,5.6-3.18,8.37-4.99,3.5-2.3,6.69-4.82,9.2-8.22,3.22-4.38,6.74-12.43,5.21-17.86-.97-3.43-3.71-6.08-6.99-7.44-8.63-3.57-19.91,1.24-27.16,5.92-12,7.74-19.99,15.98-28.88,26.98-5.18,6.41-10.07,12.81-14.82,19.57l-8.89,12.66c-1.38,1.96-2.7,3.73-4.34,5.46-3.49,3.68-7.26,6.98-11.75,9.3-9.3,4.82-20.59,2.46-28.19-5.67-1.73-1.85-3.33-3.69-4.78-5.84-4.64-6.85-7.46-14.34-8.78-22.35-3.48-21.16.64-42.01,13.16-58.41-.99,4.33-1.2,6.71-.43,11.21.86,5.04,2.19,7.47,4.85,12.16,3.67,6.45,9.95,11.07,17.17,12.15,8.11,1.21,16.49-2.16,23.41-5.73,4.5-2.32,8.63-4.78,12.95-7.42,11.45-6.99,22-13.04,35.13-17.04,7.99-2.43,16.02-4.11,24.45-4.89,5.93-.55,11.71-.45,17.66.54,5.25.87,10.2,2.79,14.52,6,5.61,4.16,6.75,13.01,5.03,19.38-2.56,9.53-9.46,17.51-17,23.45-5.4,4.25-11.16,7.61-17.29,10.77l-12.57,6.47c-11.24,6.11-21.63,13.3-31.27,21.59l-8.1,7.4c-3.19,2.92-6.05,5.99-8.64,9.48-2.59,3.49-4.68,8.72-3.53,13.03.88,3.31,4.89,3.92,8.32,3.59,5.9-.56,11.34-2.41,16.18-5.6,6.14-4.04,11.89-8.31,17.57-12.98,4.48-3.68,8.36-7.73,12.42-11.85l9.13-8.54c6.47-6.05,18.15-14.09,27.32-10.78,4.36,1.57,4.77,5.85,4.23,10.22s-2.11,8.59-4.49,12.4l-6.24,10c-2.01,3.22-3.41,6.62-4.51,10.3-.94,3.14-.54,6.51,2.55,7.39,4.32,1.22,11.53-1.52,15.67-3.66,5.48-2.84,10.32-6.27,15.12-10.11,6.06-4.85,11.42-10.22,15.89-16.59l4.31-6.88.13-.46c.02-.08.04-.01.27.19-2.24,8.11-5.25,15.77-9.33,22.99-3.08,5.95-6.36,11.49-10.46,16.74-3.78,4.84-7.66,9.35-12.09,13.56l-7.05,6.7c-15.35,13.94-33.06,25.09-52.81,32.16-20.57,7.36-50.83,9.82-55.73,10.21,0,0,19.31-7.37,28.22-13.48,17.16-11.77,33.75-31.9,41.12-41.26,7.37-9.36,23.3-32.62,19.99-37.01-.91-1.2-4.75.98-6.5,2.54l-6.42,5.7c-3.51,3.55-6.59,7.19-9.78,11.05-5.14,6.23-10.15,12.27-15.95,18.01h-.02Z"/>
        </g>
        <g id="XcVOSl">
          <path class="st0" d="M386.98,115.82c-.6,6.54-2.16,12.56-5.3,18.35-2.88,5.3-7.51,9.48-13.68,12-12.28,5.01-25.72.28-32.33-9.45-5.89-8.69-5.58-18.38-1.73-27.73,2.86-6.95,7-13.1,12.7-18.71,6.14-6.04,13.26-11.38,21.65-15.01l16.38-7.08c7.31-3.16,13.98-6.78,20.13-11.43,6.85-5.18,12.25-11.52,13.96-19.28,1.58-7.18-3.62-14.16-12.05-15.56-4.37-.73-8.65.12-12.52,1.89-9.99,4.56-17.04,12.17-20.92,21.18l-3.9,10.5c-2.95,7.96-7.58,15.32-13.46,21.97-4.1,4.63-8.47,8.62-13.18,12.7l-3.42,2.96c-5.18,4.49-10.59,8.57-15.18,13.56-8.74,9.48-13.49,20.64-14.35,32.73-.85,16.49,3.5,34.24,14.92,48.21h-69.69c-.51-19.28,4.86-38.14,17.07-54.41,3.84-5.17,7.91-9.75,12.84-14.19,5.97-5.37,12.57-9.79,19.44-14.33s13.12-8.86,19.12-14.02c5.29-4.55,9.56-9.8,8.21-16.22-1.28-6.09-10.53-7.71-17.91-6.63-10.35,1.51-19.42,6.08-26.56,12.62-4.54,3.95-7.69,8.44-10.74,13.34-5.5,8.84-8.9,18.18-11.68,28.15-4.2-25.9,1.21-50.49,16.78-73.13C295.56,28.4,315.6,10.49,340.99,0c-6.65,6.28-11.96,12.7-15.97,20.17-2.79,4.73-4.66,9.56-5.6,14.8-1.3,7.65.52,15.11,8.62,18.97,3.41,1.63,7.06,2.01,10.86,1.09,8.68-2.09,13.23-7.95,17.6-14.41,3.68-5.45,7.16-10.75,11.5-15.86,5.89-6.93,13.05-12.76,21.78-16.97,16.72-8.07,39.44-9.91,54.91.68,5.98,4.09,9.74,9.93,11.16,16.42,2.82,12.8-2.34,25.66-12.87,34.94-6.96,6.14-15.16,10.63-24.63,13.45-5.33,1.59-10.58,2.66-16.07,3.77l-12.74,2.59c-7.25,1.47-13.95,3.8-20.63,6.58-4.58,1.9-8.38,4.26-12.18,7.16-9.33,7.1-15.86,21.05-5.38,28.23,4.16,2.85,9.69,2.56,13.72-.5,3.3-2.5,5.39-5.79,7.13-9.32,2.22-4.49,4.3-8.82,7.46-12.9,4.66-6,10.65-11.01,18.34-14.1,9.64-3.86,20.08-5,30.79-4.17,12.62.98,24.47,5.65,33.75,12.88,4.97,3.87,8.62,8.26,11.39,13.42,5.94,11.06,7.51,24.02,6.8,36.2-.6,7.72-1.89,15.05-3.95,22.57l-6.96,21.92h-90.83l3.78-3.79,9.98-10.48c8.02-8.42,14.74-17.43,21.13-26.84,6.92-10.19,12.33-22.81,11.91-34.6-.18-4.97-1.6-9.63-5.17-13.47-5.41-5.81-14.85-7.08-22.08-2.99-7.78,4.4-10.78,12.28-11.51,20.36h-.05Z"/>
        </g>
        <path d="M967.94,186.87c.24.48.72.76,1.22.76.2,0,.41-.05.6-.14.67-.33.95-1.15.62-1.82-8.35-17.06-28.22-60.43-24.6-70.22.33-.9.78-1.09.92-1.15,1.33-.57,2.61-.53,3.94.13,6.17,3.07,11.08,18.33,12.45,23.95.14.57.62.98,1.21,1.03.56.03,1.13-.28,1.37-.81.1-.23,10.13-22.68,27.75-22.68,3.95,0,6.66,1.13,8.05,3.37,3.76,6.05-2.21,18.29-2.27,18.41-.29.58-.12,1.29.39,1.69.52.4,1.24.37,1.73-.06,9.81-8.63,31.36-14.99,42.52-10.12,4.02,1.75,6.11,4.83,6.22,9.13.47,17.93-19.49,24.81-19.81,24.92h0c-.71.24-1.1,1.01-.86,1.72s1,1.1,1.72.87h0c.27-.09,26.92-8.87,48.39-5.94,23.36,3.18,57.06,27.02,57.4,27.26.61.43,1.46.3,1.9-.31.44-.61.3-1.46-.3-1.9-.2-.15-20.33-14.99-27.59-29.51-6.93-13.87,1.71-22.45,2.07-22.81.44-.42.55-1.09.26-1.63-.29-.54-.9-.82-1.5-.69-.21.05-21.52,4.86-33.23,4.86s-21.47-5.19-25.44-13.87c-1.83-4.01-1.8-7.84.09-10.78,2.14-3.33,7.74-7.3,22.23-7.3,23.29,0,48.32,17.36,48.57,17.54.57.4,1.35.31,1.81-.22.46-.52.45-1.31-.02-1.82-.14-.15-13.7-15.14-6.71-22.12,6.12-6.12,31.32-1.81,40.52.36.68.16,1.37-.22,1.6-.88.23-.66-.07-1.39-.71-1.68-.09-.04-9.5-4.49-18.78-10.22-15.86-9.8-18.23-15.14-18.23-17.45,0-10.25,20.51-23.62,20.72-23.75.52-.34.75-.99.55-1.58s-.79-.97-1.39-.93c-.3.02-29.99,2.22-51.92,2.22-3.88,0-7.28-1.45-10.11-4.31-10.46-10.56-10.32-36.74-10.32-37,0-.67-.47-1.24-1.12-1.36-.66-.12-1.3.26-1.52.89-.1.29-10.73,29.32-39.62,29.32s-31.44-23.99-31.54-25.01c-.08-.74-.73-1.29-1.48-1.22-.74.07-1.29.72-1.24,1.46.03.46.71,11.29-10.43,19.4-6.75,4.91-24.24,6.45-39.59,6.93-9.06-.19-16.55.13-18.49.22-.74.04-1.32.66-1.3,1.4s.62,1.33,1.36,1.33c4.68,0,10.86,0,17.5-.19,16,.32,35.25,2.11,39.01,7.89,6.28,9.65-12.56,26.66-12.75,26.83-.54.48-.61,1.29-.17,1.85s1.24.69,1.84.29c.22-.15,22.29-15,33.8-20.14,7.52-3.36,30.43-13.6,38.15-4.37,1.1,1.31,1.46,2.67,1.13,4.15-1.28,5.69-12.28,11.84-16.4,13.73-.67.31-.97,1.09-.69,1.76.28.68,1.05,1.01,1.74.75.3-.11,30.01-11.21,44.66-12.67,10.12-1.02,22.95-.27,28.6,4.84,1.79,1.62,2.66,3.52,2.66,5.81,0,1.14-.46,2.12-1.41,2.99-5.23,4.8-22.79,4.44-29.11,3.9-.73-.07-1.36.45-1.47,1.16s.37,1.39,1.07,1.53c.17.03,16.72,3.48,21.89,7.95,2.96,2.56,5.56,6.75,4.54,9.48-.93,2.5-4.98,3.87-11.4,3.87-18.01,0-42.1-21.68-42.34-21.9-.49-.45-1.24-.48-1.76-.06-.52.41-.67,1.14-.35,1.73.06.1,5.64,10.38,1.99,16.57-1.92,3.26-6.2,4.91-12.71,4.91-21.74,0-40.29-16.88-43.78-20.25-.34-.35-.57-.57-.63-.62-.54-.51-1.39-.5-1.91.03-.52.53-.53,1.37-.02,1.91.09.09.4.41.91.91,3.22,3.33,8.91,10.53,7.11,15.02-1.31,3.28-6.68,5.01-15.54,5.01-32.14,0-70.8-30.79-71.17-31.09-.56-.45-1.37-.38-1.86.15-.48.53-.47,1.35.02,1.86.23.24,24.15,25.21,24.39,42.46.23,16.85-23.65,26.62-23.9,26.72-.65.26-.99.97-.8,1.64s.85,1.1,1.55.97c.15-.03,15.18-2.5,30.49,8.03,15.52,10.67,28.91,36.41,29.05,36.7h0Z"/>
        <path class="st7" d="M1331.06,109.35c-15.91-7.08-33.65-7.26-51.26-5.97-25.22,1.05-48.82,9.56-63.93,17.7-5.55,2.99-13.09,7.66-20.01,7.7-11.72-.61-10.32-13.25-3.22-19.37,16.4-14,52.4-15.38,75.53-15.46,21.63,1.16,45.55-.98,60.43-14.54,15.35-13.48,20.47-29.59,12.08-47.92-13.6-26.93-45.23-31.49-71.08-31.49-87.9,0-103.8,75.16-95.73,87.87,3.92,6.18,17.8,5.26,25.87-.37,25.25-17.64,7.6-50.26,19.87-56.3,11.25-4.88,17.64,19.15,62.3,2.78,11.53-4.23,16.86-15.15,30.56-15.15s23.47,13.73,23.47,28.76c0,13.29-11.08,25.25-17.24,24.12-7.81-1.13-4.7-17.15-18.73-24.21-10.45-5.26-23.25-4.35-35.17-2.98-23.23,2.28-39.47,17.27-48.55,29.62-5.35,7.43-7.93,12.49-21.06,24.32-11.12,10.35-27.38,29.97-32.48,48.33-2.25,8.09-1.94,15.52.85,23.62,2.4,6.74,11.28,14.62,20.29,15.64,7.86.98,16.21.57,24.01-.75,2.85-.6,12.6-2.1,5.74-4.33-10.34-2.94-15.69-14.98-15.69-24.14,0-13.85,13.92-26.05,26.19-32.64,9.71-4.94,26.38-8.41,37.51-5.78,8.49,2.06,7.86,8.9,1.24,12.78-5.64,3.02-10.76,3.15-17.7,6.94-3.32,1.81-6.13,4.66-8.04,8.44-7.24,14.98-.14,34,18.47,38.65,14.22,3.74,32.63,2.19,46.09,1.52,1.89.09,18.42-2.37,10.59-3.7-5.53-.67-13.09-.18-19.08-1.58-6.84-1.46-9.56-6.71-3.91-10.55,5.23-3.42,13.18-5.09,19.36-7.21,14.61-4.73,31.54-12.1,36.23-28.26,3.7-11.72-1.81-20.85-13.56-25.95l-.25-.12v-.02Z"/>
      </g>
    </g>
  </g>
  <g id="Layer_4" class="st8">
    <g>
      <path d="M180.74,145.36v-8.94c0-5.77-4.67-10.44-10.44-10.44h-8.94c-5.77,0-10.44-4.67-10.44-10.44v-7.67c0-5.77,4.67-10.44,10.44-10.44h8.94c5.77,0,10.44-4.67,10.44-10.44v-10.22c0-5.77-4.67-10.44-10.44-10.44h-8.94c-5.77,0-10.44-4.67-10.44-10.44v-7.67c0-5.77,4.67-10.44,10.44-10.44h8.94c5.77,0,10.44-4.67,10.44-10.44v-10.22c0-5.77-4.67-10.44-10.44-10.44H40.77c-5.77,0-10.44,4.67-10.44,10.44v10.22c0,5.77,4.67,10.44,10.44,10.44h8.94c5.77,0,10.44,4.67,10.44,10.44v7.67c0,5.77-4.67,10.44-10.44,10.44h-8.94c-5.77,0-10.44,4.67-10.44,10.44v10.22c0,5.77,4.67,10.44,10.44,10.44h8.94c5.77,0,10.44,4.67,10.44,10.44v7.67c0,5.77-4.67,10.44-10.44,10.44h-8.94c-5.77,0-10.44,4.67-10.44,10.44v8.94c0,5.77-4.67,10.44-10.44,10.44h-8.94c-5.77,0-10.44,4.67-10.44,10.44v10.22c0,5.77,4.67,10.44,10.44,10.44h10.22c5.77,0,10.44-4.67,10.44-10.44v-8.94c0-5.77,4.67-10.44,10.44-10.44h8.94c5.77,0,10.44-4.67,10.44-10.44v-8.94c0-5.77,4.67-10.44,10.44-10.44h67.32c5.77,0,10.44,4.67,10.44,10.44v8.94c0,5.77,4.67,10.44,10.44,10.44h8.94c5.77,0,10.44,4.67,10.44,10.44v8.94c0,5.77,4.67,10.44,10.44,10.44h10.22c5.77,0,10.44-4.67,10.44-10.44v-10.22c0-5.77-4.67-10.44-10.44-10.44h-8.94c-5.77,0-10.44-4.67-10.44-10.44h0ZM91.26,57.15v-8.94c0-5.77,4.67-10.44,10.44-10.44h7.67c5.77,0,10.44,4.67,10.44,10.44v8.94c0,5.77,4.67,10.44,10.44,10.44h8.94c5.77,0,10.44,4.67,10.44,10.44v7.67c0,5.77-4.67,10.44-10.44,10.44h-67.32c-5.77,0-10.44-4.67-10.44-10.44v-7.67c0-5.77,4.67-10.44,10.44-10.44h8.94c5.77,0,10.44-4.67,10.44-10.44h0Z"/>
      <path d="M1316.56,344.66v-8.94c0-5.77-4.67-10.44-10.44-10.44h-8.94c-5.77,0-10.44-4.67-10.44-10.44v-7.67c0-5.77,4.67-10.44,10.44-10.44h8.94c5.77,0,10.44-4.67,10.44-10.44v-10.22c0-5.77-4.67-10.44-10.44-10.44h-8.94c-5.77,0-10.44-4.67-10.44-10.44v-7.67c0-5.77,4.67-10.44,10.44-10.44h8.94c5.77,0,10.44-4.67,10.44-10.44v-10.22c0-5.77-4.67-10.44-10.44-10.44h-129.53c-5.77,0-10.44,4.67-10.44,10.44v10.22c0,5.77,4.67,10.44,10.44,10.44h8.94c5.77,0,10.44,4.67,10.44,10.44v7.67c0,5.77-4.67,10.44-10.44,10.44h-8.94c-5.77,0-10.44,4.67-10.44,10.44v10.22c0,5.77,4.67,10.44,10.44,10.44h8.94c5.77,0,10.44,4.67,10.44,10.44v7.67c0,5.77-4.67,10.44-10.44,10.44h-8.94c-5.77,0-10.44,4.67-10.44,10.44v8.94c0,5.77-4.67,10.44-10.44,10.44h-8.94c-5.77,0-10.44,4.67-10.44,10.44v10.22c0,5.77,4.67,10.44,10.44,10.44h10.22c5.77,0,10.44-4.67,10.44-10.44v-8.94c0-5.77,4.67-10.44,10.44-10.44h8.94c5.77,0,10.44-4.67,10.44-10.44v-8.94c0-5.77,4.67-10.44,10.44-10.44h67.32c5.77,0,10.44,4.67,10.44,10.44v8.94c0,5.77,4.67,10.44,10.44,10.44h8.94c5.77,0,10.44,4.67,10.44,10.44v8.94c0,5.77,4.67,10.44,10.44,10.44h10.22c5.77,0,10.44-4.67,10.44-10.44v-10.22c0-5.77-4.67-10.44-10.44-10.44h-8.94c-5.77,0-10.44-4.67-10.44-10.44h.01ZM1227.08,256.46v-8.94c0-5.77,4.67-10.44,10.44-10.44h7.67c5.77,0,10.44,4.67,10.44,10.44v8.94c0,5.77,4.67,10.44,10.44,10.44h8.94c5.77,0,10.44,4.67,10.44,10.44v7.67c0,5.77-4.67,10.44-10.44,10.44h-67.32c-5.77,0-10.44-4.67-10.44-10.44v-7.67c0-5.77,4.67-10.44,10.44-10.44h8.94c5.77,0,10.44-4.67,10.44-10.44h.01Z"/>
      <path d="M613.35,51.65c0-.24,0-.48-.01-.72-.64-24.81-21.65-44.26-46.47-44.26h-75.32c-24.81,0-45.83,19.45-46.47,44.26,0,.24-.01.48-.01.72-.16,15.58-4.63,30.85-13.52,43.64-5.94,8.55-9.43,18.93-9.43,30.12v61.5h0c13.86,0,25.09-11.23,25.09-25.09v-36.4c0-15.38,12.47-27.85,27.85-27.85h108.3c15.38,0,27.85,12.47,27.85,27.85v36.4c0,13.86,11.23,25.09,25.09,25.09h0v-61.5c0-11.18-3.49-21.56-9.43-30.12-8.89-12.8-13.36-28.06-13.52-43.64ZM490.52,72.47c-11.22,0-20.35-9.13-20.35-20.36s9.13-20.35,20.35-20.35h77.39c11.22,0,20.35,9.13,20.35,20.35s-9.13,20.36-20.35,20.36h-77.39,0Z"/>
      <path d="M409.57,172.19l-63.63-136.37c-7.16-17.05-23.97-29.04-43.59-29.14h-67.9c-6.27,0-11.36,5.09-11.36,11.36v157.85c0,6.27,5.09,11.36,11.36,11.36h28.9c6.27,0,11.36-5.09,11.36-11.36v-62.99c0-8.41,7.9-14.51,16.08-12.51,3.62.89,7.41,1.36,11.3,1.36,10.52,0,20.24-3.42,28.11-9.2,6.54-4.81,15.87-2.26,19.25,5.13l39.64,83.9c2.59,5.66,9.27,8.14,14.92,5.56,5.66-2.59,8.14-9.27,5.56-14.92v-.03ZM304.13,85.09c-18.67,1.2-34.12-14.25-32.93-32.91.98-15.43,13.44-27.89,28.87-28.88,18.67-1.2,34.12,14.25,32.93,32.92-.98,15.43-13.44,27.88-28.87,28.87Z"/>
      <path d="M1120.74,370.06l-63.63-136.37c-7.16-17.05-23.97-29.04-43.59-29.14h-67.9c-6.27,0-11.36,5.09-11.36,11.36v157.85c0,6.27,5.09,11.36,11.36,11.36h28.9c6.27,0,11.36-5.09,11.36-11.36v-62.99c0-8.41,7.9-14.51,16.08-12.51,3.62.89,7.41,1.36,11.3,1.36,10.52,0,20.24-3.42,28.11-9.2,6.54-4.81,15.87-2.26,19.25,5.13l39.64,83.9c2.59,5.66,9.27,8.14,14.92,5.56,5.66-2.59,8.14-9.27,5.56-14.92v-.03ZM1015.29,282.97c-18.67,1.2-34.12-14.25-32.93-32.91.98-15.43,13.44-27.89,28.87-28.88,18.67-1.2,34.12,14.25,32.93,32.92-.98,15.43-13.44,27.88-28.87,28.87h0Z"/>
      <path d="M664.96,253.15c-38.27-50.23-99.51-54.73-132.48-46.36-35.14,8.92-41.18,34.25-34.51,51.93,7.07,18.73,43.97,24.15,56.14,33.67s15.41,27.91-1.52,45.98c-12.37,13.2-44.56,32.55-61,42.01-2.68,1.54-1.58,5.63,1.51,5.63h79.91c1.01,0,1.94-.5,2.5-1.33,3.21-4.76,13.64-22.07,15.55-48.15,1.49-20.31-8.31-32.67-11.16-40.57-2.43-6.75-1.98-9.52-.18-10.43,1.66-.84,4.35,1.9,6.63,7.4s6.47,22.23,10.4,28.64c4.85,7.9,13.08,11.55,20.85,11.55s22.75-5.24,24.86-21.98c2.23-17.74-7.6-25.62-16.52-32.64-8.91-7.02-15.75-8.99-22.53-13.83-7.61-5.43-10.17-11.1-7.78-14.79,3.29-5.07,18.59,2.09,29.4,9.29,10.81,7.21,29.48,23.62,32.95,46.41,5.72,37.58-21.37,64.22-35.05,75.05-2.25,1.78-.99,5.38,1.87,5.38h68.91c1.44,0,2.69-1.02,2.96-2.43,2.48-12.81,11.33-73.94-31.71-130.42h0ZM614.24,287.11c7.81,6.78,11.76,17.55,6.63,21.66-5.16,4.13-10.61-1.62-15.18-8.1s-13.26-25.19-28.29-30.79c-15.03-5.6-36.08-1.09-50.39-5.75-12.91-4.2-23.43-17.53-17.68-30.79,5.75-13.26,27.26-15.18,39.19-8.84s15.16,16.28,18.18,21.72c5.24,9.42,13.82,16.12,25.14,23.48,9.88,6.43,14.59,10.64,22.39,17.42h0Z"/>
      <path d="M1342.67,181.03l-10.22-64.46c-4.18-26.35-28.8-45.9-57.82-45.9h-7.64c-7.26,0-13.58-4.54-15.32-11l-4.54-16.79c-5.85-21.66-27.04-36.86-51.36-36.86h-33.73c-12.03,0-20.16,11.25-15.49,21.42l14.94,32.48c2.22,4.83.18,10.53-4.87,12.98-6.66,3.23-11.2,9.65-11.2,17.05v91.73c0,2.53,2.23,4.58,4.99,4.58h77.8c2.25,0,3.98-1.82,3.68-3.86l-4.43-30.47c-4.08-27.31-23.22-47.74-51.91-47.87-4.42-.02-8.24-3.07-8.49-7.12-.27-4.38,3.51-8,8.22-8h27.5c20.13,0,37.35,13.3,40.77,31.5l11.68,62.02c.41,2.2,2.49,3.8,4.92,3.8h77.56c3.04,0,5.38-2.48,4.94-5.24h.02ZM1227.31,72.22c-5.19,5.22-23.74-2.56-41.44-17.37-17.7-14.82-27.84-31.06-22.65-36.28s23.74,2.56,41.44,17.37c17.7,14.81,27.84,31.06,22.65,36.28Z"/>
      <path d="M904.06,300.52c-11.6-6.79-28.46-3.72-33.28-8.76-4.82-5.04,2.19-20.58-10.95-31.74-13.14-11.17-21.89-9.63-27.8-14.23-5.91-4.6-5.47-7.22-5.47-12.26v-23.1c0-2.36-1.91-4.27-4.27-4.27h-64.36c-2.36,0-4.27,1.91-4.27,4.27v69.37c0,15.53-5.18,16.18-16.6,22.82-24.96,14.5-23.08,64.69-21.99,79.13.17,2.22,2,3.93,4.22,3.95,14.81.11,67.81.49,83.16.18,2.33-.05,4.19-1.94,4.19-4.27v-25.12c0-2.03-1.42-3.78-3.41-4.18-7.51-1.5-24.83-7.08-24.83-26.63,0-24.96,22.55-61.74,54.51-61.74,3.94,0,12.92,4.82,12.92,13.57,0,15.32-13.57,25.18-13.57,38.53s9.41,12.92,13.57,12.92c9.41,0,33.06-26.05,45.75-26.05s16.5,8.77,16.13,15.76c-.53,10.12-13.96,20.92-33.88,20.18-15.56-.58-25.04-1.62-30.05-2.33-2.45-.35-4.69,1.45-4.86,3.93l-2.85,40.64c-.17,2.47,1.78,4.57,4.26,4.57h47.74c15.32,0,33.5-12.11,33.5-38.31,0-18.61-5.91-40.06-17.51-46.85v.02ZM810.78,260.19c-20.15,8.18-32.79,19.09-39.8,26.72-2.4,2.62-6.75.63-6.33-2.9,3.79-31.32,20.71-70.1,35.2-70.1s13.62,33.74,13.2,43.06c-.06,1.42-.95,2.68-2.27,3.21h0Z"/>
      <g>
        <path d="M194.74,381.28c-.38-.1-.58-.15-.58-.15,0,0,.2.06.58.15Z"/>
        <path d="M510.5,325.31c-.17.25-17.48,24.55-39.66,24.55-20.14,0-30.85-6.58-32.74-20.11-2.89-20.71,32.63-30.16,32.99-30.25l-.31-1.97c-.3.02-30.07,1.74-33.23-13.97-3.38-16.77,11.83-25.37,21.2-29l-.64-1.89c-6.02,1.75-14.43,3.84-20.26,3.84-12.17,0-24.12-1.42-24.89-18.37-.36-7.97,2.34-15.02,8.02-20.97,7.81-8.17,19.81-12.44,27.62-12.44l.31-1.95c-.48-.15-11.69-2.8-24.43-.53-22.59,4.02-49.25,24.2-72.56,45.35-16.49,14.96-32.06,29.09-44.04,33.53-20.55,7.61-33.82,8.11-43.5,8.48-2.63.1-4.91.19-6.97.41l.11,1.99c.37,0,36.83-.18,46.98,10.37,1.78,1.85,2.59,3.86,2.48,6.14-.42,9.03-10.31,11.68-24,15.35-5.22,1.4-11.13,2.98-17.01,5.12-18.48,6.72-27.06,19-36.99,33.21-1.52,2.18-3.08,4.42-4.73,6.7-10.82,15.04-26.27,12.13-29.26,11.4l-.49,1.94c3.13.8,15.25,3.56,34.4,3.56,10.21,0,22.41-.79,36.3-3.07,19.92-3.27,43.05-19.05,52.07-25.68l-1.16-1.63c-7.31,4.99-20.77,11.78-28.69,1.18-2.29-3.05-2.9-7.57-1.64-12.09,1.12-4.04,4.72-11.51,16.17-16.15,19.36-7.85,35.38,9.45,35.54,9.63l1.59-1.2c-.3-.49-7.35-12.07,1.02-23.42,5.41-7.35,16.38-12.1,27.93-12.03,7.97.03,14.48,2.47,17.42,6.52,4.66,6.42.9,13.55-3.08,18.41l1.46,1.36c5.42-5.07,16.55-12.93,30.15-8.56,7.27,2.33,12.22,7.81,13.58,15.04,1.75,9.28-2.56,19.46-11.27,26.55-16.55,13.49-32.68,11.03-32.84,11l-.78,1.78c.19.15,19.28,14.64,49.16,11.63,53.63-5.41,80.13-58.22,80.4-58.76l-1.72-1.01h0ZM405.12,255.5c-1.05,10.15-21.09,15.89-21.3,15.94l.41,1.95c.2-.03,20.54-2.91,26.96,2.46,1.15.96,1.73,2.1,1.77,3.5.06,1.66-.43,2.99-1.49,4.09-3.43,3.55-12.28,4.03-20.48,4.03-13.5,0-35.29,0-59.02,5.18,6.9-4.23,18.06-12.12,25.84-22.83l1.82-2.51c10.84-14.96,19.4-26.77,33.41-26.77,3.23,0,6.4,1.45,8.68,3.99,2.61,2.9,3.82,6.79,3.38,10.97h.02Z"/>
      </g>
      <path d="M702.18,11.56l-49.42,68.9c-1.43,1.99-2.2,4.39-2.2,6.84v87.21c0,6.5,5.28,11.76,11.78,11.74,9.35-.03,22.37.19,31.77.38,6.58.14,11.97-5.16,11.97-11.73v-54.75c0-3.11-1.24-6.1-3.44-8.3l-16.76-16.76c-7.39-7.39-2.16-20.04,8.3-20.04h107.51c6.48,0,11.74,5.25,11.74,11.74v43.04c0,3.11,1.24,6.1,3.44,8.3l45.34,45.34c2.2,2.2,5.19,3.44,8.3,3.44h27.93c6.48,0,11.74-5.25,11.74-11.74V18.4c0-6.48-5.25-11.74-11.74-11.74h-186.72c-3.78,0-7.33,1.82-9.54,4.9ZM880.07,55.87h-148.89c-6.48,0-11.74-5.25-11.74-11.74h0c0-6.48,5.25-11.74,11.74-11.74h148.89c6.48,0,11.74,5.25,11.74,11.74h0c0,6.48-5.25,11.74-11.74,11.74Z"/>
      <path d="M952.33,130.99c-7.25-51.13-18.7-79.03-6.35-80.8,12.35-1.76,77.98,54.34,80.09,52.92,2.12-1.41-4.76-20.58-13.1-38.82-8.34-18.24-18.93-27.96-14.76-39.77,1.75-4.95,4.81-8.62,7.77-11.22,2-1.75.63-5.03-2.02-4.84-8.05.59-19.63,2.23-29.72,6.68-19.64,8.66-29.87,26.75-29.87,26.75l-16.5-39.25s68.93-5.5,98.03-.51c31.9,5.47,80.71,28.54,87.14,84.8,5.35,46.83-14.44,60.85-8.27,77.76,5.11,14.01,33.83,16.85,33.83,16.85l.34,2.37h-92.67l.32-2.37s55.3-20.36,57.58-67.99c.91-19.05-5.19-31.15-14.33-35.54-13.91-6.68-43.47-3.88-55.41-2.39-2.56.32-4.1,3-3.08,5.37,4.6,10.74,14.54,36.63,5.31,40.78-11.7,5.27-59.48-52.95-74.11-47.39-14.15,5.38,8.3,92.57,61.43,107.16l.18,2.37h-101.44l.3-2.37c13.07-2.89,35.83-4.57,29.31-50.55ZM1056.34,65.77c15.34,0,36.14,3.76,36.14,3.76-19.97-41.05-62.67-55.6-75.17-55.77-14.7-.19-3.98,39.97,5.87,47.42,8.89,6.73,17.81,4.59,33.15,4.59h.01Z"/>
      <path d="M241.71,272.7c-24.28,26.75-54.38,47.73-60.21,34.42-7-15.98,38.2-67.57,28.61-94.32-7.66-21.36-39.54-31.93-80.3-15.45-27.4,11.08-50.86,35.52-63.16,53.1-1.34,1.91,1.99,3.7,3.7,1.99,11.5-11.48,36.59-23.65,44.08-17.48,13.05,10.74-20.27,24.43-33.26,54.48-14.46,33.48-7.28,57.37-45.71,76.1-13.92,6.78-24.34,7.81-31.63,6.84-2.94-.39-4.56,2.58-2.21,4.04,10.26,6.33,27.51,11.55,52.67,3.53,45.48-14.49,56.58-52.09,63.98-72.81.51-1.42-1.98-2.23-2.86-.93-12.77,18.77-33.75,20.32-33.03,8.66,2.17-35.18,44.24-53.77,59.21-61.69,14.97-7.92,47.5-14.08,44.9,1.73-3.39,20.66-30.18,43.06-44.55,53.17-2.07,1.45.06,4.08,2.58,3.18,8.4-2.98,15.23-1.83,17.17-.05,4.49,4.13,7.84,18.48-30.44,48.65-15.12,11.91-26.55,16.11-36.02,21.36-1.97,1.09-.7,3.55,1.66,3.22,15.59-2.19,54.98-4.94,96.13-35.52,37.98-28.23,45.01-54.98,54.1-73.9,1.3-2.7-3.29-4.67-5.41-2.33h0ZM165.17,233.57c-15.88,10.66-32.66,15.61-37.48,11.05-4.82-4.56,4.15-16.89,20.04-27.55,15.88-10.66,32.66-15.61,37.48-11.05,4.82,4.56-4.15,16.89-20.04,27.55h0Z"/>
    </g>
  </g>
  <g id="Layer_2" class="st8">
    <g>
      <path d="M448.84,113.28c9.8-5.38,37.22-18.11,46.43-12.36,2.28,1.43,3.31,3.95,3.12,7.7-1.24,24.75-50.47,55.3-50.97,55.61-.49.3-.74.85-.66,1.41.09.56.49,1.01,1.04,1.16,23.22,6.18,47.89,7.91,48.95,7.64.55-.14.92-.61,1.01-1.16s-.19-1.12-.66-1.43c-.04-.02-2.82-10.46-4.69-22.62-2.02-13.09,11.38-30.83,26.05-34.52,6.97-1.76,14.34-.45,19.22,3.39,4.62,3.64,7.01,9.48,6.91,16.87-.25,18.76-19.24,36.72-19.43,36.9-.42.4-.56,1-.35,1.55.21.54.72.9,1.3.91h1.52c70.1,0,136.86-87.64,137.52-88.53.45-.59.36-1.42-.2-1.91-.56-.49-1.4-.46-1.92.05-.35.34-34.88,33.39-73.63,33.39-21.56,0-36.12-10.49-47.83-18.93-4.07-2.93-7.69-5.53-11.11-7.38,5.89-.35,14.44-1.36,25.41-3.91,27.21-6.33,59.18-25.64,63.4-45.78.42-2.02,2.18-12.56-4.73-21.32-5.68-7.2-15.45-11.07-29.05-11.5-21.36-.66-40.35,6.93-54.23,12.48-8.12,3.25-15.15,6.06-19.8,6.06-1.96,0-3.52-.7-4.75-2.16-5.33-6.22-2.77-23.04-2.74-23.22.1-.65-.25-1.27-.85-1.52s-1.3-.06-1.68.46c-30.6,41.1-36.88,79.44-36.93,79.83-.1.6.21,1.2.75,1.47.54.27,1.2.19,1.64-.24.35-.34,35.59-34.19,68.24-44.88,16.88-5.52,39.7-8.77,49.9-2.87,2.83,1.65,4.49,3.84,5.08,6.71.61,2.99-.08,5.91-2.06,8.67-6.56,9.21-26.5,16.44-56.14,20.37-52.79,6.99-84.46,41.08-84.79,41.43-.46.51-.5,1.28-.06,1.83.42.55,1.19.7,1.8.36h0l-.03-.02h0Z"/>
      <path d="M57.38,173.65c.21.44.66.7,1.12.7.19,0,.37-.04.55-.12.61-.3.87-1.05.57-1.67-7.64-15.59-26.75-58.02-23.45-66.96.3-.82.71-1,.85-1.05,1.21-.52,2.4-.49,3.61.11,5.65,2.8,10.14,16.75,11.39,21.9.12.52.57.9,1.11.95.51.03,1.04-.25,1.25-.75.09-.21,9.27-20.74,25.41-20.74,3.62,0,6.09,1.04,7.36,3.08,3.44,5.52-2.02,16.73-2.07,16.82-.26.54-.11,1.18.36,1.55.47.36,1.14.34,1.58-.05,8.98-7.89,28.7-13.71,38.92-9.25,3.68,1.61,5.59,4.41,5.69,8.35.43,16.4-17.83,22.68-18.13,22.78-.65.21-1.01.92-.79,1.57.22.65.92,1.01,1.57.8.25-.07,24.64-8.1,44.3-5.43,21.39,2.9,52.22,24.7,52.53,24.93.56.4,1.34.27,1.73-.29.4-.56.27-1.33-.27-1.73-.19-.14-18.61-13.7-25.26-26.98-6.35-12.68,1.56-20.53,1.9-20.85.41-.39.5-1,.24-1.5s-.82-.75-1.37-.62c-.2.05-19.69,4.44-30.42,4.44s-19.65-4.74-23.28-12.69c-1.67-3.66-1.65-7.17.09-9.86,1.96-3.04,7.07-6.67,20.35-6.67,21.31,0,44.22,15.88,44.46,16.03.52.36,1.24.29,1.66-.2.42-.47.41-1.2,0-1.66-.12-.14-12.54-13.83-6.14-20.23,5.6-5.6,28.67-1.66,37.08.34.62.15,1.25-.2,1.46-.8.21-.6-.06-1.27-.65-1.55-.09-.04-8.7-4.1-17.18-9.35-14.52-8.96-16.68-13.83-16.68-15.95,0-9.37,18.77-21.6,18.97-21.71.47-.31.69-.9.51-1.45-.18-.55-.72-.88-1.27-.85-.28.02-27.45,2.03-47.52,2.03-3.54,0-6.66-1.32-9.25-3.94-9.57-9.66-9.45-33.59-9.45-33.83,0-.61-.42-1.13-1.04-1.23-.6-.11-1.2.24-1.4.81-.1.26-9.82,26.81-36.26,26.81s-28.82-21.95-28.92-22.88c-.07-.67-.66-1.18-1.35-1.11-.67.06-1.19.66-1.14,1.33.04.42.65,10.32-9.55,17.74-6.18,4.49-22.19,5.9-36.24,6.33-8.3-.17-15.15.11-16.92.2-.67.04-1.2.6-1.19,1.27s.57,1.22,1.25,1.22c4.29,0,9.93,0,16.02-.17,14.65.3,32.27,1.93,35.71,7.22,5.75,8.82-11.49,24.38-11.67,24.53-.49.44-.56,1.18-.15,1.69.4.51,1.14.64,1.68.26.2-.14,20.4-13.71,30.93-18.41,6.89-3.08,27.85-12.43,34.93-4,1,1.2,1.33,2.44,1.04,3.8-1.17,5.2-11.23,10.83-15.01,12.55-.61.27-.89,1-.64,1.61.26.62.96.92,1.58.69.27-.1,27.46-10.24,40.88-11.58,9.26-.93,21-.25,26.18,4.42,1.63,1.48,2.43,3.22,2.43,5.31,0,1.05-.42,1.93-1.29,2.73-4.79,4.39-20.86,4.06-26.64,3.56-.67-.06-1.25.41-1.35,1.06-.1.65.34,1.27.99,1.4.15.04,15.3,3.18,20.03,7.27,2.71,2.34,5.09,6.17,4.15,8.67-.85,2.28-4.55,3.54-10.43,3.54-16.48,0-38.53-19.82-38.76-20.02-.45-.41-1.14-.44-1.61-.05-.47.37-.61,1.05-.31,1.58.05.1,5.17,9.5,1.82,15.16-1.76,2.98-5.68,4.49-11.63,4.49-19.89,0-36.87-15.43-40.07-18.52-.31-.32-.52-.52-.57-.57-.49-.47-1.27-.45-1.75.02-.47.49-.49,1.26-.01,1.74.09.09.36.37.84.84,2.94,3.04,8.15,9.62,6.51,13.73-1.2,2.99-6.11,4.57-14.22,4.57-29.41,0-63.62-27.03-63.97-27.31-.51-.41-1.26-.35-1.7.14-.45.49-.44,1.23.02,1.71.21.21,20.94,21.92,21.15,37.7.21,15.4-21.65,24.34-21.87,24.43-.59.24-.91.89-.74,1.5s.77,1.01,1.41.88c.14-.02,13.89-2.28,27.91,7.34,14.21,9.76,27.38,36.06,27.5,36.33h-.04l.05.02h-.01Z"/>
      <path d="M722.32,173.65c.21.44.66.7,1.12.7.19,0,.37-.04.55-.12.61-.3.87-1.05.57-1.67-7.64-15.59-26.75-58.02-23.45-66.97.3-.82.71-1,.85-1.05,1.21-.52,2.4-.49,3.61.11,5.65,2.8,10.14,16.75,11.39,21.9.12.52.57.9,1.11.95.51.03,1.04-.25,1.25-.75.09-.21,9.27-20.74,25.41-20.74,3.62,0,6.09,1.04,7.36,3.08,3.44,5.52-2.02,16.73-2.07,16.83-.26.54-.11,1.18.36,1.54.47.36,1.14.34,1.59-.05,8.98-7.89,28.7-13.71,38.92-9.25,3.68,1.61,5.59,4.41,5.69,8.35.42,16.4-17.83,22.68-18.13,22.78-.65.21-1.01.92-.79,1.57.23.65.92,1.01,1.57.8.25-.07,24.64-8.1,44.3-5.43,21.39,2.9,52.22,24.7,52.53,24.93.56.4,1.34.27,1.73-.29.4-.56.27-1.33-.27-1.73-.19-.14-18.6-13.7-25.26-26.98-6.35-12.68,1.56-20.53,1.9-20.85.41-.39.5-1,.24-1.5s-.82-.75-1.37-.62c-.2.05-19.69,4.44-30.42,4.44s-19.65-4.74-23.28-12.69c-1.67-3.67-1.65-7.17.09-9.86,1.96-3.04,7.08-6.67,20.35-6.67,21.31,0,44.22,15.88,44.46,16.03.52.36,1.24.29,1.66-.2.42-.47.41-1.2-.01-1.66-.12-.14-12.54-13.83-6.14-20.23,5.6-5.6,28.67-1.66,37.09.34.62.15,1.25-.2,1.46-.8.21-.6-.06-1.27-.65-1.55-.09-.04-8.7-4.1-17.18-9.35-14.52-8.96-16.68-13.83-16.68-15.95,0-9.37,18.77-21.6,18.97-21.71.47-.31.69-.9.51-1.45-.17-.55-.72-.88-1.27-.85-.27.02-27.45,2.03-47.52,2.03-3.54,0-6.66-1.32-9.25-3.94-9.57-9.66-9.45-33.59-9.45-33.83,0-.61-.42-1.13-1.04-1.23-.6-.11-1.2.24-1.4.81-.1.26-9.82,26.81-36.26,26.81s-28.77-21.94-28.87-22.86c-.07-.67-.66-1.18-1.35-1.11-.67.06-1.19.66-1.14,1.33.04.42.65,10.32-9.54,17.74-6.18,4.49-22.19,5.9-36.24,6.33-8.3-.17-15.15.11-16.92.2-.67.04-1.2.6-1.19,1.27s.57,1.22,1.25,1.22c4.29,0,9.93,0,16.02-.17,14.65.3,32.27,1.93,35.71,7.22,5.75,8.82-11.49,24.38-11.67,24.53-.49.44-.56,1.18-.15,1.7.4.51,1.14.64,1.68.26.2-.14,20.4-13.71,30.93-18.41,6.89-3.08,27.85-12.43,34.93-4,1,1.2,1.34,2.44,1.04,3.8-1.17,5.2-11.23,10.83-15.01,12.55-.61.27-.89,1-.64,1.61.26.62.96.92,1.59.69.28-.1,27.46-10.24,40.88-11.58,9.26-.93,21-.25,26.18,4.42,1.63,1.48,2.43,3.22,2.43,5.31,0,1.05-.42,1.93-1.29,2.73-4.79,4.39-20.86,4.06-26.64,3.56-.67-.06-1.25.41-1.35,1.06-.1.65.34,1.27.99,1.4.15.04,15.3,3.18,20.03,7.27,2.71,2.34,5.09,6.17,4.15,8.67-.85,2.28-4.55,3.54-10.43,3.54-16.48,0-38.53-19.82-38.76-20.02-.45-.41-1.14-.44-1.61-.05-.47.37-.61,1.05-.31,1.58.05.1,5.17,9.5,1.82,15.16-1.76,2.98-5.68,4.49-11.63,4.49-19.89,0-36.87-15.43-40.07-18.52-.31-.32-.52-.52-.57-.57-.49-.47-1.27-.45-1.75.03-.48.49-.49,1.26-.01,1.74.09.09.36.37.84.84,2.95,3.04,8.15,9.62,6.51,13.73-1.2,2.99-6.11,4.57-14.22,4.57-29.41,0-63.62-27.03-63.98-27.31-.51-.41-1.26-.35-1.7.14-.45.49-.44,1.23.02,1.71.21.21,20.94,21.92,21.15,37.7.21,15.41-21.65,24.34-21.87,24.43-.59.24-.91.88-.74,1.49s.77,1.01,1.41.89c.14-.03,13.89-2.28,27.91,7.34,14.21,9.76,27.38,36.06,27.5,36.33h-.09.02Z"/>
      <path d="M445.16,53.13c-13.66-2.28-35.35-8.97-35.35-17.22,0-9.07,10.92-18.87,11.03-18.97.7-.62.84-1.67.33-2.46-.52-.79-1.54-1.07-2.38-.67-.34.16-34.44,16.02-45.24,16.33-1.17.04-2.22-.41-3.23-1.36-5.22-4.96-6.69-21.08-6.81-26.87-.02-.98-.8-1.78-1.78-1.84-1-.07-1.85.65-1.98,1.62-.04.26-3.87,25.97-16.41,29.18-12.43,3.17-23.4-14.2-23.51-14.37-.48-.76-1.41-1.08-2.25-.79s-1.36,1.15-1.24,2.03c1.83,14.02-.34,19.41-12.2,30.3-11.57,10.61-31.79,12.21-42.87,12.21h-.06c-1.05,0-1.9.85-1.9,1.89s.85,1.89,1.9,1.89c.35,0,23.83.11,32.31,10.16,2.57,3.05,3.46,6.67,2.7,11.02-.82,4.74-3.17,8.43-6.95,10.97-10.96,7.35-30.53,3.22-30.73,3.17-.9-.2-1.8.27-2.15,1.12-.35.83-.06,1.82.71,2.32.6.4,14.57,9.76,7.66,20.51-7.31,11.39-29.01,9.97-29.22,9.95-.86-.06-1.65.46-1.93,1.27-.27.81.03,1.71.74,2.19,17.13,11.49,13.8,28.76,11.57,35.64-.31.96.19,2.01,1.15,2.36.21.07.44.11.66.11.74,0,1.44-.44,1.75-1.16,9.21-21.79,30.13-21.2,31.03-21.18.76,0,1.48-.4,1.81-1.1s.19-1.52-.34-2.08c-3.31-3.55-11.42-13.98-9.17-19.64,1.08-2.75,10.97-5.42,29.51-2.74,1,.15,1.92-.51,2.12-1.48.2-.99-.39-1.94-1.36-2.21-5.44-1.48-8.73-7.43-7.84-14.15.99-7.32,7.25-15.14,21.9-15.14,3.77,0,8.51.59,9.78,3.38,1.96,4.34-4.22,12.84-6.54,15.48-.61.7-.64,1.73-.04,2.46.59.71,1.61.9,2.41.44.3-.17,30.41-17.35,38.68-3.64,1.85,3.07,2.26,5.96,1.26,8.84-2.86,8.21-16.1,13.31-16.36,13.4-.97.37-1.47,1.46-1.11,2.44.37.97,1.46,1.47,2.43,1.11,2.79-1.03,10.61-2.7,14.85-.29,2.69,1.53,4.7,5.75,4.62,8.96-.34,14.32-25.17,23.53-25.41,23.61-.85.27-1.39,1.11-1.29,1.99.09.89.79,1.58,1.67,1.68,3.18.36,6.3.54,9.35.54,44.13,0,72.77-35.87,73.07-36.26.62-.8.51-1.96-.27-2.62-.79-.66-1.95-.57-2.63.19-.06.06-6.04,6.71-14.4,11.35-6.13,3.41-13.6,4.55-18.19,2.77-2.2-.85-5.42-2.01-5.89-6.08s4.85-12.08,13.9-18.33c.82-.57,1.06-1.68.54-2.54s-1.62-1.16-2.51-.69c-1.21.65-5.45,2.78-9.06,3.05-6.99.54-10.56-4.47-12.34-8.77-2.28-5.51-2.57-10.31-.85-14.28,2.16-4.97,6.9-7.24,7.89-7.67.14-.05.22-.09.26-.11.95-.4,1.41-1.48,1.02-2.44s-1.46-1.43-2.42-1.08c-.02,0-.12.05-.29.11-1.72.67-13.66,5.09-21.35.84-2.88-1.6-4.2-4.42-3.44-7.38.89-3.43,4.8-7.44,12.94-7.44,14.4,0,29.8,11.48,29.96,11.59.69.51,1.63.51,2.31-.03.67-.54.91-1.46.56-2.24-.27-.65-6.68-15.84,7.35-22.7,8.95-4.37,37.11-6.67,37.38-6.69.95-.07,1.7-.85,1.75-1.81.04-.96-.64-1.79-1.58-1.94h.05-.04,0ZM314.14,66.24c-1.25-1.47-1.67-3.23-1.31-5.37,1.4-8.18,18.49-18.72,39.29-20.6,3.64-.32,7.06-.5,10.26-.5,11.34,0,19.73,2.06,24.06,6.01,2.17,1.98,3.28,4.41,3.28,7.23,0,7.8-20.14,19.39-47.96,19.39-18.52,0-25.23-3.35-27.6-6.16h-.02Z"/>
      <path d="M448.84,298.05c9.8-5.38,37.22-18.11,46.43-12.36,2.28,1.43,3.31,3.95,3.12,7.7-1.24,24.75-50.47,55.3-50.97,55.61-.49.3-.74.85-.66,1.41.09.56.49,1.01,1.04,1.16,23.22,6.18,47.89,7.91,48.95,7.64.55-.14.92-.61,1.01-1.16.09-.55-.19-1.12-.66-1.43-.04-.02-2.82-10.46-4.69-22.62-2.02-13.09,11.38-30.84,26.05-34.52,6.97-1.76,14.34-.45,19.22,3.39,4.62,3.64,7.01,9.48,6.91,16.88-.25,18.76-19.24,36.72-19.43,36.9-.42.4-.56,1-.35,1.54s.72.9,1.3.91c.51,0,1.01.01,1.52.01,70.1,0,136.86-87.64,137.52-88.53.45-.59.36-1.42-.2-1.91s-1.4-.46-1.92.05c-.35.34-34.88,33.39-73.63,33.39-21.56,0-36.12-10.49-47.83-18.93-4.07-2.93-7.69-5.53-11.11-7.38,5.89-.35,14.44-1.36,25.41-3.91,27.21-6.33,59.18-25.64,63.4-45.78.42-2.02,2.18-12.56-4.73-21.32-5.68-7.2-15.45-11.07-29.05-11.5-21.36-.66-40.35,6.93-54.23,12.48-8.12,3.25-15.15,6.06-19.8,6.06-1.96,0-3.52-.7-4.75-2.16-5.33-6.22-2.77-23.04-2.74-23.22.1-.65-.25-1.27-.85-1.52s-1.3-.06-1.68.46c-30.6,41.1-36.88,79.44-36.93,79.83-.1.6.21,1.2.75,1.47s1.2.19,1.64-.24c.35-.34,35.59-34.19,68.24-44.88,16.88-5.52,39.7-8.77,49.9-2.87,2.83,1.64,4.49,3.84,5.08,6.71.61,2.99-.08,5.91-2.06,8.67-6.56,9.21-26.5,16.44-56.14,20.37-52.79,6.99-84.46,41.08-84.79,41.43-.46.51-.5,1.28-.06,1.83.42.55,1.19.7,1.8.36h0l-.03-.02h0Z"/>
      <path d="M271.31,358.41c.21.44.66.7,1.12.7.19,0,.37-.04.55-.12.61-.3.87-1.05.57-1.67-7.64-15.59-26.75-58.02-23.45-66.97.3-.82.71-1,.85-1.05,1.21-.52,2.4-.49,3.61.11,5.65,2.8,10.15,16.75,11.39,21.9.12.52.57.9,1.11.95.51.03,1.04-.25,1.25-.75.09-.21,9.27-20.74,25.4-20.74,3.62,0,6.09,1.04,7.36,3.08,3.44,5.52-2.02,16.73-2.07,16.83-.26.54-.11,1.18.36,1.55.47.36,1.14.34,1.58-.05,8.98-7.89,28.7-13.71,38.92-9.25,3.68,1.61,5.59,4.41,5.69,8.35.42,16.4-17.83,22.68-18.13,22.78-.65.21-1.01.92-.79,1.57.23.65.92,1.01,1.57.8.25-.08,24.64-8.1,44.3-5.43,21.39,2.9,52.22,24.7,52.53,24.93.56.4,1.33.27,1.73-.29.4-.56.27-1.33-.27-1.73-.19-.14-18.6-13.7-25.26-26.98-6.35-12.67,1.56-20.53,1.9-20.85.41-.39.5-1,.24-1.5s-.82-.75-1.37-.62c-.2.05-19.69,4.44-30.42,4.44s-19.65-4.74-23.28-12.69c-1.67-3.66-1.65-7.17.09-9.86,1.96-3.04,7.08-6.67,20.35-6.67,21.31,0,44.22,15.88,44.46,16.03.52.36,1.24.29,1.66-.2.43-.47.41-1.2-.01-1.66-.12-.14-12.54-13.83-6.14-20.23,5.6-5.6,28.67-1.66,37.08.34.62.15,1.25-.2,1.46-.8.21-.6-.06-1.27-.65-1.55-.09-.04-8.7-4.1-17.18-9.35-14.52-8.96-16.68-13.84-16.68-15.95,0-9.37,18.77-21.6,18.97-21.71.48-.31.69-.9.51-1.45-.17-.55-.72-.88-1.27-.85-.27.02-27.45,2.03-47.52,2.03-3.54,0-6.66-1.32-9.25-3.94-9.57-9.66-9.45-33.59-9.45-33.83,0-.61-.42-1.13-1.04-1.23-.6-.11-1.2.24-1.4.81-.1.26-9.82,26.81-36.26,26.81s-28.77-21.93-28.87-22.86c-.07-.67-.66-1.18-1.35-1.11-.67.06-1.18.66-1.14,1.33.04.42.65,10.32-9.55,17.74-6.18,4.49-22.19,5.9-36.24,6.33-8.3-.18-15.15.11-16.92.2-.67.04-1.2.6-1.19,1.27s.57,1.22,1.25,1.22c4.29,0,9.93,0,16.02-.18,14.65.3,32.27,1.93,35.71,7.22,5.75,8.82-11.49,24.38-11.67,24.53-.49.44-.56,1.18-.15,1.7.4.51,1.14.63,1.68.26.2-.14,20.4-13.71,30.93-18.41,6.89-3.08,27.85-12.43,34.93-4,1,1.2,1.34,2.44,1.04,3.8-1.17,5.2-11.23,10.83-15.01,12.55-.61.27-.89,1-.64,1.61.26.62.96.92,1.59.68.27-.1,27.46-10.24,40.88-11.58,9.26-.94,21-.25,26.18,4.42,1.63,1.48,2.43,3.22,2.43,5.31,0,1.05-.43,1.93-1.29,2.73-4.79,4.39-20.86,4.06-26.64,3.57-.67-.06-1.25.41-1.35,1.06s.34,1.27.99,1.4c.15.04,15.3,3.18,20.03,7.27,2.71,2.34,5.09,6.17,4.15,8.67-.85,2.28-4.55,3.54-10.43,3.54-16.48,0-38.53-19.82-38.76-20.02-.45-.41-1.14-.44-1.61-.05-.47.37-.61,1.05-.31,1.58.05.1,5.17,9.5,1.82,15.16-1.76,2.98-5.68,4.49-11.63,4.49-19.89,0-36.87-15.43-40.07-18.52-.31-.32-.52-.52-.57-.57-.49-.47-1.27-.45-1.75.02-.47.49-.49,1.26-.01,1.75.09.09.36.37.84.83,2.95,3.04,8.15,9.62,6.51,13.73-1.2,2.99-6.11,4.57-14.23,4.57-29.41,0-63.62-27.03-63.97-27.31-.51-.41-1.26-.35-1.7.14-.45.49-.44,1.23.03,1.71.21.21,20.94,21.92,21.15,37.7.21,15.4-21.65,24.34-21.87,24.43-.59.24-.91.88-.74,1.49s.77,1.01,1.41.89c.14-.02,13.89-2.28,27.91,7.34,14.21,9.76,27.38,36.06,27.5,36.33h-.09.05Z"/>
      <path d="M722.32,358.41c.21.44.66.7,1.12.7.19,0,.37-.04.55-.12.61-.3.87-1.05.57-1.67-7.64-15.59-26.75-58.02-23.45-66.97.3-.82.71-1,.85-1.05,1.21-.52,2.4-.49,3.61.11,5.65,2.8,10.14,16.75,11.39,21.9.12.52.57.9,1.11.95.51.03,1.04-.25,1.25-.75.09-.21,9.27-20.74,25.41-20.74,3.62,0,6.09,1.04,7.36,3.08,3.44,5.52-2.02,16.73-2.07,16.83-.26.54-.11,1.18.36,1.55.47.36,1.14.34,1.59-.05,8.98-7.89,28.7-13.71,38.92-9.25,3.68,1.61,5.59,4.41,5.69,8.35.42,16.4-17.83,22.68-18.13,22.78-.65.21-1.01.92-.79,1.57.23.65.92,1.01,1.57.8.25-.08,24.64-8.1,44.3-5.43,21.39,2.9,52.22,24.7,52.53,24.93.56.4,1.34.27,1.73-.29.4-.56.27-1.33-.27-1.73-.19-.14-18.6-13.7-25.26-26.98-6.35-12.67,1.56-20.53,1.9-20.85.41-.39.5-1,.24-1.5s-.82-.75-1.37-.62c-.2.05-19.69,4.44-30.42,4.44s-19.65-4.74-23.28-12.69c-1.67-3.66-1.65-7.17.09-9.86,1.96-3.04,7.08-6.67,20.35-6.67,21.31,0,44.22,15.88,44.46,16.03.52.36,1.24.29,1.66-.2.42-.47.41-1.2-.01-1.66-.12-.14-12.54-13.83-6.14-20.23,5.6-5.6,28.67-1.66,37.09.34.62.15,1.25-.2,1.46-.8.21-.6-.06-1.27-.65-1.55-.09-.04-8.7-4.1-17.18-9.35-14.52-8.96-16.68-13.84-16.68-15.95,0-9.37,18.77-21.6,18.97-21.71.47-.31.69-.9.51-1.45-.17-.55-.72-.88-1.27-.85-.27.02-27.45,2.03-47.52,2.03-3.54,0-6.66-1.32-9.25-3.94-9.57-9.66-9.45-33.59-9.45-33.83,0-.61-.42-1.13-1.04-1.23-.6-.11-1.2.24-1.4.81-.1.26-9.82,26.81-36.26,26.81s-28.77-21.93-28.87-22.86c-.07-.67-.66-1.18-1.35-1.11-.67.06-1.19.66-1.14,1.33.04.42.65,10.32-9.54,17.74-6.18,4.49-22.19,5.9-36.24,6.33-8.3-.18-15.15.11-16.92.2-.67.04-1.2.6-1.19,1.27s.57,1.22,1.25,1.22c4.29,0,9.93,0,16.02-.18,14.65.3,32.27,1.93,35.71,7.22,5.75,8.82-11.49,24.38-11.67,24.53-.49.44-.56,1.18-.15,1.7.4.51,1.14.63,1.68.26.2-.14,20.4-13.71,30.93-18.41,6.89-3.08,27.85-12.43,34.93-4,1,1.2,1.34,2.44,1.04,3.8-1.17,5.2-11.23,10.83-15.01,12.55-.61.27-.89,1-.64,1.61.26.62.96.92,1.59.68.28-.1,27.46-10.24,40.88-11.58,9.26-.94,21-.25,26.18,4.42,1.63,1.48,2.43,3.22,2.43,5.31,0,1.05-.42,1.93-1.29,2.73-4.79,4.39-20.86,4.06-26.64,3.57-.67-.06-1.25.41-1.35,1.06s.34,1.27.99,1.4c.15.04,15.3,3.18,20.03,7.27,2.71,2.34,5.09,6.17,4.15,8.67-.85,2.28-4.55,3.54-10.43,3.54-16.48,0-38.53-19.82-38.76-20.02-.45-.41-1.14-.44-1.61-.05-.47.37-.61,1.05-.31,1.58.05.1,5.17,9.5,1.82,15.16-1.76,2.98-5.68,4.49-11.63,4.49-19.89,0-36.87-15.43-40.07-18.52-.31-.32-.52-.52-.57-.57-.49-.47-1.27-.45-1.75.02-.48.49-.49,1.26-.01,1.75.09.09.36.37.84.83,2.95,3.04,8.15,9.62,6.51,13.73-1.2,2.99-6.11,4.57-14.22,4.57-29.41,0-63.62-27.03-63.98-27.31-.51-.41-1.26-.35-1.7.14-.45.49-.44,1.23.02,1.71.21.21,20.94,21.92,21.15,37.7.21,15.4-21.65,24.34-21.87,24.43-.59.24-.91.88-.74,1.49s.77,1.01,1.41.89c.14-.02,13.89-2.28,27.91,7.34,14.21,9.76,27.38,36.06,27.5,36.33h-.09.02Z"/>
      <path d="M212.83,237.89c-13.66-2.28-35.35-8.97-35.35-17.22,0-9.07,10.92-18.87,11.03-18.97.7-.62.84-1.67.32-2.46-.52-.78-1.54-1.07-2.38-.67-.34.16-34.44,16.02-45.25,16.33-1.17.04-2.22-.41-3.23-1.36-5.22-4.96-6.69-21.08-6.81-26.87-.02-.99-.8-1.78-1.78-1.85-1-.07-1.85.65-1.98,1.62-.04.26-3.87,25.97-16.41,29.18-12.43,3.17-23.4-14.2-23.51-14.37-.47-.76-1.41-1.08-2.25-.79-.84.3-1.36,1.15-1.24,2.03,1.83,14.02-.34,19.41-12.2,30.3-11.57,10.61-31.79,12.21-42.87,12.21h-.06c-1.05,0-1.9.85-1.9,1.89s.85,1.9,1.9,1.9c.35,0,23.83.11,32.31,10.16,2.57,3.05,3.46,6.67,2.7,11.02-.82,4.74-3.17,8.43-6.95,10.97-10.96,7.35-30.53,3.21-30.73,3.16-.9-.2-1.8.28-2.15,1.12-.35.83-.06,1.82.71,2.32.6.4,14.57,9.76,7.66,20.52-7.31,11.39-29.01,9.97-29.22,9.95-.86-.06-1.65.46-1.93,1.27-.27.81.02,1.71.74,2.19,17.13,11.49,13.8,28.76,11.57,35.64-.31.96.19,2.01,1.15,2.36.21.08.44.11.66.11.74,0,1.44-.44,1.75-1.16,9.21-21.79,30.13-21.2,31.03-21.18.76,0,1.48-.4,1.81-1.1.32-.7.19-1.52-.34-2.08-3.31-3.55-11.42-13.98-9.17-19.64,1.09-2.75,10.97-5.42,29.51-2.74,1,.15,1.92-.51,2.12-1.48.2-.98-.39-1.94-1.36-2.21-5.44-1.48-8.73-7.43-7.84-14.15.99-7.32,7.25-15.14,21.9-15.14,3.77,0,8.51.59,9.78,3.38,1.96,4.34-4.22,12.84-6.54,15.48-.61.7-.64,1.73-.04,2.45.59.71,1.61.9,2.41.44.3-.17,30.41-17.35,38.68-3.64,1.85,3.07,2.26,5.96,1.26,8.84-2.86,8.21-16.1,13.31-16.36,13.4-.97.37-1.47,1.46-1.11,2.44.37.97,1.46,1.47,2.43,1.11,2.79-1.03,10.61-2.7,14.85-.29,2.69,1.53,4.7,5.75,4.62,8.96-.34,14.32-25.17,23.53-25.41,23.61-.85.27-1.39,1.11-1.29,1.99.09.89.79,1.58,1.67,1.68,3.18.36,6.3.54,9.35.54,44.13,0,72.77-35.87,73.07-36.26.62-.8.51-1.96-.27-2.62-.79-.66-1.95-.57-2.63.19-.06.06-6.04,6.71-14.4,11.36-6.13,3.42-13.6,4.55-18.19,2.77-2.2-.85-5.42-2.01-5.89-6.08-.47-4.07,4.85-12.08,13.9-18.33.82-.57,1.06-1.68.54-2.54-.52-.86-1.62-1.16-2.51-.68-1.21.65-5.45,2.78-9.06,3.05-6.99.54-10.56-4.47-12.34-8.77-2.28-5.51-2.57-10.31-.85-14.28,2.16-4.97,6.9-7.24,7.89-7.66.14-.05.22-.09.26-.11.95-.4,1.41-1.48,1.02-2.44s-1.46-1.43-2.42-1.08c-.02,0-.12.05-.29.11-1.72.67-13.66,5.08-21.35.83-2.88-1.6-4.21-4.42-3.44-7.38.89-3.43,4.8-7.44,12.94-7.44,14.4,0,29.8,11.48,29.96,11.59.69.51,1.63.51,2.31-.02.67-.54.91-1.46.56-2.24-.28-.65-6.68-15.84,7.35-22.7,8.95-4.37,37.11-6.67,37.38-6.69.95-.07,1.7-.85,1.75-1.81.04-.96-.64-1.79-1.59-1.94h.05v-.03h-.01ZM81.83,251.02c-1.25-1.47-1.67-3.23-1.31-5.37,1.4-8.18,18.49-18.72,39.29-20.6,3.64-.32,7.06-.5,10.26-.5,11.34,0,19.73,2.06,24.06,6.01,2.17,1.98,3.28,4.41,3.28,7.23,0,7.8-20.14,19.39-47.96,19.39-18.52,0-25.23-3.35-27.6-6.16h-.02Z"/>
      <path d="M956.07,173.65c.21.44.66.7,1.12.7.19,0,.37-.04.55-.12.61-.3.87-1.05.57-1.67-7.64-15.59-26.75-58.02-23.45-66.97.3-.82.71-1,.85-1.05,1.21-.52,2.4-.49,3.61.11,5.65,2.8,10.15,16.75,11.39,21.9.12.52.57.9,1.11.95.51.03,1.04-.25,1.25-.75.09-.21,9.27-20.74,25.4-20.74,3.62,0,6.09,1.04,7.36,3.08,3.44,5.52-2.02,16.73-2.07,16.83-.26.54-.11,1.18.36,1.54.47.36,1.14.34,1.58-.05,8.99-7.89,28.7-13.71,38.91-9.25,3.69,1.61,5.59,4.41,5.69,8.35.43,16.4-17.83,22.68-18.13,22.78-.65.21-1.01.92-.78,1.57.22.65.92,1.01,1.57.8.25-.07,24.64-8.1,44.3-5.43,21.38,2.9,52.22,24.7,52.53,24.93.56.4,1.33.27,1.73-.29s.28-1.33-.27-1.73c-.19-.14-18.61-13.7-25.26-26.98-6.35-12.68,1.56-20.53,1.9-20.85.41-.39.5-1,.24-1.5-.27-.5-.83-.75-1.38-.62-.2.05-19.69,4.44-30.42,4.44s-19.65-4.74-23.28-12.69c-1.67-3.67-1.65-7.17.09-9.86,1.96-3.04,7.07-6.67,20.35-6.67,21.31,0,44.22,15.88,44.46,16.03.52.36,1.23.29,1.66-.2.42-.47.41-1.2-.02-1.66-.12-.14-12.54-13.83-6.14-20.23,5.61-5.6,28.68-1.66,37.09.34.62.15,1.25-.2,1.46-.8.21-.6-.06-1.27-.65-1.55-.09-.04-8.7-4.1-17.18-9.35-14.53-8.96-16.68-13.83-16.68-15.95,0-9.37,18.76-21.6,18.96-21.71.48-.31.69-.9.51-1.45-.17-.55-.72-.88-1.27-.85-.27.02-27.45,2.03-47.52,2.03-3.54,0-6.66-1.32-9.24-3.94-9.57-9.66-9.45-33.59-9.45-33.83,0-.61-.42-1.13-1.03-1.23-.6-.11-1.2.24-1.4.81-.1.26-9.82,26.81-36.26,26.81s-28.83-21.95-28.92-22.88c-.08-.67-.66-1.18-1.35-1.11-.67.06-1.18.66-1.14,1.33.04.42.65,10.32-9.55,17.74-6.18,4.49-22.19,5.9-36.24,6.33-8.3-.17-15.15.11-16.92.2-.67.04-1.2.6-1.18,1.27.01.67.57,1.22,1.25,1.22,4.29,0,9.93,0,16.02-.17,14.65.3,32.27,1.93,35.71,7.22,5.75,8.82-11.49,24.38-11.67,24.53-.49.44-.56,1.18-.15,1.69.4.51,1.14.64,1.68.26.2-.14,20.4-13.71,30.93-18.41,6.89-3.08,27.85-12.43,34.92-4,1,1.2,1.34,2.44,1.04,3.8-1.17,5.2-11.23,10.83-15.01,12.55-.61.27-.89,1-.64,1.61.26.62.96.92,1.59.69.27-.1,27.46-10.24,40.87-11.58,9.26-.93,21-.25,26.18,4.42,1.64,1.48,2.43,3.22,2.43,5.31,0,1.05-.42,1.93-1.28,2.73-4.79,4.39-20.86,4.06-26.64,3.56-.67-.06-1.25.41-1.35,1.06s.34,1.27.99,1.4c.15.04,15.3,3.18,20.02,7.27,2.71,2.34,5.1,6.17,4.16,8.67-.85,2.28-4.55,3.54-10.43,3.54-16.49,0-38.53-19.82-38.76-20.02-.45-.41-1.13-.44-1.61-.05-.47.37-.61,1.05-.31,1.58.05.1,5.17,9.5,1.82,15.16-1.76,2.98-5.68,4.49-11.63,4.49-19.89,0-36.87-15.43-40.06-18.52-.31-.32-.52-.52-.57-.57-.49-.47-1.27-.45-1.75.02-.47.49-.49,1.26-.01,1.74.09.09.36.37.84.84,2.95,3.04,8.15,9.62,6.51,13.73-1.2,2.99-6.11,4.57-14.23,4.57-29.41,0-63.62-27.03-63.97-27.31-.51-.41-1.26-.35-1.7.14-.45.49-.44,1.23.02,1.71.21.21,20.94,21.92,21.15,37.7.21,15.4-21.65,24.34-21.87,24.43-.59.24-.91.89-.74,1.5s.77,1.01,1.41.88c.14-.02,13.89-2.28,27.91,7.34,14.21,9.76,27.38,36.06,27.5,36.33h-.04l.05.03h0Z"/>
      <path d="M1343.84,53.13c-13.66-2.28-35.35-8.97-35.35-17.22,0-9.07,10.92-18.87,11.03-18.97.7-.62.84-1.67.33-2.46-.52-.79-1.54-1.07-2.38-.67-.34.16-34.44,16.02-45.25,16.33-1.17.04-2.22-.41-3.23-1.36-5.22-4.96-6.69-21.08-6.81-26.87-.03-.98-.8-1.78-1.79-1.84-1-.07-1.84.65-1.98,1.62-.04.26-3.87,25.97-16.41,29.18-12.43,3.17-23.4-14.2-23.51-14.37-.47-.76-1.41-1.08-2.25-.79-.83.3-1.36,1.15-1.23,2.03,1.83,14.02-.34,19.41-12.2,30.3-11.57,10.61-31.8,12.21-42.88,12.21h-.06c-1.05,0-1.9.85-1.9,1.89s.85,1.89,1.9,1.89c.35,0,23.83.11,32.31,10.16,2.57,3.05,3.45,6.67,2.69,11.02-.82,4.74-3.17,8.43-6.95,10.97-10.96,7.35-30.53,3.22-30.73,3.17-.9-.2-1.8.27-2.15,1.12-.35.83-.06,1.82.71,2.32.6.4,14.58,9.76,7.66,20.51-7.31,11.39-29.01,9.97-29.22,9.95-.86-.06-1.65.46-1.93,1.27s.02,1.71.73,2.19c17.13,11.49,13.8,28.76,11.57,35.64-.31.96.19,2.01,1.15,2.36.21.07.43.11.66.11.73,0,1.43-.44,1.75-1.16,9.2-21.79,30.13-21.2,31.03-21.18.76,0,1.48-.4,1.81-1.1.32-.7.18-1.52-.34-2.08-3.31-3.55-11.42-13.98-9.17-19.64,1.08-2.75,10.97-5.42,29.51-2.74,1,.15,1.92-.51,2.12-1.48.2-.99-.39-1.94-1.36-2.21-5.44-1.48-8.73-7.43-7.84-14.15.99-7.32,7.25-15.14,21.9-15.14,3.77,0,8.51.59,9.79,3.38,1.96,4.34-4.22,12.84-6.54,15.48-.61.7-.64,1.73-.04,2.46.59.71,1.61.9,2.41.44.3-.17,30.41-17.35,38.68-3.64,1.85,3.07,2.26,5.96,1.26,8.84-2.86,8.21-16.1,13.31-16.36,13.4-.97.37-1.47,1.46-1.11,2.44.38.97,1.46,1.47,2.43,1.11,2.8-1.03,10.61-2.7,14.85-.29,2.7,1.53,4.71,5.75,4.62,8.96-.34,14.32-25.17,23.53-25.41,23.61-.84.27-1.38,1.11-1.28,1.99.09.89.79,1.58,1.67,1.68,3.18.36,6.3.54,9.35.54,44.13,0,72.77-35.87,73.07-36.26.62-.8.51-1.96-.28-2.62-.78-.66-1.94-.57-2.63.19-.06.06-6.04,6.71-14.4,11.35-6.13,3.41-13.6,4.55-18.19,2.77-2.2-.85-5.42-2.01-5.89-6.08-.48-4.07,4.85-12.08,13.9-18.33.82-.57,1.06-1.68.54-2.54-.53-.86-1.63-1.16-2.51-.69-1.21.65-5.45,2.78-9.06,3.05-6.99.54-10.56-4.47-12.34-8.77-2.29-5.51-2.57-10.31-.85-14.28,2.16-4.97,6.9-7.24,7.89-7.67.13-.05.22-.09.26-.11.95-.4,1.41-1.48,1.02-2.44s-1.46-1.43-2.42-1.08c-.02,0-.12.05-.29.11-1.72.67-13.66,5.09-21.35.84-2.88-1.6-4.2-4.42-3.44-7.38.89-3.43,4.8-7.44,12.94-7.44,14.4,0,29.8,11.48,29.96,11.59.69.51,1.63.51,2.31-.03.67-.54.91-1.46.56-2.24-.28-.65-6.68-15.84,7.35-22.7,8.94-4.37,37.11-6.67,37.38-6.69.95-.07,1.7-.85,1.75-1.81.04-.96-.64-1.79-1.59-1.94h.05,0ZM1212.83,66.24c-1.25-1.47-1.68-3.23-1.31-5.37,1.39-8.18,18.49-18.72,39.29-20.6,3.64-.32,7.06-.5,10.26-.5,11.34,0,19.72,2.06,24.05,6.01,2.17,1.98,3.28,4.41,3.28,7.23,0,7.8-20.13,19.39-47.96,19.39-18.52,0-25.23-3.35-27.6-6.16h-.01Z"/>
      <path d="M1169.99,358.41c.21.44.66.7,1.12.7.19,0,.38-.04.55-.12.61-.3.87-1.05.58-1.67-7.64-15.59-26.76-58.02-23.45-66.97.3-.82.71-1,.85-1.05,1.21-.52,2.39-.49,3.6.11,5.66,2.8,10.15,16.75,11.4,21.9.12.52.57.9,1.11.95.51.03,1.03-.25,1.24-.75.09-.21,9.28-20.74,25.41-20.74,3.62,0,6.09,1.04,7.36,3.08,3.45,5.52-2.02,16.73-2.07,16.83-.26.54-.11,1.18.36,1.55.48.36,1.14.34,1.59-.05,8.98-7.89,28.7-13.71,38.92-9.25,3.68,1.61,5.59,4.41,5.69,8.35.42,16.4-17.84,22.68-18.14,22.78-.64.21-1.01.92-.78,1.57.22.65.92,1.01,1.57.8.25-.08,24.64-8.1,44.3-5.43,21.38,2.9,52.22,24.7,52.53,24.93.56.4,1.33.27,1.73-.29s.28-1.33-.27-1.73c-.19-.14-18.61-13.7-25.26-26.98-6.35-12.67,1.56-20.53,1.9-20.85.41-.39.5-1,.24-1.5s-.83-.75-1.37-.62c-.2.05-19.69,4.44-30.43,4.44s-19.65-4.74-23.28-12.69c-1.67-3.66-1.65-7.17.09-9.86,1.96-3.04,7.07-6.67,20.35-6.67,21.31,0,44.22,15.88,44.46,16.03.52.36,1.23.29,1.66-.2.42-.47.41-1.2-.01-1.66-.13-.14-12.55-13.83-6.14-20.23,5.6-5.6,28.67-1.66,37.08.34.62.15,1.25-.2,1.46-.8.21-.6-.06-1.27-.65-1.55-.09-.04-8.7-4.1-17.18-9.35-14.52-8.96-16.68-13.84-16.68-15.95,0-9.37,18.76-21.6,18.96-21.71.48-.31.69-.9.51-1.45-.17-.55-.72-.88-1.27-.85-.27.02-27.45,2.03-47.51,2.03-3.55,0-6.67-1.32-9.25-3.94-9.57-9.66-9.45-33.59-9.45-33.83,0-.61-.42-1.13-1.03-1.23-.6-.11-1.2.24-1.4.81-.1.26-9.82,26.81-36.26,26.81s-28.77-21.93-28.87-22.86c-.08-.67-.67-1.18-1.35-1.11-.68.06-1.19.66-1.14,1.33.04.42.65,10.32-9.54,17.74-6.18,4.49-22.19,5.9-36.24,6.33-8.3-.18-15.15.11-16.92.2-.67.04-1.2.6-1.18,1.27.01.67.57,1.22,1.24,1.22,4.3,0,9.94,0,16.03-.18,14.64.3,32.26,1.93,35.71,7.22,5.75,8.82-11.5,24.38-11.67,24.53-.49.44-.56,1.18-.15,1.7.4.51,1.14.63,1.69.26.19-.14,20.4-13.71,30.93-18.41,6.89-3.08,27.85-12.43,34.92-4,1,1.2,1.34,2.44,1.04,3.8-1.17,5.2-11.23,10.83-15.01,12.55-.61.27-.89,1-.64,1.61.26.62.96.92,1.59.68.27-.1,27.46-10.24,40.87-11.58,9.26-.94,21-.25,26.18,4.42,1.64,1.48,2.44,3.22,2.44,5.31,0,1.05-.43,1.93-1.29,2.73-4.79,4.39-20.86,4.06-26.64,3.57-.67-.06-1.25.41-1.35,1.06s.34,1.27.99,1.4c.15.04,15.3,3.18,20.03,7.27,2.7,2.34,5.09,6.17,4.15,8.67-.85,2.28-4.55,3.54-10.43,3.54-16.48,0-38.53-19.82-38.76-20.02-.45-.41-1.13-.44-1.61-.05-.47.37-.61,1.05-.31,1.58.05.1,5.17,9.5,1.82,15.16-1.76,2.98-5.67,4.49-11.63,4.49-19.89,0-36.87-15.43-40.06-18.52-.31-.32-.53-.52-.58-.57-.48-.47-1.27-.45-1.74.02-.48.49-.49,1.26-.02,1.75.09.09.37.37.84.83,2.94,3.04,8.15,9.62,6.51,13.73-1.19,2.99-6.11,4.57-14.22,4.57-29.41,0-63.63-27.03-63.98-27.31-.51-.41-1.26-.35-1.69.14-.45.49-.44,1.23.02,1.71.21.21,20.94,21.92,21.15,37.7.21,15.4-21.65,24.34-21.87,24.43-.59.24-.91.88-.74,1.49.18.61.78,1.01,1.41.89.14-.02,13.89-2.28,27.92,7.34,14.21,9.76,27.37,36.06,27.5,36.33h-.09,0Z"/>
      <path d="M1111.52,237.89c-13.67-2.28-35.35-8.97-35.35-17.22,0-9.07,10.92-18.87,11.03-18.97.7-.62.83-1.67.32-2.46-.52-.78-1.53-1.07-2.38-.67-.34.16-34.44,16.02-45.25,16.33-1.17.04-2.22-.41-3.23-1.36-5.21-4.96-6.69-21.08-6.81-26.87-.03-.99-.8-1.78-1.78-1.85-1-.07-1.85.65-1.99,1.62-.04.26-3.87,25.97-16.41,29.18-12.42,3.17-23.39-14.2-23.51-14.37-.47-.76-1.41-1.08-2.25-.79-.84.3-1.36,1.15-1.23,2.03,1.83,14.02-.34,19.41-12.2,30.3-11.57,10.61-31.79,12.21-42.87,12.21h-.06c-1.05,0-1.9.85-1.9,1.89s.85,1.9,1.9,1.9c.35,0,23.83.11,32.31,10.16,2.57,3.05,3.46,6.67,2.7,11.02-.82,4.74-3.17,8.43-6.95,10.97-10.96,7.35-30.53,3.21-30.73,3.16-.9-.2-1.8.28-2.15,1.12-.35.83-.06,1.82.71,2.32.6.4,14.58,9.76,7.66,20.52-7.31,11.39-29.01,9.97-29.22,9.95-.86-.06-1.65.46-1.93,1.27-.28.81.02,1.71.74,2.19,17.13,11.49,13.8,28.76,11.57,35.64-.31.96.19,2.01,1.15,2.36.21.08.44.11.66.11.74,0,1.43-.44,1.75-1.16,9.21-21.79,30.13-21.2,31.03-21.18.76,0,1.48-.4,1.81-1.1.32-.7.19-1.52-.34-2.08-3.31-3.55-11.42-13.98-9.17-19.64,1.09-2.75,10.97-5.42,29.51-2.74,1,.15,1.92-.51,2.12-1.48.2-.98-.39-1.94-1.36-2.21-5.44-1.48-8.73-7.43-7.84-14.15.99-7.32,7.25-15.14,21.9-15.14,3.77,0,8.51.59,9.78,3.38,1.96,4.34-4.22,12.84-6.54,15.48-.61.7-.64,1.73-.04,2.45.59.71,1.61.9,2.41.44.3-.17,30.41-17.35,38.68-3.64,1.85,3.07,2.26,5.96,1.26,8.84-2.85,8.21-16.09,13.31-16.35,13.4-.98.37-1.48,1.46-1.12,2.44.38.97,1.46,1.47,2.44,1.11,2.79-1.03,10.6-2.7,14.85-.29,2.69,1.53,4.7,5.75,4.61,8.96-.33,14.32-25.16,23.53-25.4,23.61-.85.27-1.39,1.11-1.29,1.99.09.89.79,1.58,1.68,1.68,3.18.36,6.3.54,9.34.54,44.14,0,72.77-35.87,73.07-36.26.63-.8.51-1.96-.27-2.62-.79-.66-1.95-.57-2.64.19-.06.06-6.03,6.71-14.4,11.36-6.12,3.42-13.6,4.55-18.19,2.77-2.19-.85-5.41-2.01-5.89-6.08-.47-4.07,4.86-12.08,13.9-18.33.83-.57,1.06-1.68.54-2.54-.52-.86-1.62-1.16-2.51-.68-1.21.65-5.45,2.78-9.06,3.05-6.99.54-10.55-4.47-12.34-8.77-2.28-5.51-2.57-10.31-.85-14.28,2.16-4.97,6.9-7.24,7.89-7.66.14-.05.22-.09.26-.11.95-.4,1.41-1.48,1.02-2.44-.38-.96-1.46-1.43-2.42-1.08-.02,0-.12.05-.28.11-1.73.67-13.67,5.08-21.35.83-2.89-1.6-4.21-4.42-3.45-7.38.89-3.43,4.81-7.44,12.94-7.44,14.4,0,29.8,11.48,29.96,11.59.69.51,1.64.51,2.31-.02.67-.54.91-1.46.56-2.24-.27-.65-6.67-15.84,7.35-22.7,8.95-4.37,37.11-6.67,37.39-6.69.94-.07,1.69-.85,1.74-1.81.04-.96-.63-1.79-1.58-1.94h.05l-.02-.03h0ZM980.51,251.02c-1.25-1.47-1.67-3.23-1.31-5.37,1.4-8.18,18.49-18.72,39.29-20.6,3.65-.32,7.07-.5,10.26-.5,11.34,0,19.73,2.06,24.06,6.01,2.17,1.98,3.28,4.41,3.28,7.23,0,7.8-20.14,19.39-47.96,19.39-18.52,0-25.24-3.35-27.61-6.16h-.01Z"/>
    </g>
  </g>
  <rect class="st1" x="0" y="27.3" width="202.01" height="170.03"/>
  <rect class="st1" x="403.46" y="27.3" width="228.36" height="170.03"/>
  <rect class="st9" x="202.01" y="27.3" width="202.01" height="170.03"/>
  <rect class="st9" x="631.83" y="27.3" width="204.68" height="170.03"/>
  <path class="st2" d="M167.81,157.89c0-4.95,2.79-15.65,6.03-28.05,5.94-22.77,12.69-48.59,6.91-56.06-1.14-1.48-2.71-2.23-4.65-2.23-8.72,0-29.16,17.54-57.09,42.32-20.07,17.81-40.83,36.23-47.19,36.23-.24,0-.53-.04-.64-.18-.67-.94.72-4.98,1.94-8.55,1.79-5.24,4.02-11.75,4.02-18.02,0-7.86-2.01-10.76-3.62-13.09-.98-1.41-1.69-2.44-1.69-4.36,0-1.25.27-2.1.82-2.58,1.36-1.19,4.73-.75,8.99-.2,3.13.41,6.67.87,10.59.87,25.59,0,61.62-13.79,61.62-44.45,0-7.81-2.37-14.06-7.06-18.56-10.8-10.38-31.14-9.57-45.99-8.97-2.86.12-5.57.23-7.82.23-56.99,0-80.05-4.58-80.28-4.62l-1.48-.3,7.93,64.31,2.16-.09c0-.14.61-13.69,9.64-27.05,11.93-17.64,33.19-26.97,61.47-26.97,25.94,0,38.55,9.09,38.55,27.78,0,16.96-21.02,31.5-38.22,31.5-3.24,0-8.27-.24-14.1-.53-12.73-.63-28.57-1.41-38.73-.33-14.97,1.59-17.71,4.95-17.71,10.97,0,5.67,3.43,24.38,6.76,42.46,2.66,14.47,5.17,28.14,5.17,31.35C34.15,194.99.34,195.16,0,195.16v2.17h82.55l.1-2.17c-.14,0-13.99-1.47-30.13-17.61-12.88-12.88-23.6-45.06-23.6-53.16,0-12.76,11.07-23.14,24.68-23.14s15.03,8.1,15.03,11.59c0,4.49-3.69,13.74-7.26,22.68-5.51,13.79-10.71,26.82-7.4,31.7.88,1.3,2.26,1.96,4.11,1.96,3.68,0,11.94-7.25,27.45-21.13,22.39-20.05,53.05-47.49,70.48-47.49,4.79,0,7.95,1.98,9.63,6.04,6.6,15.93-12.83,60.76-27.16,75.08-12.49,12.49-37.23,13.48-37.47,13.49l.04,2.17h100.8l.17-2.16c-.08-.02-8.72-1.46-17.22-6.79-11.27-7.09-16.99-17.34-16.99-30.48v-.03Z"/>
  <path class="st3" d="M651.31,112.29c2.76-4.44,5.62-8.51,9.73-12.09,6.47-5.93,14.68-10.07,24.07-11.44,6.7-.98,15.07.5,16.23,6.01,1.22,5.82-2.65,10.58-7.44,14.7-5.44,4.68-11.22,8.66-17.33,12.7-6.22,4.11-12.21,8.12-17.62,12.99-4.47,4.02-8.16,8.17-11.64,12.86-11.06,14.74-15.93,31.84-15.47,49.32h63.15c-10.35-12.67-14.29-28.75-13.52-43.7.78-10.97,5.08-21.07,13-29.66,4.17-4.52,9.06-8.22,13.76-12.29l3.1-2.68c4.28-3.7,8.24-7.31,11.94-11.51,5.33-6.03,9.52-12.7,12.2-19.91l3.53-9.52c3.52-8.16,9.9-15.06,18.96-19.19,3.51-1.6,7.39-2.37,11.35-1.71,7.64,1.28,12.35,7.59,10.92,14.1-1.55,7.03-6.43,12.78-12.65,17.47-5.57,4.21-11.62,7.49-18.24,10.36l-14.84,6.42c-7.61,3.29-14.06,8.13-19.62,13.6-5.17,5.08-8.92,10.66-11.51,16.96-3.49,8.47-3.77,17.25,1.57,25.13,5.98,8.82,18.17,13.1,29.3,8.56,5.59-2.28,9.79-6.07,12.4-10.87,2.85-5.26,4.27-10.7,4.8-16.63.67-7.32,3.38-14.45,10.43-18.45,6.55-3.71,15.11-2.56,20.01,2.71,3.24,3.47,4.52,7.69,4.69,12.21.39,10.68-4.52,22.11-10.79,31.35-5.79,8.53-11.88,16.69-19.15,24.32l-9.04,9.5-3.43,3.43h82.31l6.31-19.86c1.87-6.82,3.04-13.47,3.58-20.45.64-11.04-.78-22.77-6.16-32.8-2.51-4.68-5.82-8.65-10.32-12.16-8.41-6.54-19.15-10.78-30.58-11.67-9.71-.75-19.17.28-27.9,3.78-6.97,2.79-12.4,7.34-16.62,12.78-2.86,3.69-4.76,7.62-6.76,11.69-1.58,3.19-3.47,6.18-6.46,8.45-3.65,2.77-8.66,3.04-12.43.45-9.5-6.51-3.58-19.15,4.88-25.58,3.44-2.63,6.9-4.77,11.04-6.49,6.05-2.51,12.13-4.62,18.7-5.96l11.55-2.35c4.98-1.01,9.73-1.98,14.56-3.42,8.58-2.56,16-6.62,22.32-12.19,9.54-8.41,14.22-20.06,11.66-31.66-1.3-5.88-4.69-11.17-10.11-14.88-14.03-9.6-34.62-7.93-49.76-.62-7.9,3.82-14.4,9.1-19.74,15.38-3.94,4.64-7.09,9.44-10.42,14.37-3.96,5.85-8.07,11.16-15.95,13.06-3.44.82-6.74.48-9.84-.99-7.34-3.5-8.99-10.25-7.81-17.19.85-4.74,2.54-9.13,5.07-13.41,3.63-6.78,8.45-12.6,14.47-18.28-23.01,9.5-41.17,25.73-53.84,44.21-14.11,20.52-19.01,42.8-15.21,66.27,2.52-9.03,5.6-17.49,10.58-25.51h.05Z"/>
  <path class="st3" d="M372.11,74.28c-35.44-46.52-92.17-50.69-122.7-42.94-32.55,8.26-38.14,31.73-31.96,48.1,6.55,17.35,40.73,22.37,51.99,31.18,11.53,9.02,14.27,25.85-1.41,42.59-15.68,16.74-65.75,44.12-65.75,44.12h86.1s13.18-17.21,15.27-45.83c1.38-18.81-7.7-30.26-10.34-37.58-2.25-6.25-1.83-8.82-.17-9.66,1.54-.78,4.03,1.76,6.14,6.85,2.11,5.09,5.99,20.59,9.64,26.52,4.5,7.32,12.11,10.7,19.31,10.7s21.07-4.85,23.03-20.36c2.07-16.43-7.04-23.73-15.3-30.23-8.26-6.5-14.59-8.32-20.87-12.81-7.05-5.03-9.42-10.28-7.2-13.7,3.04-4.7,17.21,1.93,27.23,8.61,10.01,6.67,27.3,21.87,30.52,42.99,7.03,46.17-39.41,74.5-39.41,74.5h74.76s15.92-64.25-28.89-123.06ZM325.13,105.73c7.23,6.28,10.89,16.26,6.14,20.06-4.78,3.82-9.83-1.5-14.06-7.51-4.23-6-12.28-23.33-26.2-28.52-13.92-5.19-33.41-1.01-46.67-5.32-11.96-3.89-21.7-16.24-16.38-28.52,5.32-12.28,25.24-14.06,36.3-8.19s14.04,15.08,16.84,20.11c4.85,8.72,12.8,14.93,23.28,21.75,9.15,5.95,13.51,9.85,20.74,16.13Z"/>
  <rect class="st1" x="836.51" y="27.3" width="289.98" height="170.03"/>
  <rect class="st9" x="0" y="197.32" width="216.76" height="170.03"/>
  <rect class="st9" x="390.78" y="197.32" width="282.39" height="170.03"/>
  <rect class="st9" x="910.45" y="197.32" width="224.96" height="170.03"/>
  <rect class="st1" x="215.25" y="197.32" width="175.53" height="170.03"/>
  <rect class="st1" x="673.17" y="197.32" width="237.28" height="170.03"/>
  <rect class="st1" x="1135.41" y="197.32" width="237.14" height="170.03"/>
  <path class="st2" d="M696.42,299.72c.22,15.27-22.2,24.12-22.43,24.21-.61.24-.93.88-.75,1.49s.8,1,1.45.88c.14-.03,14.25-2.27,28.63,7.28,14.57,9.67,27.13,32.99,27.27,33.26.23.43.68.69,1.15.69.19,0,.38-.05.56-.13.63-.3.9-1.04.58-1.65-7.84-15.46-26.49-54.76-23.1-63.63.31-.82.73-.99.87-1.04,1.24-.52,2.46-.48,3.7.12,5.79,2.78,10.4,16.61,11.69,21.7.13.52.59.89,1.13.93.53.03,1.06-.25,1.28-.73.09-.21,9.51-20.55,26.05-20.55,3.71,0,6.24,1.02,7.55,3.05,3.53,5.48-2.08,16.57-2.13,16.68-.27.53-.12,1.17.37,1.53.48.36,1.17.34,1.62-.05,9.21-7.82,29.43-13.58,39.91-9.17,3.77,1.59,5.74,4.38,5.85,8.27.43,16.25-18.3,22.48-18.6,22.58h0c-.67.22-1.03.92-.81,1.56s.94,1,1.61.79h0c.25-.08,25.27-8.04,45.43-5.38,21.93,2.88,53.57,24.49,53.88,24.7.57.39,1.37.27,1.78-.28.42-.55.29-1.32-.28-1.72-.19-.14-19.08-13.58-25.9-26.74-6.51-12.57,1.6-20.34,1.95-20.67.42-.38.52-.99.24-1.48-.27-.49-.84-.74-1.41-.63-.2.05-20.2,4.4-31.19,4.4s-20.15-4.7-23.88-12.57c-1.72-3.63-1.69-7.1.09-9.77,2.01-3.02,7.26-6.62,20.87-6.62,21.87,0,45.36,15.73,45.59,15.89.53.36,1.27.28,1.69-.2.43-.47.43-1.19-.02-1.65-.13-.14-12.86-13.72-6.3-20.05,5.75-5.55,29.41-1.64,38.03.33.63.14,1.29-.2,1.5-.8.22-.6-.07-1.26-.66-1.52-.09-.04-8.93-4.07-17.63-9.26-14.89-8.88-17.12-13.72-17.12-15.81,0-9.29,19.26-21.4,19.45-21.52.49-.31.71-.9.52-1.43s-.74-.88-1.3-.84c-.28.02-28.16,2.01-48.74,2.01-3.64,0-6.83-1.31-9.49-3.91-9.81-9.57-9.69-33.29-9.69-33.53,0-.61-.44-1.12-1.06-1.23s-1.22.24-1.43.81c-.1.26-10.08,26.57-37.19,26.57s-29.51-21.74-29.61-22.66c-.07-.67-.68-1.17-1.39-1.11-.7.06-1.21.65-1.16,1.32.04.42.67,10.23-9.8,17.58-6.33,4.45-22.75,5.85-37.16,6.28-8.51-.17-15.54.12-17.35.2-.7.04-1.23.6-1.21,1.27s.59,1.21,1.28,1.21c4.4,0,10.19,0,16.43-.17,15.02.29,33.09,1.91,36.62,7.15,5.9,8.74-11.79,24.16-11.97,24.31-.5.43-.57,1.17-.15,1.68s1.17.63,1.72.26c.21-.14,20.92-13.59,31.73-18.25,7.06-3.04,28.56-12.32,35.81-3.96,1.03,1.19,1.38,2.42,1.06,3.76-1.21,5.16-11.53,10.73-15.4,12.44-.63.28-.92.99-.65,1.59.26.62.99.92,1.63.68.28-.1,28.17-10.16,41.92-11.48,9.5-.92,21.54-.24,26.84,4.39,1.68,1.47,2.49,3.19,2.49,5.27,0,1.03-.43,1.92-1.32,2.71-4.91,4.35-21.4,4.02-27.33,3.53-.69-.06-1.28.41-1.38,1.05-.1.64.34,1.26,1.01,1.39.15.03,15.7,3.15,20.54,7.2,2.78,2.32,5.22,6.12,4.26,8.59-.87,2.27-4.68,3.51-10.7,3.51-16.9,0-39.52-19.65-39.75-19.85-.46-.41-1.16-.43-1.65-.05-.49.37-.63,1.03-.33,1.57.05.09,5.29,9.41,1.87,15.02-1.8,2.95-5.82,4.45-11.93,4.45-20.41,0-37.82-15.3-41.1-18.35-.33-.32-.53-.52-.59-.56-.51-.46-1.3-.45-1.79.03-.49.48-.5,1.24-.02,1.73.08.08.38.37.86.82,3.02,3.02,8.36,9.54,6.68,13.61-1.23,2.97-6.27,4.54-14.59,4.54-30.17,0-66.46-27.9-66.81-28.17-.53-.41-1.29-.34-1.74.14s-.44,1.22.02,1.69c.22.22,22.66,22.85,22.89,38.48h0Z"/>
  <rect class="st9" x="1125.84" y="27.3" width="246.71" height="170.03"/>
  <path class="st3" d="M216.73,274.97c-.25-.18-.26-.25-.28-.17l-.14.42-4.57,6.27c-4.74,5.8-10.42,10.7-16.84,15.12-5.09,3.5-10.21,6.63-16.02,9.22-4.38,1.95-12.02,4.45-16.6,3.34-3.27-.79-3.69-3.86-2.7-6.74,1.17-3.35,2.64-6.45,4.78-9.39l6.62-9.12c2.52-3.47,4.16-7.14,4.76-11.3.57-3.98.14-7.88-4.48-9.32-9.72-3.02-22.09,4.3-28.95,9.83l-9.67,7.78c-4.3,3.75-8.41,7.45-13.15,10.8-6.02,4.26-12.1,8.15-18.61,11.83-5.13,2.9-10.89,4.59-17.15,5.1-3.64.29-7.88-.26-8.81-3.27-1.21-3.93,1-8.7,3.75-11.88s5.77-5.98,9.15-8.64l8.58-6.75c10.21-7.56,21.23-14.11,33.13-19.68l13.32-5.9c6.5-2.88,12.61-5.93,18.32-9.82,7.98-5.41,15.3-12.69,18.01-21.37,1.81-5.82.61-13.87-5.33-17.66-4.58-2.93-9.83-4.67-15.39-5.47-6.31-.9-12.42-.99-18.71-.49-8.93.72-17.45,2.24-25.91,4.46-13.92,3.65-25.09,9.16-37.23,15.53-4.58,2.41-8.95,4.65-13.73,6.76-7.34,3.25-16.21,6.33-24.8,5.22-7.66-.98-14.31-5.2-18.19-11.07-2.83-4.27-4.24-6.49-5.14-11.08-.81-4.1-.59-6.27.46-10.22C1.93,212.26-2.43,231.27,1.26,250.56c1.39,7.31,4.38,14.13,9.3,20.37,1.54,1.96,3.24,3.64,5.07,5.32,8.05,7.42,20.01,9.56,29.87,5.17,4.76-2.12,8.76-5.12,12.45-8.48,1.74-1.58,3.14-3.19,4.6-4.98l9.42-11.54c5.03-6.16,10.21-12,15.71-17.84,9.42-10.03,17.89-17.54,30.61-24.59,7.68-4.27,19.63-8.65,28.78-5.4,3.48,1.24,6.38,3.66,7.4,6.78,1.62,4.95-2.11,12.29-5.52,16.28-2.65,3.1-6.03,5.4-9.74,7.49-2.94,1.66-5.74,3.14-8.88,4.55l-17.65,7.94c-9.66,4.64-19.1,9.32-28.21,14.63l-8.22,4.79c-9.75,6.05-18.95,12.59-27.61,19.76-4.34,3.6-8.21,7.32-11.89,11.39-5.19,5.74-10.19,11.94-13.85,18.56-2.87,5.19-5.28,10.42-6.69,16.22,2.51-2.81,4.96-5.43,7.93-7.8l6.45-5.14c4.58-3.66,12.82-8.61,19.16-8.97,3.57-.2,6.54,1.84,7.41,4.89,2.91,10.24-9.19,22.75-17.61,29.04l-9.26,6.92c-3.7,2.76-7.75,4.95-12.09,6.99-1.08.5-2.16.97-3.26,1.4-1.62.64-.96,3.08.77,2.84,10.03-1.36,19.93-3.78,29-6.7,13.51-4.35,28.82-11.37,37.14-17.07l11.93-8.19,5.44-4.18,5.96-4.73,9.01-7.67c6.15-5.23,11.46-10.74,16.9-16.42,3.37-3.52,6.64-6.84,10.36-10.07l6.8-5.2c1.86-1.42,5.93-3.41,6.89-2.32,3.51,4-13.36,25.2-21.17,33.73-7.81,8.53-25.39,26.88-43.57,37.61-4.89,2.89-12.74,6.08-19.18,8.5-1.62.61-1.07,3.03.66,2.86,12.62-1.22,32.6-3.73,47.67-8.37,20.93-6.44,39.69-16.6,55.96-29.31l7.47-6.11c4.69-3.84,8.81-7.95,12.82-12.37,4.35-4.79,7.82-9.84,11.07-15.26,4.32-6.58,7.51-13.56,9.89-20.96h-.03Z"/>
  <path class="st2" d="M1098.5,158.36v-8.39c0-5.41-4.39-9.8-9.8-9.8h-8.39c-5.41,0-9.8-4.39-9.8-9.8v-7.19c0-5.41,4.39-9.8,9.8-9.8h8.39c5.41,0,9.8-4.39,9.8-9.8v-9.59c0-5.41-4.39-9.8-9.8-9.8h-8.39c-5.41,0-9.8-4.39-9.8-9.8v-7.19c0-5.41,4.39-9.8,9.8-9.8h8.39c5.41,0,9.8-4.39,9.8-9.8v-9.59c0-5.41-4.39-9.8-9.8-9.8h-214.42c-5.41,0-9.8,4.39-9.8,9.8v9.59c0,5.41,4.39,9.8,9.8,9.8h8.39c5.41,0,9.8,4.39,9.8,9.8v7.19c0,5.41-4.39,9.8-9.8,9.8h-8.39c-5.41,0-9.8,4.39-9.8,9.8v9.59c0,5.41,4.39,9.8,9.8,9.8h8.39c5.41,0,9.8,4.39,9.8,9.8v7.19c0,5.41-4.39,9.8-9.8,9.8h-8.39c-5.41,0-9.8,4.39-9.8,9.8v8.39c0,5.41-4.39,9.8-9.8,9.8h-8.39c-5.41,0-9.8,4.39-9.8,9.8v9.59c0,5.41,4.39,9.8,9.8,9.8h9.59c5.41,0,9.8-4.39,9.8-9.8v-8.39c0-5.41,4.39-9.8,9.8-9.8h8.39c5.41,0,9.8-4.39,9.8-9.8v-8.39c0-5.41,4.39-9.8,9.8-9.8h156.06c5.41,0,9.8,4.39,9.8,9.8v8.39c0,5.41,4.39,9.8,9.8,9.8h8.39c5.41,0,9.8,4.39,9.8,9.8v8.39c0,5.41,4.39,9.8,9.8,9.8h9.59c5.41,0,9.8-4.39,9.8-9.8v-9.59c0-5.41-4.39-9.8-9.8-9.8h-8.39c-5.41,0-9.8-4.39-9.8-9.8ZM921.65,75.6v-8.39c0-5.41,4.39-9.8,9.8-9.8h100.09c5.41,0,9.8,4.39,9.8,9.8v8.39c0,5.41,4.39,9.8,9.8,9.8h8.39c5.41,0,9.8,4.39,9.8,9.8v7.19c0,5.41-4.39,9.8-9.8,9.8h-156.06c-5.41,0-9.8-4.39-9.8-9.8v-7.19c0-5.41,4.39-9.8,9.8-9.8h8.39c5.41,0,9.8-4.39,9.8-9.8Z"/>
  <path class="st2" d="M389.82,352.27l-59.57-127.66c-6.7-15.96-22.43-27.18-40.8-27.28h0s-63.56,0-63.56,0c-5.87,0-10.63,4.76-10.63,10.63v147.76c0,5.87,4.76,10.63,10.63,10.63h27.05c5.87,0,10.63-4.76,10.63-10.63v-58.97c0-7.88,7.4-13.58,15.05-11.71,3.39.83,6.93,1.27,10.58,1.27,9.85,0,18.94-3.2,26.31-8.61,6.12-4.5,14.86-2.11,18.02,4.8l37.11,78.54c2.42,5.29,8.68,7.62,13.97,5.2,5.29-2.42,7.62-8.68,5.2-13.97ZM291.11,270.74c-17.47,1.12-31.94-13.34-30.83-30.81.92-14.44,12.58-26.11,27.03-27.04,17.47-1.12,31.94,13.34,30.83,30.82-.92,14.44-12.58,26.1-27.02,27.03Z"/>
  <path class="st3" d="M1125.84,191.79V56.53c0-2.71,1.96-5.02,4.63-5.47l139.83-23.44c3.38-.57,6.46,2.04,6.46,5.47h0c0,3.58,3.34,6.22,6.82,5.4l82.16-19.38c3.48-.82,6.82,1.82,6.82,5.4v167.29c0,3.06-2.48,5.54-5.54,5.54h-88.32c-3.06,0-5.54-2.48-5.54-5.54v-56.09c0-2.95,2.27-5.44,5.21-5.61,55.09-3.24,60.69-57.86,61.04-75.75.06-3.09-2.45-5.62-5.54-5.62h-1.51c-3.04,0-5.51,2.44-5.54,5.48-.16,16.19-5.37,62.89-59.67,65.69-2.86.15-5.2,2.68-5.2,5.55v66.36c0,3.06-2.48,5.54-5.54,5.54h-8.31c-3.06,0-5.54-2.48-5.54-5.54v-112.12c0-5.6-7.33-7.65-10.27-2.89-11.9,19.23-34.06,46.1-66.03,48.67-2.84.23-5,2.67-5,5.52v.92c0,3.16,2.64,5.73,5.8,5.54,26.24-1.55,43.07-13.42,52.48-22.91,3.5-3.53,9.5-1.09,9.5,3.88v73.39c0,3.06-2.48,5.54-5.54,5.54h-92.07c-3.06,0-5.54-2.48-5.54-5.54Z"/>
  <g>
    <path class="st3" d="M910.47,367.89v-.09s-.03.06,0,.09Z"/>
    <path class="st3" d="M958.93,202.16l-46.39,64.68c-1.34,1.87-2.06,4.12-2.06,6.42v82.99c0,6.1,4.95,11.04,11.06,11.02,8.78-.03,20.52.06,29.66.06,6.17,0,11.41-5.01,11.41-11.18v-52.05c0-2.92-1.16-5.72-3.23-7.79l-15.74-15.74c-6.94-6.94-2.03-18.81,7.79-18.81h82.15c6.09,0,11.02,4.93,11.02,11.02v40.4c0,2.92,1.16,5.72,3.23,7.79l42.56,43.22c2.07,2.07,4.87,3.23,7.79,3.23h26.22c6.09,0,11.02-4.93,11.02-11.02v-147.82c0-6.09-4.93-11.02-11.02-11.02h-156.51c-3.55,0-6.88,1.71-8.95,4.6ZM1107.14,243.76h-120.99c-6.09,0-11.02-4.93-11.02-11.02h0c0-6.09,4.93-11.02,11.02-11.02h120.99c6.09,0,11.02,4.93,11.02,11.02h0c0,6.09-4.93,11.02-11.02,11.02Z"/>
  </g>
  <path class="st3" d="M428.37,227.33h26.53c2.01-3.1-53.81,101.16-36.02,106.81,20.92,6.64,77.17-153.03,109.26-135.47,25.69,14.05-40.37,110.07-12.3,110.07,21.97,0,60.59-122.85,88-110.07,25.98,12.12-46.75,129.83-20.13,135.47,27.56,5.83,60.58-109.09,59.68-106.81h29.78s-49.43,140.03-96.43,140.03c-35.86,0-2.28-75.44-16.36-81.16-13.08-5.31-27.65,56.01-56.22,48.59-21.9-5.68-1.38-46.03-19.13-48.59-15.52-2.24-35.18,81.16-76.1,81.16-50.11,0,19.44-140.03,19.44-140.03Z"/>
  <path class="st2" d="M1158.14,308.61c3.69,5.43,11.89,4.52,14.5-1.51,4.36-10.09,13.41-22.26,31.71-22.26,31.27,0,38.38,20.96,38.38,47.26s-21.37,36.95-50.46,36.95-56.85-19.79-56.85-79.48,43.35-63.61,61.12-63.61c12.4,0,38.95,4.72,54.99,36.08,4.7,9.19,18.49,6.61,19.62-3.65l5.3-48.33c.54-4.96,4.52-8.84,9.49-9.25l75.3-6.31c9.01-.76,14.64,9.53,9.15,16.72l-68.84,90.11c-1.39,1.82-2.14,4.04-2.14,6.33h0c0,4.48,2.86,8.45,7.1,9.88l32.46,10.93c4.38,1.47,7.26,5.65,7.09,10.27l-.36,9.66c-.18,4.91-3.77,9.03-8.61,9.88l-46.22,8.14c-6.79,1.19-12.85-4.41-12.18-11.27l4.64-48.19c.18-1.85.85-3.63,1.95-5.13l61.32-84.33c5.21-7.16-.32-17.15-9.16-16.53l-47.28,3.32c-5.01.35-9.06,4.22-9.63,9.21-3.13,27.45-12.75,111.64-13.67,119.96-1.11,9.95-.28,26.13-9.68,23.5-8.96-2.5,1.94-57.51-15.21-91.52-9.64-19.13-28.15-34.16-45.77-34.16-13.65,0-26.48,6.22-33.85,14.81-14.08,16.38-18.37,41.67-4.2,62.51Z"/>
  <path class="st2" d="M631.83,197.33h-34.16v-125.97h-7.54c-8.72,0-15.8,7.07-15.8,15.8v64.73c0,25.09-20.34,45.44-45.44,45.44h-30.8v-125.97l-8.24.37c-8.44.38-15.09,7.33-15.09,15.78v64.38c0,25.09-20.34,45.44-45.44,45.44h-25.31v-44.07h28.68c4.37,0,7.91-3.54,7.91-7.91v-63.39c0-30.19,24.47-54.67,54.67-54.67h36.99v125.97h0c4.37,0,7.91-3.54,7.91-7.91v-63.39c0-30.19,24.47-54.67,54.67-54.67h36.99v170.03Z"/>
</svg>