<?xml version="1.0" encoding="UTF-8"?>
<svg id="Layer_1" xmlns="http://www.w3.org/2000/svg" version="1.1" viewBox="0 0 1345.51 359.54">
  <!-- Generator: Adobe Illustrator 30.5.1, SVG Export Plug-In . SVG Version: 2.1.4 Build 3)  -->
  <path d="M448.34,113.24c9.8-5.38,37.22-18.11,46.43-12.36,2.28,1.43,3.31,3.95,3.12,7.7-1.24,24.75-50.47,55.3-50.97,55.61-.49.3-.74.85-.66,1.41.09.56.49,1.01,1.04,1.16,23.22,6.18,47.89,7.91,48.95,7.64.55-.14.92-.61,1.01-1.16s-.19-1.12-.66-1.43c-.04-.02-2.82-10.46-4.69-22.62-2.02-13.09,11.38-30.83,26.05-34.52,6.97-1.76,14.34-.45,19.22,3.39,4.62,3.64,7.01,9.48,6.91,16.87-.25,18.76-19.24,36.72-19.43,36.9-.42.4-.56,1-.35,1.55.21.54.72.9,1.3.91.51,0,1.01,0,1.52,0,70.1,0,136.86-87.64,137.52-88.53.45-.59.36-1.42-.2-1.91-.56-.49-1.4-.46-1.92.05-.35.34-34.88,33.39-73.63,33.39-21.56,0-36.12-10.49-47.83-18.93-4.07-2.93-7.69-5.53-11.11-7.38,5.89-.35,14.44-1.36,25.41-3.91,27.21-6.33,59.18-25.64,63.4-45.78.42-2.02,2.18-12.56-4.73-21.32-5.68-7.2-15.45-11.07-29.05-11.5-21.36-.66-40.35,6.93-54.23,12.48-8.12,3.25-15.15,6.06-19.8,6.06-1.96,0-3.52-.7-4.75-2.16-5.33-6.22-2.77-23.04-2.74-23.22.1-.65-.25-1.27-.85-1.52s-1.3-.06-1.68.46c-30.6,41.1-36.88,79.44-36.93,79.83-.1.6.21,1.2.75,1.47.54.27,1.2.19,1.64-.24.35-.34,35.59-34.19,68.24-44.88,16.88-5.52,39.7-8.77,49.9-2.87,2.83,1.65,4.49,3.84,5.08,6.71.61,2.99-.08,5.91-2.06,8.67-6.56,9.21-26.5,16.44-56.14,20.37-52.79,6.99-84.46,41.08-84.79,41.43-.46.51-.5,1.28-.06,1.83.42.55,1.19.7,1.8.36h0l-.03-.02Z"/>
  <path d="M56.88,173.61c.21.44.66.7,1.12.7.19,0,.37-.04.55-.12.61-.3.87-1.05.57-1.67-7.64-15.59-26.75-58.02-23.45-66.96.3-.82.71-1,.85-1.05,1.21-.52,2.4-.49,3.61.11,5.65,2.8,10.14,16.75,11.39,21.9.12.52.57.9,1.11.95.51.03,1.04-.25,1.25-.75.09-.21,9.27-20.74,25.41-20.74,3.62,0,6.09,1.04,7.36,3.08,3.44,5.52-2.02,16.73-2.07,16.82-.26.54-.11,1.18.36,1.55.47.36,1.14.34,1.58-.05,8.98-7.89,28.7-13.71,38.92-9.25,3.68,1.61,5.59,4.41,5.69,8.35.43,16.4-17.83,22.68-18.13,22.78-.65.21-1.01.92-.79,1.57.22.65.92,1.01,1.57.8.25-.07,24.64-8.1,44.3-5.43,21.39,2.9,52.22,24.7,52.53,24.93.56.4,1.34.27,1.73-.29.4-.56.27-1.33-.27-1.73-.19-.14-18.61-13.7-25.26-26.98-6.35-12.68,1.56-20.53,1.9-20.85.41-.39.5-1,.24-1.5s-.82-.75-1.37-.62c-.2.05-19.69,4.44-30.42,4.44s-19.65-4.74-23.28-12.69c-1.67-3.66-1.65-7.17.09-9.86,1.96-3.04,7.07-6.67,20.35-6.67,21.31,0,44.22,15.88,44.46,16.03.52.36,1.24.29,1.66-.2.42-.47.41-1.2,0-1.66-.12-.14-12.54-13.83-6.14-20.23,5.6-5.6,28.67-1.66,37.08.34.62.15,1.25-.2,1.46-.8.21-.6-.06-1.27-.65-1.55-.09-.04-8.7-4.1-17.18-9.35-14.52-8.96-16.68-13.83-16.68-15.95,0-9.37,18.77-21.6,18.97-21.71.47-.31.69-.9.51-1.45-.18-.55-.72-.88-1.27-.85-.28.02-27.45,2.03-47.52,2.03-3.54,0-6.66-1.32-9.25-3.94-9.57-9.66-9.45-33.59-9.45-33.83,0-.61-.42-1.13-1.04-1.23-.6-.11-1.2.24-1.4.81-.1.26-9.82,26.81-36.26,26.81s-28.82-21.95-28.92-22.88c-.07-.67-.66-1.18-1.35-1.11-.67.06-1.19.66-1.14,1.33.04.42.65,10.32-9.55,17.74-6.18,4.49-22.19,5.9-36.24,6.33-8.3-.17-15.15.11-16.92.2-.67.04-1.2.6-1.19,1.27s.57,1.22,1.25,1.22c4.29,0,9.93,0,16.02-.17,14.65.3,32.27,1.93,35.71,7.22,5.75,8.82-11.49,24.38-11.67,24.53-.49.44-.56,1.18-.15,1.69.4.51,1.14.64,1.68.26.2-.14,20.4-13.71,30.93-18.41,6.89-3.08,27.85-12.43,34.93-4,1,1.2,1.33,2.44,1.04,3.8-1.17,5.2-11.23,10.83-15.01,12.55-.61.27-.89,1-.64,1.61.26.62.96.92,1.58.69.27-.1,27.46-10.24,40.88-11.58,9.26-.93,21-.25,26.18,4.42,1.63,1.48,2.43,3.22,2.43,5.31,0,1.05-.42,1.93-1.29,2.73-4.79,4.39-20.86,4.06-26.64,3.56-.67-.06-1.25.41-1.35,1.06-.1.65.34,1.27.99,1.4.15.04,15.3,3.18,20.03,7.27,2.71,2.34,5.09,6.17,4.15,8.67-.85,2.28-4.55,3.54-10.43,3.54-16.48,0-38.53-19.82-38.76-20.02-.45-.41-1.14-.44-1.61-.05-.47.37-.61,1.05-.31,1.58.05.1,5.17,9.5,1.82,15.16-1.76,2.98-5.68,4.49-11.63,4.49-19.89,0-36.87-15.43-40.07-18.52-.31-.32-.52-.52-.57-.57-.49-.47-1.27-.45-1.75.02-.47.49-.49,1.26-.01,1.74.09.09.36.37.84.84,2.94,3.04,8.15,9.62,6.51,13.73-1.2,2.99-6.11,4.57-14.22,4.57-29.41,0-63.62-27.03-63.97-27.31-.51-.41-1.26-.35-1.7.14-.45.49-.44,1.23.02,1.71.21.21,20.94,21.92,21.15,37.7.21,15.4-21.65,24.34-21.87,24.43-.59.24-.91.89-.74,1.5s.77,1.01,1.41.88c.14-.02,13.89-2.28,27.91,7.34,14.21,9.76,27.38,36.06,27.5,36.33h-.04l.05.02Z"/>
  <path d="M721.82,173.61c.21.44.66.7,1.12.7.19,0,.37-.04.55-.12.61-.3.87-1.05.57-1.67-7.64-15.59-26.75-58.02-23.45-66.97.3-.82.71-1,.85-1.05,1.21-.52,2.4-.49,3.61.11,5.65,2.8,10.14,16.75,11.39,21.9.12.52.57.9,1.11.95.51.03,1.04-.25,1.25-.75.09-.21,9.27-20.74,25.41-20.74,3.62,0,6.09,1.04,7.36,3.08,3.44,5.52-2.02,16.73-2.07,16.83-.26.54-.11,1.18.36,1.54.47.36,1.14.34,1.59-.05,8.98-7.89,28.7-13.71,38.92-9.25,3.68,1.61,5.59,4.41,5.69,8.35.42,16.4-17.83,22.68-18.13,22.78-.65.21-1.01.92-.79,1.57.23.65.92,1.01,1.57.8.25-.07,24.64-8.1,44.3-5.43,21.39,2.9,52.22,24.7,52.53,24.93.56.4,1.34.27,1.73-.29.4-.56.27-1.33-.27-1.73-.19-.14-18.6-13.7-25.26-26.98-6.35-12.68,1.56-20.53,1.9-20.85.41-.39.5-1,.24-1.5s-.82-.75-1.37-.62c-.2.05-19.69,4.44-30.42,4.44s-19.65-4.74-23.28-12.69c-1.67-3.67-1.65-7.17.09-9.86,1.96-3.04,7.08-6.67,20.35-6.67,21.31,0,44.22,15.88,44.46,16.03.52.36,1.24.29,1.66-.2.42-.47.41-1.2-.01-1.66-.12-.14-12.54-13.83-6.14-20.23,5.6-5.6,28.67-1.66,37.09.34.62.15,1.25-.2,1.46-.8.21-.6-.06-1.27-.65-1.55-.09-.04-8.7-4.1-17.18-9.35-14.52-8.96-16.68-13.83-16.68-15.95,0-9.37,18.77-21.6,18.97-21.71.47-.31.69-.9.51-1.45-.17-.55-.72-.88-1.27-.85-.27.02-27.45,2.03-47.52,2.03-3.54,0-6.66-1.32-9.25-3.94-9.57-9.66-9.45-33.59-9.45-33.83,0-.61-.42-1.13-1.04-1.23-.6-.11-1.2.24-1.4.81-.1.26-9.82,26.81-36.26,26.81s-28.77-21.94-28.87-22.86c-.07-.67-.66-1.18-1.35-1.11-.67.06-1.19.66-1.14,1.33.04.42.65,10.32-9.54,17.74-6.18,4.49-22.19,5.9-36.24,6.33-8.3-.17-15.15.11-16.92.2-.67.04-1.2.6-1.19,1.27s.57,1.22,1.25,1.22c4.29,0,9.93,0,16.02-.17,14.65.3,32.27,1.93,35.71,7.22,5.75,8.82-11.49,24.38-11.67,24.53-.49.44-.56,1.18-.15,1.7.4.51,1.14.64,1.68.26.2-.14,20.4-13.71,30.93-18.41,6.89-3.08,27.85-12.43,34.93-4,1,1.2,1.34,2.44,1.04,3.8-1.17,5.2-11.23,10.83-15.01,12.55-.61.27-.89,1-.64,1.61.26.62.96.92,1.59.69.28-.1,27.46-10.24,40.88-11.58,9.26-.93,21-.25,26.18,4.42,1.63,1.48,2.43,3.22,2.43,5.31,0,1.05-.42,1.93-1.29,2.73-4.79,4.39-20.86,4.06-26.64,3.56-.67-.06-1.25.41-1.35,1.06-.1.65.34,1.27.99,1.4.15.04,15.3,3.18,20.03,7.27,2.71,2.34,5.09,6.17,4.15,8.67-.85,2.28-4.55,3.54-10.43,3.54-16.48,0-38.53-19.82-38.76-20.02-.45-.41-1.14-.44-1.61-.05-.47.37-.61,1.05-.31,1.58.05.1,5.17,9.5,1.82,15.16-1.76,2.98-5.68,4.49-11.63,4.49-19.89,0-36.87-15.43-40.07-18.52-.31-.32-.52-.52-.57-.57-.49-.47-1.27-.45-1.75.03-.48.49-.49,1.26-.01,1.74.09.09.36.37.84.84,2.95,3.04,8.15,9.62,6.51,13.73-1.2,2.99-6.11,4.57-14.22,4.57-29.41,0-63.62-27.03-63.98-27.31-.51-.41-1.26-.35-1.7.14-.45.49-.44,1.23.02,1.71.21.21,20.94,21.92,21.15,37.7.21,15.41-21.65,24.34-21.87,24.43-.59.24-.91.88-.74,1.49s.77,1.01,1.41.89c.14-.03,13.89-2.28,27.91,7.34,14.21,9.76,27.38,36.06,27.5,36.33h-.09.02Z"/>
  <path d="M444.66,53.09c-13.66-2.28-35.35-8.97-35.35-17.22,0-9.07,10.92-18.87,11.03-18.97.7-.62.84-1.67.33-2.46-.52-.79-1.54-1.07-2.38-.67-.34.16-34.44,16.02-45.24,16.33-1.17.04-2.22-.41-3.23-1.36-5.22-4.96-6.69-21.08-6.81-26.87-.02-.98-.8-1.78-1.78-1.84-1-.07-1.85.65-1.98,1.62-.04.26-3.87,25.97-16.41,29.18-12.43,3.17-23.4-14.2-23.51-14.37-.48-.76-1.41-1.08-2.25-.79s-1.36,1.15-1.24,2.03c1.83,14.02-.34,19.41-12.2,30.3-11.57,10.61-31.79,12.21-42.87,12.21h-.06c-1.05,0-1.9.85-1.9,1.89s.85,1.89,1.9,1.89c.35,0,23.83.11,32.31,10.16,2.57,3.05,3.46,6.67,2.7,11.02-.82,4.74-3.17,8.43-6.95,10.97-10.96,7.35-30.53,3.22-30.73,3.17-.9-.2-1.8.27-2.15,1.12-.35.83-.06,1.82.71,2.32.6.4,14.57,9.76,7.66,20.51-7.31,11.39-29.01,9.97-29.22,9.95-.86-.06-1.65.46-1.93,1.27-.27.81.03,1.71.74,2.19,17.13,11.49,13.8,28.76,11.57,35.64-.31.96.19,2.01,1.15,2.36.21.07.44.11.66.11.74,0,1.44-.44,1.75-1.16,9.21-21.79,30.13-21.2,31.03-21.18.76,0,1.48-.4,1.81-1.1s.19-1.52-.34-2.08c-3.31-3.55-11.42-13.98-9.17-19.64,1.08-2.75,10.97-5.42,29.51-2.74,1,.15,1.92-.51,2.12-1.48.2-.99-.39-1.94-1.36-2.21-5.44-1.48-8.73-7.43-7.84-14.15.99-7.32,7.25-15.14,21.9-15.14,3.77,0,8.51.59,9.78,3.38,1.96,4.34-4.22,12.84-6.54,15.48-.61.7-.64,1.73-.04,2.46.59.71,1.61.9,2.41.44.3-.17,30.41-17.35,38.68-3.64,1.85,3.07,2.26,5.96,1.26,8.84-2.86,8.21-16.1,13.31-16.36,13.4-.97.37-1.47,1.46-1.11,2.44.37.97,1.46,1.47,2.43,1.11,2.79-1.03,10.61-2.7,14.85-.29,2.69,1.53,4.7,5.75,4.62,8.96-.34,14.32-25.17,23.53-25.41,23.61-.85.27-1.39,1.11-1.29,1.99.09.89.79,1.58,1.67,1.68,3.18.36,6.3.54,9.35.54,44.13,0,72.77-35.87,73.07-36.26.62-.8.51-1.96-.27-2.62-.79-.66-1.95-.57-2.63.19-.06.06-6.04,6.71-14.4,11.35-6.13,3.41-13.6,4.55-18.19,2.77-2.2-.85-5.42-2.01-5.89-6.08s4.85-12.08,13.9-18.33c.82-.57,1.06-1.68.54-2.54s-1.62-1.16-2.51-.69c-1.21.65-5.45,2.78-9.06,3.05-6.99.54-10.56-4.47-12.34-8.77-2.28-5.51-2.57-10.31-.85-14.28,2.16-4.97,6.9-7.24,7.89-7.67.14-.05.22-.09.26-.11.95-.4,1.41-1.48,1.02-2.44s-1.46-1.43-2.42-1.08c-.02,0-.12.05-.29.11-1.72.67-13.66,5.09-21.35.84-2.88-1.6-4.2-4.42-3.44-7.38.89-3.43,4.8-7.44,12.94-7.44,14.4,0,29.8,11.48,29.96,11.59.69.51,1.63.51,2.31-.03.67-.54.91-1.46.56-2.24-.27-.65-6.68-15.84,7.35-22.7,8.95-4.37,37.11-6.67,37.38-6.69.95-.07,1.7-.85,1.75-1.81.04-.96-.64-1.79-1.58-1.94h.05-.04ZM313.64,66.2c-1.25-1.47-1.67-3.23-1.31-5.37,1.4-8.18,18.49-18.72,39.29-20.6,3.64-.32,7.06-.5,10.26-.5,11.34,0,19.73,2.06,24.06,6.01,2.17,1.98,3.28,4.41,3.28,7.23,0,7.8-20.14,19.39-47.96,19.39-18.52,0-25.23-3.35-27.6-6.16h-.02Z"/>
  <path d="M448.34,298.01c9.8-5.38,37.22-18.11,46.43-12.36,2.28,1.43,3.31,3.95,3.12,7.7-1.24,24.75-50.47,55.3-50.97,55.61-.49.3-.74.85-.66,1.41.09.56.49,1.01,1.04,1.16,23.22,6.18,47.89,7.91,48.95,7.64.55-.14.92-.61,1.01-1.16.09-.55-.19-1.12-.66-1.43-.04-.02-2.82-10.46-4.69-22.62-2.02-13.09,11.38-30.84,26.05-34.52,6.97-1.76,14.34-.45,19.22,3.39,4.62,3.64,7.01,9.48,6.91,16.88-.25,18.76-19.24,36.72-19.43,36.9-.42.4-.56,1-.35,1.54s.72.9,1.3.91c.51,0,1.01.01,1.52.01,70.1,0,136.86-87.64,137.52-88.53.45-.59.36-1.42-.2-1.91s-1.4-.46-1.92.05c-.35.34-34.88,33.39-73.63,33.39-21.56,0-36.12-10.49-47.83-18.93-4.07-2.93-7.69-5.53-11.11-7.38,5.89-.35,14.44-1.36,25.41-3.91,27.21-6.33,59.18-25.64,63.4-45.78.42-2.02,2.18-12.56-4.73-21.32-5.68-7.2-15.45-11.07-29.05-11.5-21.36-.66-40.35,6.93-54.23,12.48-8.12,3.25-15.15,6.06-19.8,6.06-1.96,0-3.52-.7-4.75-2.16-5.33-6.22-2.77-23.04-2.74-23.22.1-.65-.25-1.27-.85-1.52s-1.3-.06-1.68.46c-30.6,41.1-36.88,79.44-36.93,79.83-.1.6.21,1.2.75,1.47s1.2.19,1.64-.24c.35-.34,35.59-34.19,68.24-44.88,16.88-5.52,39.7-8.77,49.9-2.87,2.83,1.64,4.49,3.84,5.08,6.71.61,2.99-.08,5.91-2.06,8.67-6.56,9.21-26.5,16.44-56.14,20.37-52.79,6.99-84.46,41.08-84.79,41.43-.46.51-.5,1.28-.06,1.83.42.55,1.19.7,1.8.36h0l-.03-.02Z"/>
  <path d="M270.81,358.37c.21.44.66.7,1.12.7.19,0,.37-.04.55-.12.61-.3.87-1.05.57-1.67-7.64-15.59-26.75-58.02-23.45-66.97.3-.82.71-1,.85-1.05,1.21-.52,2.4-.49,3.61.11,5.65,2.8,10.15,16.75,11.39,21.9.12.52.57.9,1.11.95.51.03,1.04-.25,1.25-.75.09-.21,9.27-20.74,25.4-20.74,3.62,0,6.09,1.04,7.36,3.08,3.44,5.52-2.02,16.73-2.07,16.83-.26.54-.11,1.18.36,1.55.47.36,1.14.34,1.58-.05,8.98-7.89,28.7-13.71,38.92-9.25,3.68,1.61,5.59,4.41,5.69,8.35.42,16.4-17.83,22.68-18.13,22.78-.65.21-1.01.92-.79,1.57.23.65.92,1.01,1.57.8.25-.08,24.64-8.1,44.3-5.43,21.39,2.9,52.22,24.7,52.53,24.93.56.4,1.33.27,1.73-.29.4-.56.27-1.33-.27-1.73-.19-.14-18.6-13.7-25.26-26.98-6.35-12.67,1.56-20.53,1.9-20.85.41-.39.5-1,.24-1.5s-.82-.75-1.37-.62c-.2.05-19.69,4.44-30.42,4.44s-19.65-4.74-23.28-12.69c-1.67-3.66-1.65-7.17.09-9.86,1.96-3.04,7.08-6.67,20.35-6.67,21.31,0,44.22,15.88,44.46,16.03.52.36,1.24.29,1.66-.2.43-.47.41-1.2-.01-1.66-.12-.14-12.54-13.83-6.14-20.23,5.6-5.6,28.67-1.66,37.08.34.62.15,1.25-.2,1.46-.8.21-.6-.06-1.27-.65-1.55-.09-.04-8.7-4.1-17.18-9.35-14.52-8.96-16.68-13.84-16.68-15.95,0-9.37,18.77-21.6,18.97-21.71.48-.31.69-.9.51-1.45-.17-.55-.72-.88-1.27-.85-.27.02-27.45,2.03-47.52,2.03-3.54,0-6.66-1.32-9.25-3.94-9.57-9.66-9.45-33.59-9.45-33.83,0-.61-.42-1.13-1.04-1.23-.6-.11-1.2.24-1.4.81-.1.26-9.82,26.81-36.26,26.81s-28.77-21.93-28.87-22.86c-.07-.67-.66-1.18-1.35-1.11-.67.06-1.18.66-1.14,1.33.04.42.65,10.32-9.55,17.74-6.18,4.49-22.19,5.9-36.24,6.33-8.3-.18-15.15.11-16.92.2-.67.04-1.2.6-1.19,1.27s.57,1.22,1.25,1.22c4.29,0,9.93,0,16.02-.18,14.65.3,32.27,1.93,35.71,7.22,5.75,8.82-11.49,24.38-11.67,24.53-.49.44-.56,1.18-.15,1.7.4.51,1.14.63,1.68.26.2-.14,20.4-13.71,30.93-18.41,6.89-3.08,27.85-12.43,34.93-4,1,1.2,1.34,2.44,1.04,3.8-1.17,5.2-11.23,10.83-15.01,12.55-.61.27-.89,1-.64,1.61.26.62.96.92,1.59.68.27-.1,27.46-10.24,40.88-11.58,9.26-.94,21-.25,26.18,4.42,1.63,1.48,2.43,3.22,2.43,5.31,0,1.05-.43,1.93-1.29,2.73-4.79,4.39-20.86,4.06-26.64,3.57-.67-.06-1.25.41-1.35,1.06s.34,1.27.99,1.4c.15.04,15.3,3.18,20.03,7.27,2.71,2.34,5.09,6.17,4.15,8.67-.85,2.28-4.55,3.54-10.43,3.54-16.48,0-38.53-19.82-38.76-20.02-.45-.41-1.14-.44-1.61-.05-.47.37-.61,1.05-.31,1.58.05.1,5.17,9.5,1.82,15.16-1.76,2.98-5.68,4.49-11.63,4.49-19.89,0-36.87-15.43-40.07-18.52-.31-.32-.52-.52-.57-.57-.49-.47-1.27-.45-1.75.02-.47.49-.49,1.26-.01,1.75.09.09.36.37.84.83,2.95,3.04,8.15,9.62,6.51,13.73-1.2,2.99-6.11,4.57-14.23,4.57-29.41,0-63.62-27.03-63.97-27.31-.51-.41-1.26-.35-1.7.14-.45.49-.44,1.23.03,1.71.21.21,20.94,21.92,21.15,37.7.21,15.4-21.65,24.34-21.87,24.43-.59.24-.91.88-.74,1.49s.77,1.01,1.41.89c.14-.02,13.89-2.28,27.91,7.34,14.21,9.76,27.38,36.06,27.5,36.33h-.09.05Z"/>
  <path d="M721.82,358.37c.21.44.66.7,1.12.7.19,0,.37-.04.55-.12.61-.3.87-1.05.57-1.67-7.64-15.59-26.75-58.02-23.45-66.97.3-.82.71-1,.85-1.05,1.21-.52,2.4-.49,3.61.11,5.65,2.8,10.14,16.75,11.39,21.9.12.52.57.9,1.11.95.51.03,1.04-.25,1.25-.75.09-.21,9.27-20.74,25.41-20.74,3.62,0,6.09,1.04,7.36,3.08,3.44,5.52-2.02,16.73-2.07,16.83-.26.54-.11,1.18.36,1.55.47.36,1.14.34,1.59-.05,8.98-7.89,28.7-13.71,38.92-9.25,3.68,1.61,5.59,4.41,5.69,8.35.42,16.4-17.83,22.68-18.13,22.78-.65.21-1.01.92-.79,1.57.23.65.92,1.01,1.57.8.25-.08,24.64-8.1,44.3-5.43,21.39,2.9,52.22,24.7,52.53,24.93.56.4,1.34.27,1.73-.29.4-.56.27-1.33-.27-1.73-.19-.14-18.6-13.7-25.26-26.98-6.35-12.67,1.56-20.53,1.9-20.85.41-.39.5-1,.24-1.5s-.82-.75-1.37-.62c-.2.05-19.69,4.44-30.42,4.44s-19.65-4.74-23.28-12.69c-1.67-3.66-1.65-7.17.09-9.86,1.96-3.04,7.08-6.67,20.35-6.67,21.31,0,44.22,15.88,44.46,16.03.52.36,1.24.29,1.66-.2.42-.47.41-1.2-.01-1.66-.12-.14-12.54-13.83-6.14-20.23,5.6-5.6,28.67-1.66,37.09.34.62.15,1.25-.2,1.46-.8.21-.6-.06-1.27-.65-1.55-.09-.04-8.7-4.1-17.18-9.35-14.52-8.96-16.68-13.84-16.68-15.95,0-9.37,18.77-21.6,18.97-21.71.47-.31.69-.9.51-1.45-.17-.55-.72-.88-1.27-.85-.27.02-27.45,2.03-47.52,2.03-3.54,0-6.66-1.32-9.25-3.94-9.57-9.66-9.45-33.59-9.45-33.83,0-.61-.42-1.13-1.04-1.23-.6-.11-1.2.24-1.4.81-.1.26-9.82,26.81-36.26,26.81s-28.77-21.93-28.87-22.86c-.07-.67-.66-1.18-1.35-1.11-.67.06-1.19.66-1.14,1.33.04.42.65,10.32-9.54,17.74-6.18,4.49-22.19,5.9-36.24,6.33-8.3-.18-15.15.11-16.92.2-.67.04-1.2.6-1.19,1.27s.57,1.22,1.25,1.22c4.29,0,9.93,0,16.02-.18,14.65.3,32.27,1.93,35.71,7.22,5.75,8.82-11.49,24.38-11.67,24.53-.49.44-.56,1.18-.15,1.7.4.51,1.14.63,1.68.26.2-.14,20.4-13.71,30.93-18.41,6.89-3.08,27.85-12.43,34.93-4,1,1.2,1.34,2.44,1.04,3.8-1.17,5.2-11.23,10.83-15.01,12.55-.61.27-.89,1-.64,1.61.26.62.96.92,1.59.68.28-.1,27.46-10.24,40.88-11.58,9.26-.94,21-.25,26.18,4.42,1.63,1.48,2.43,3.22,2.43,5.31,0,1.05-.42,1.93-1.29,2.73-4.79,4.39-20.86,4.06-26.64,3.57-.67-.06-1.25.41-1.35,1.06s.34,1.27.99,1.4c.15.04,15.3,3.18,20.03,7.27,2.71,2.34,5.09,6.17,4.15,8.67-.85,2.28-4.55,3.54-10.43,3.54-16.48,0-38.53-19.82-38.76-20.02-.45-.41-1.14-.44-1.61-.05-.47.37-.61,1.05-.31,1.58.05.1,5.17,9.5,1.82,15.16-1.76,2.98-5.68,4.49-11.63,4.49-19.89,0-36.87-15.43-40.07-18.52-.31-.32-.52-.52-.57-.57-.49-.47-1.27-.45-1.75.02-.48.49-.49,1.26-.01,1.75.09.09.36.37.84.83,2.95,3.04,8.15,9.62,6.51,13.73-1.2,2.99-6.11,4.57-14.22,4.57-29.41,0-63.62-27.03-63.98-27.31-.51-.41-1.26-.35-1.7.14-.45.49-.44,1.23.02,1.71.21.21,20.94,21.92,21.15,37.7.21,15.4-21.65,24.34-21.87,24.43-.59.24-.91.88-.74,1.49s.77,1.01,1.41.89c.14-.02,13.89-2.28,27.91,7.34,14.21,9.76,27.38,36.06,27.5,36.33h-.09.02Z"/>
  <path d="M212.33,237.85c-13.66-2.28-35.35-8.97-35.35-17.22,0-9.07,10.92-18.87,11.03-18.97.7-.62.84-1.67.32-2.46-.52-.78-1.54-1.07-2.38-.67-.34.16-34.44,16.02-45.25,16.33-1.17.04-2.22-.41-3.23-1.36-5.22-4.96-6.69-21.08-6.81-26.87-.02-.99-.8-1.78-1.78-1.85-1-.07-1.85.65-1.98,1.62-.04.26-3.87,25.97-16.41,29.18-12.43,3.17-23.4-14.2-23.51-14.37-.47-.76-1.41-1.08-2.25-.79-.84.3-1.36,1.15-1.24,2.03,1.83,14.02-.34,19.41-12.2,30.3-11.57,10.61-31.79,12.21-42.87,12.21h-.06c-1.05,0-1.9.85-1.9,1.89s.85,1.9,1.9,1.9c.35,0,23.83.11,32.31,10.16,2.57,3.05,3.46,6.67,2.7,11.02-.82,4.74-3.17,8.43-6.95,10.97-10.96,7.35-30.53,3.21-30.73,3.16-.9-.2-1.8.28-2.15,1.12-.35.83-.06,1.82.71,2.32.6.4,14.57,9.76,7.66,20.52-7.31,11.39-29.01,9.97-29.22,9.95-.86-.06-1.65.46-1.93,1.27-.27.81.02,1.71.74,2.19,17.13,11.49,13.8,28.76,11.57,35.64-.31.96.19,2.01,1.15,2.36.21.08.44.11.66.11.74,0,1.44-.44,1.75-1.16,9.21-21.79,30.13-21.2,31.03-21.18.76,0,1.48-.4,1.81-1.1.32-.7.19-1.52-.34-2.08-3.31-3.55-11.42-13.98-9.17-19.64,1.09-2.75,10.97-5.42,29.51-2.74,1,.15,1.92-.51,2.12-1.48.2-.98-.39-1.94-1.36-2.21-5.44-1.48-8.73-7.43-7.84-14.15.99-7.32,7.25-15.14,21.9-15.14,3.77,0,8.51.59,9.78,3.38,1.96,4.34-4.22,12.84-6.54,15.48-.61.7-.64,1.73-.04,2.45.59.71,1.61.9,2.41.44.3-.17,30.41-17.35,38.68-3.64,1.85,3.07,2.26,5.96,1.26,8.84-2.86,8.21-16.1,13.31-16.36,13.4-.97.37-1.47,1.46-1.11,2.44.37.97,1.46,1.47,2.43,1.11,2.79-1.03,10.61-2.7,14.85-.29,2.69,1.53,4.7,5.75,4.62,8.96-.34,14.32-25.17,23.53-25.41,23.61-.85.27-1.39,1.11-1.29,1.99.09.89.79,1.58,1.67,1.68,3.18.36,6.3.54,9.35.54,44.13,0,72.77-35.87,73.07-36.26.62-.8.51-1.96-.27-2.62-.79-.66-1.95-.57-2.63.19-.06.06-6.04,6.71-14.4,11.36-6.13,3.42-13.6,4.55-18.19,2.77-2.2-.85-5.42-2.01-5.89-6.08-.47-4.07,4.85-12.08,13.9-18.33.82-.57,1.06-1.68.54-2.54-.52-.86-1.62-1.16-2.51-.68-1.21.65-5.45,2.78-9.06,3.05-6.99.54-10.56-4.47-12.34-8.77-2.28-5.51-2.57-10.31-.85-14.28,2.16-4.97,6.9-7.24,7.89-7.66.14-.05.22-.09.26-.11.95-.4,1.41-1.48,1.02-2.44s-1.46-1.43-2.42-1.08c-.02,0-.12.05-.29.11-1.72.67-13.66,5.08-21.35.83-2.88-1.6-4.21-4.42-3.44-7.38.89-3.43,4.8-7.44,12.94-7.44,14.4,0,29.8,11.48,29.96,11.59.69.51,1.63.51,2.31-.02.67-.54.91-1.46.56-2.24-.28-.65-6.68-15.84,7.35-22.7,8.95-4.37,37.11-6.67,37.38-6.69.95-.07,1.7-.85,1.75-1.81.04-.96-.64-1.79-1.59-1.94h.05v-.03ZM81.33,250.98c-1.25-1.47-1.67-3.23-1.31-5.37,1.4-8.18,18.49-18.72,39.29-20.6,3.64-.32,7.06-.5,10.26-.5,11.34,0,19.73,2.06,24.06,6.01,2.17,1.98,3.28,4.41,3.28,7.23,0,7.8-20.14,19.39-47.96,19.39-18.52,0-25.23-3.35-27.6-6.16h-.02Z"/>
  <path d="M955.57,173.61c.21.44.66.7,1.12.7.19,0,.37-.04.55-.12.61-.3.87-1.05.57-1.67-7.64-15.59-26.75-58.02-23.45-66.97.3-.82.71-1,.85-1.05,1.21-.52,2.4-.49,3.61.11,5.65,2.8,10.15,16.75,11.39,21.9.12.52.57.9,1.11.95.51.03,1.04-.25,1.25-.75.09-.21,9.27-20.74,25.4-20.74,3.62,0,6.09,1.04,7.36,3.08,3.44,5.52-2.02,16.73-2.07,16.83-.26.54-.11,1.18.36,1.54.47.36,1.14.34,1.58-.05,8.99-7.89,28.7-13.71,38.91-9.25,3.69,1.61,5.59,4.41,5.69,8.35.43,16.4-17.83,22.68-18.13,22.78-.65.21-1.01.92-.78,1.57.22.65.92,1.01,1.57.8.25-.07,24.64-8.1,44.3-5.43,21.38,2.9,52.22,24.7,52.53,24.93.56.4,1.33.27,1.73-.29s.28-1.33-.27-1.73c-.19-.14-18.61-13.7-25.26-26.98-6.35-12.68,1.56-20.53,1.9-20.85.41-.39.5-1,.24-1.5-.27-.5-.83-.75-1.38-.62-.2.05-19.69,4.44-30.42,4.44s-19.65-4.74-23.28-12.69c-1.67-3.67-1.65-7.17.09-9.86,1.96-3.04,7.07-6.67,20.35-6.67,21.31,0,44.22,15.88,44.46,16.03.52.36,1.23.29,1.66-.2.42-.47.41-1.2-.02-1.66-.12-.14-12.54-13.83-6.14-20.23,5.61-5.6,28.68-1.66,37.09.34.62.15,1.25-.2,1.46-.8.21-.6-.06-1.27-.65-1.55-.09-.04-8.7-4.1-17.18-9.35-14.53-8.96-16.68-13.83-16.68-15.95,0-9.37,18.76-21.6,18.96-21.71.48-.31.69-.9.51-1.45-.17-.55-.72-.88-1.27-.85-.27.02-27.45,2.03-47.52,2.03-3.54,0-6.66-1.32-9.24-3.94-9.57-9.66-9.45-33.59-9.45-33.83,0-.61-.42-1.13-1.03-1.23-.6-.11-1.2.24-1.4.81-.1.26-9.82,26.81-36.26,26.81s-28.83-21.95-28.92-22.88c-.08-.67-.66-1.18-1.35-1.11-.67.06-1.18.66-1.14,1.33.04.42.65,10.32-9.55,17.74-6.18,4.49-22.19,5.9-36.24,6.33-8.3-.17-15.15.11-16.92.2-.67.04-1.2.6-1.18,1.27.01.67.57,1.22,1.25,1.22,4.29,0,9.93,0,16.02-.17,14.65.3,32.27,1.93,35.71,7.22,5.75,8.82-11.49,24.38-11.67,24.53-.49.44-.56,1.18-.15,1.69.4.51,1.14.64,1.68.26.2-.14,20.4-13.71,30.93-18.41,6.89-3.08,27.85-12.43,34.92-4,1,1.2,1.34,2.44,1.04,3.8-1.17,5.2-11.23,10.83-15.01,12.55-.61.27-.89,1-.64,1.61.26.62.96.92,1.59.69.27-.1,27.46-10.24,40.87-11.58,9.26-.93,21-.25,26.18,4.42,1.64,1.48,2.43,3.22,2.43,5.31,0,1.05-.42,1.93-1.28,2.73-4.79,4.39-20.86,4.06-26.64,3.56-.67-.06-1.25.41-1.35,1.06s.34,1.27.99,1.4c.15.04,15.3,3.18,20.02,7.27,2.71,2.34,5.1,6.17,4.16,8.67-.85,2.28-4.55,3.54-10.43,3.54-16.49,0-38.53-19.82-38.76-20.02-.45-.41-1.13-.44-1.61-.05-.47.37-.61,1.05-.31,1.58.05.1,5.17,9.5,1.82,15.16-1.76,2.98-5.68,4.49-11.63,4.49-19.89,0-36.87-15.43-40.06-18.52-.31-.32-.52-.52-.57-.57-.49-.47-1.27-.45-1.75.02-.47.49-.49,1.26-.01,1.74.09.09.36.37.84.84,2.95,3.04,8.15,9.62,6.51,13.73-1.2,2.99-6.11,4.57-14.23,4.57-29.41,0-63.62-27.03-63.97-27.31-.51-.41-1.26-.35-1.7.14-.45.49-.44,1.23.02,1.71.21.21,20.94,21.92,21.15,37.7.21,15.4-21.65,24.34-21.87,24.43-.59.24-.91.89-.74,1.5s.77,1.01,1.41.88c.14-.02,13.89-2.28,27.91,7.34,14.21,9.76,27.38,36.06,27.5,36.33h-.04l.05.03Z"/>
  <path d="M1343.34,53.09c-13.66-2.28-35.35-8.97-35.35-17.22,0-9.07,10.92-18.87,11.03-18.97.7-.62.84-1.67.33-2.46-.52-.79-1.54-1.07-2.38-.67-.34.16-34.44,16.02-45.25,16.33-1.17.04-2.22-.41-3.23-1.36-5.22-4.96-6.69-21.08-6.81-26.87-.03-.98-.8-1.78-1.79-1.84-1-.07-1.84.65-1.98,1.62-.04.26-3.87,25.97-16.41,29.18-12.43,3.17-23.4-14.2-23.51-14.37-.47-.76-1.41-1.08-2.25-.79-.83.3-1.36,1.15-1.23,2.03,1.83,14.02-.34,19.41-12.2,30.3-11.57,10.61-31.8,12.21-42.88,12.21h-.06c-1.05,0-1.9.85-1.9,1.89s.85,1.89,1.9,1.89c.35,0,23.83.11,32.31,10.16,2.57,3.05,3.45,6.67,2.69,11.02-.82,4.74-3.17,8.43-6.95,10.97-10.96,7.35-30.53,3.22-30.73,3.17-.9-.2-1.8.27-2.15,1.12-.35.83-.06,1.82.71,2.32.6.4,14.58,9.76,7.66,20.51-7.31,11.39-29.01,9.97-29.22,9.95-.86-.06-1.65.46-1.93,1.27s.02,1.71.73,2.19c17.13,11.49,13.8,28.76,11.57,35.64-.31.96.19,2.01,1.15,2.36.21.07.43.11.66.11.73,0,1.43-.44,1.75-1.16,9.2-21.79,30.13-21.2,31.03-21.18.76,0,1.48-.4,1.81-1.1.32-.7.18-1.52-.34-2.08-3.31-3.55-11.42-13.98-9.17-19.64,1.08-2.75,10.97-5.42,29.51-2.74,1,.15,1.92-.51,2.12-1.48.2-.99-.39-1.94-1.36-2.21-5.44-1.48-8.73-7.43-7.84-14.15.99-7.32,7.25-15.14,21.9-15.14,3.77,0,8.51.59,9.79,3.38,1.96,4.34-4.22,12.84-6.54,15.48-.61.7-.64,1.73-.04,2.46.59.71,1.61.9,2.41.44.3-.17,30.41-17.35,38.68-3.64,1.85,3.07,2.26,5.96,1.26,8.84-2.86,8.21-16.1,13.31-16.36,13.4-.97.37-1.47,1.46-1.11,2.44.38.97,1.46,1.47,2.43,1.11,2.8-1.03,10.61-2.7,14.85-.29,2.7,1.53,4.71,5.75,4.62,8.96-.34,14.32-25.17,23.53-25.41,23.61-.84.27-1.38,1.11-1.28,1.99.09.89.79,1.58,1.67,1.68,3.18.36,6.3.54,9.35.54,44.13,0,72.77-35.87,73.07-36.26.62-.8.51-1.96-.28-2.62-.78-.66-1.94-.57-2.63.19-.06.06-6.04,6.71-14.4,11.35-6.13,3.41-13.6,4.55-18.19,2.77-2.2-.85-5.42-2.01-5.89-6.08-.48-4.07,4.85-12.08,13.9-18.33.82-.57,1.06-1.68.54-2.54-.53-.86-1.63-1.16-2.51-.69-1.21.65-5.45,2.78-9.06,3.05-6.99.54-10.56-4.47-12.34-8.77-2.29-5.51-2.57-10.31-.85-14.28,2.16-4.97,6.9-7.24,7.89-7.67.13-.05.22-.09.26-.11.95-.4,1.41-1.48,1.02-2.44s-1.46-1.43-2.42-1.08c-.02,0-.12.05-.29.11-1.72.67-13.66,5.09-21.35.84-2.88-1.6-4.2-4.42-3.44-7.38.89-3.43,4.8-7.44,12.94-7.44,14.4,0,29.8,11.48,29.96,11.59.69.51,1.63.51,2.31-.03.67-.54.91-1.46.56-2.24-.28-.65-6.68-15.84,7.35-22.7,8.94-4.37,37.11-6.67,37.38-6.69.95-.07,1.7-.85,1.75-1.81.04-.96-.64-1.79-1.59-1.94h.05,0ZM1212.33,66.2c-1.25-1.47-1.68-3.23-1.31-5.37,1.39-8.18,18.49-18.72,39.29-20.6,3.64-.32,7.06-.5,10.26-.5,11.34,0,19.72,2.06,24.05,6.01,2.17,1.98,3.28,4.41,3.28,7.23,0,7.8-20.13,19.39-47.96,19.39-18.52,0-25.23-3.35-27.6-6.16h-.01Z"/>
  <path d="M1169.49,358.37c.21.44.66.7,1.12.7.19,0,.38-.04.55-.12.61-.3.87-1.05.58-1.67-7.64-15.59-26.76-58.02-23.45-66.97.3-.82.71-1,.85-1.05,1.21-.52,2.39-.49,3.6.11,5.66,2.8,10.15,16.75,11.4,21.9.12.52.57.9,1.11.95.51.03,1.03-.25,1.24-.75.09-.21,9.28-20.74,25.41-20.74,3.62,0,6.09,1.04,7.36,3.08,3.45,5.52-2.02,16.73-2.07,16.83-.26.54-.11,1.18.36,1.55.48.36,1.14.34,1.59-.05,8.98-7.89,28.7-13.71,38.92-9.25,3.68,1.61,5.59,4.41,5.69,8.35.42,16.4-17.84,22.68-18.14,22.78-.64.21-1.01.92-.78,1.57.22.65.92,1.01,1.57.8.25-.08,24.64-8.1,44.3-5.43,21.38,2.9,52.22,24.7,52.53,24.93.56.4,1.33.27,1.73-.29s.28-1.33-.27-1.73c-.19-.14-18.61-13.7-25.26-26.98-6.35-12.67,1.56-20.53,1.9-20.85.41-.39.5-1,.24-1.5s-.83-.75-1.37-.62c-.2.05-19.69,4.44-30.43,4.44s-19.65-4.74-23.28-12.69c-1.67-3.66-1.65-7.17.09-9.86,1.96-3.04,7.07-6.67,20.35-6.67,21.31,0,44.22,15.88,44.46,16.03.52.36,1.23.29,1.66-.2.42-.47.41-1.2-.01-1.66-.13-.14-12.55-13.83-6.14-20.23,5.6-5.6,28.67-1.66,37.08.34.62.15,1.25-.2,1.46-.8.21-.6-.06-1.27-.65-1.55-.09-.04-8.7-4.1-17.18-9.35-14.52-8.96-16.68-13.84-16.68-15.95,0-9.37,18.76-21.6,18.96-21.71.48-.31.69-.9.51-1.45-.17-.55-.72-.88-1.27-.85-.27.02-27.45,2.03-47.51,2.03-3.55,0-6.67-1.32-9.25-3.94-9.57-9.66-9.45-33.59-9.45-33.83,0-.61-.42-1.13-1.03-1.23-.6-.11-1.2.24-1.4.81-.1.26-9.82,26.81-36.26,26.81s-28.77-21.93-28.87-22.86c-.08-.67-.67-1.18-1.35-1.11-.68.06-1.19.66-1.14,1.33.04.42.65,10.32-9.54,17.74-6.18,4.49-22.19,5.9-36.24,6.33-8.3-.18-15.15.11-16.92.2-.67.04-1.2.6-1.18,1.27.01.67.57,1.22,1.24,1.22,4.3,0,9.94,0,16.03-.18,14.64.3,32.26,1.93,35.71,7.22,5.75,8.82-11.5,24.38-11.67,24.53-.49.44-.56,1.18-.15,1.7.4.51,1.14.63,1.69.26.19-.14,20.4-13.71,30.93-18.41,6.89-3.08,27.85-12.43,34.92-4,1,1.2,1.34,2.44,1.04,3.8-1.17,5.2-11.23,10.83-15.01,12.55-.61.27-.89,1-.64,1.61.26.62.96.92,1.59.68.27-.1,27.46-10.24,40.87-11.58,9.26-.94,21-.25,26.18,4.42,1.64,1.48,2.44,3.22,2.44,5.31,0,1.05-.43,1.93-1.29,2.73-4.79,4.39-20.86,4.06-26.64,3.57-.67-.06-1.25.41-1.35,1.06s.34,1.27.99,1.4c.15.04,15.3,3.18,20.03,7.27,2.7,2.34,5.09,6.17,4.15,8.67-.85,2.28-4.55,3.54-10.43,3.54-16.48,0-38.53-19.82-38.76-20.02-.45-.41-1.13-.44-1.61-.05-.47.37-.61,1.05-.31,1.58.05.1,5.17,9.5,1.82,15.16-1.76,2.98-5.67,4.49-11.63,4.49-19.89,0-36.87-15.43-40.06-18.52-.31-.32-.53-.52-.58-.57-.48-.47-1.27-.45-1.74.02-.48.49-.49,1.26-.02,1.75.09.09.37.37.84.83,2.94,3.04,8.15,9.62,6.51,13.73-1.19,2.99-6.11,4.57-14.22,4.57-29.41,0-63.63-27.03-63.98-27.31-.51-.41-1.26-.35-1.69.14-.45.49-.44,1.23.02,1.71.21.21,20.94,21.92,21.15,37.7.21,15.4-21.65,24.34-21.87,24.43-.59.24-.91.88-.74,1.49.18.61.78,1.01,1.41.89.14-.02,13.89-2.28,27.92,7.34,14.21,9.76,27.37,36.06,27.5,36.33h-.09,0Z"/>
  <path d="M1111.02,237.85c-13.67-2.28-35.35-8.97-35.35-17.22,0-9.07,10.92-18.87,11.03-18.97.7-.62.83-1.67.32-2.46-.52-.78-1.53-1.07-2.38-.67-.34.16-34.44,16.02-45.25,16.33-1.17.04-2.22-.41-3.23-1.36-5.21-4.96-6.69-21.08-6.81-26.87-.03-.99-.8-1.78-1.78-1.85-1-.07-1.85.65-1.99,1.62-.04.26-3.87,25.97-16.41,29.18-12.42,3.17-23.39-14.2-23.51-14.37-.47-.76-1.41-1.08-2.25-.79-.84.3-1.36,1.15-1.23,2.03,1.83,14.02-.34,19.41-12.2,30.3-11.57,10.61-31.79,12.21-42.87,12.21h-.06c-1.05,0-1.9.85-1.9,1.89s.85,1.9,1.9,1.9c.35,0,23.83.11,32.31,10.16,2.57,3.05,3.46,6.67,2.7,11.02-.82,4.74-3.17,8.43-6.95,10.97-10.96,7.35-30.53,3.21-30.73,3.16-.9-.2-1.8.28-2.15,1.12-.35.83-.06,1.82.71,2.32.6.4,14.58,9.76,7.66,20.52-7.31,11.39-29.01,9.97-29.22,9.95-.86-.06-1.65.46-1.93,1.27-.28.81.02,1.71.74,2.19,17.13,11.49,13.8,28.76,11.57,35.64-.31.96.19,2.01,1.15,2.36.21.08.44.11.66.11.74,0,1.43-.44,1.75-1.16,9.21-21.79,30.13-21.2,31.03-21.18.76,0,1.48-.4,1.81-1.1.32-.7.19-1.52-.34-2.08-3.31-3.55-11.42-13.98-9.17-19.64,1.09-2.75,10.97-5.42,29.51-2.74,1,.15,1.92-.51,2.12-1.48.2-.98-.39-1.94-1.36-2.21-5.44-1.48-8.73-7.43-7.84-14.15.99-7.32,7.25-15.14,21.9-15.14,3.77,0,8.51.59,9.78,3.38,1.96,4.34-4.22,12.84-6.54,15.48-.61.7-.64,1.73-.04,2.45.59.71,1.61.9,2.41.44.3-.17,30.41-17.35,38.68-3.64,1.85,3.07,2.26,5.96,1.26,8.84-2.85,8.21-16.09,13.31-16.35,13.4-.98.37-1.48,1.46-1.12,2.44.38.97,1.46,1.47,2.44,1.11,2.79-1.03,10.6-2.7,14.85-.29,2.69,1.53,4.7,5.75,4.61,8.96-.33,14.32-25.16,23.53-25.4,23.61-.85.27-1.39,1.11-1.29,1.99.09.89.79,1.58,1.68,1.68,3.18.36,6.3.54,9.34.54,44.14,0,72.77-35.87,73.07-36.26.63-.8.51-1.96-.27-2.62-.79-.66-1.95-.57-2.64.19-.06.06-6.03,6.71-14.4,11.36-6.12,3.42-13.6,4.55-18.19,2.77-2.19-.85-5.41-2.01-5.89-6.08-.47-4.07,4.86-12.08,13.9-18.33.83-.57,1.06-1.68.54-2.54-.52-.86-1.62-1.16-2.51-.68-1.21.65-5.45,2.78-9.06,3.05-6.99.54-10.55-4.47-12.34-8.77-2.28-5.51-2.57-10.31-.85-14.28,2.16-4.97,6.9-7.24,7.89-7.66.14-.05.22-.09.26-.11.95-.4,1.41-1.48,1.02-2.44-.38-.96-1.46-1.43-2.42-1.08-.02,0-.12.05-.28.11-1.73.67-13.67,5.08-21.35.83-2.89-1.6-4.21-4.42-3.45-7.38.89-3.43,4.81-7.44,12.94-7.44,14.4,0,29.8,11.48,29.96,11.59.69.51,1.64.51,2.31-.02.67-.54.91-1.46.56-2.24-.27-.65-6.67-15.84,7.35-22.7,8.95-4.37,37.11-6.67,37.39-6.69.94-.07,1.69-.85,1.74-1.81.04-.96-.63-1.79-1.58-1.94h.05l-.02-.03ZM980.01,250.98c-1.25-1.47-1.67-3.23-1.31-5.37,1.4-8.18,18.49-18.72,39.29-20.6,3.65-.32,7.07-.5,10.26-.5,11.34,0,19.73,2.06,24.06,6.01,2.17,1.98,3.28,4.41,3.28,7.23,0,7.8-20.14,19.39-47.96,19.39-18.52,0-25.24-3.35-27.61-6.16h-.01Z"/>
</svg>