<svg width="186" height="50" viewBox="0 0 186 50" fill="none" xmlns="http://www.w3.org/2000/svg">
<path d="M5.81475 2.8678H43.8697C44.1575 2.8678 44.431 2.93177 44.6613 3.0597L66.7545 15.3518C67.287 15.6503 68.021 15.6077 68.496 15.2559L88.2287 0.298507C88.4734 0.10661 88.8188 0 89.1787 0H129.983C130.918 0 131.566 0.703625 131.206 1.35394L121.779 18.3369C121.261 19.2751 122.772 20.1066 123.837 19.467L155.429 0.223881C155.674 0.0746269 155.962 0 156.279 0H184.676C185.41 0 186 0.4371 186 0.98081V49.0192C186 49.5629 185.41 50 184.676 50H4.24592C3.51188 50 2.92177 49.5629 2.92177 49.0192V43.8913C2.92177 43.3689 3.4687 42.9424 4.15956 42.9104L80.6005 39.6589C82.2844 39.5842 82.2557 37.7505 80.5717 37.7079L1.26658 35.6397C0.561326 35.6183 0 35.1919 0 34.6588V27.2921C0 26.7484 0.590108 26.3113 1.32415 26.3113H44.4598C45.7696 26.3113 46.2733 25.064 45.1938 24.5203L5.08071 4.64819C4.00124 4.11514 4.50499 2.85714 5.81475 2.85714V2.8678Z" fill="#FAFAFD"/>
</svg>
