<svg width="445" height="186" viewBox="0 0 445 186" fill="none" xmlns="http://www.w3.org/2000/svg">
<path d="M431.841 104.946L413.841 128.8L395.84 104.946L383.253 114.45L403.959 141.87L383.253 169.29L395.84 178.793L444.407 114.45L431.841 104.946Z" fill="#191616"/>
<path d="M292.286 138.397V108.502H276.53V138.313L259.558 107.222L245.733 114.754L284.397 185.663L323.188 114.775L309.363 107.201L292.286 138.397Z" fill="#191616"/>
<path d="M134.445 160.881H114.976V176.658H144.599L165.935 129.643L185.089 172.021L199.459 165.518L165.956 91.4189L134.445 160.881Z" fill="#191616"/>
<path d="M0 111.709V127.485H33.9234L43.1752 172.003L58.616 168.814L46.7627 111.709H0Z" fill="#191616"/>
<path d="M438.604 4.22949L390.017 68.5728" stroke="#191616" stroke-width="3.48949" stroke-miterlimit="10"/>
<path d="M390.017 4.22949L414.52 36.6844" stroke="#191616" stroke-width="3.48949" stroke-miterlimit="10"/>
<path d="M114.976 62.4888H139.501L165.935 4.22949L192.263 62.4888" stroke="#191616" stroke-width="3.48949" stroke-miterlimit="10"/>
<path d="M252.496 6.7041L284.259 64.9633L316.126 6.7041" stroke="#191616" stroke-width="3.48949" stroke-miterlimit="10"/>
<path d="M284.26 64.9643V4.22949" stroke="#191616" stroke-width="3.48949" stroke-miterlimit="10"/>
<path d="M50.8746 64.0378L40.343 13.2471H0" stroke="#191616" stroke-width="3.48949" stroke-miterlimit="10"/>
</svg>
