<svg width="200" height="456" viewBox="0 0 200 456" fill="none" xmlns="http://www.w3.org/2000/svg">
<path d="M3.52284 13.2214H47.9466L72.1734 64.1616L93.8846 2.00879H138.809L126.189 87.9241L163.549 2.00879H194.846V197.859H5.03702V170.335L115.083 152.638L2.00867 141.515V105.113H52.6024L3.52284 13.2214Z" fill="#EEECF0" stroke="#191616" stroke-width="4.01743" stroke-linecap="round" stroke-linejoin="round" stroke-dasharray="0.1 11.05"/>
<path d="M110.024 9.03906L74.8451 55.4311L39.6661 9.03906L15.0653 27.5224L55.5335 80.8507L15.0653 134.179L39.6661 152.662L134.584 27.5224L110.024 9.03906Z" fill="#191616"/>
<path d="M200.008 201.166L66.9084 161.637L74.47 135.74L132.852 153.049L96.5637 116.761L115.628 97.6963L152.019 134.087L134.709 75.4492L160.656 67.9395L200.008 201.166Z" fill="#191616"/>
<path d="M3.52284 271.321H47.9466L72.1734 322.261L93.8846 260.108H138.809L126.189 346.024L163.549 260.108H194.846V455.958H5.03702V428.434L115.083 410.738L2.00867 399.615V363.213H52.6024L3.52284 271.321Z" fill="#191616"/>
</svg>
