<svg width="336" height="189" viewBox="0 0 336 189" fill="none" xmlns="http://www.w3.org/2000/svg">
<path d="M136.432 73.1401C136.63 73.1401 136.828 73.1562 137.025 73.1562C138.665 73.1562 140.248 72.7553 141.492 72.0178C144.941 69.9815 145.874 65.2516 145.026 61.6119C143.754 56.3208 143.132 50.9495 143.132 45.6745C143.132 30.0416 148.447 18.1126 150.736 13.7194C152.744 9.91939 152.093 3.81056 148.249 1.30931C146.722 0.315218 144.63 -0.149758 142.566 0.0426459C111.271 2.81647 81.8986 10.9295 57.6428 23.5159C53.063 25.8889 52.328 32.7513 54.9006 36.7116C64.8234 51.9436 92.1324 70.6068 136.46 73.1241L136.432 73.1401Z" fill="black"/>
<path d="M61.007 79.6329C50.1513 70.9748 42.066 60.8255 37.0057 49.4416C35.5074 46.0584 32.5672 45.1285 30.3904 44.9521C29.1748 44.8559 26.0368 44.8559 23.7187 47.0846C8.19835 61.9959 0 78.1739 0 93.9029C0 104.164 3.5338 114.667 10.5448 125.137C12.4389 127.958 15.4921 128.455 17.1318 128.488C17.2166 128.488 17.2731 128.488 17.3579 128.488C18.9693 128.488 21.7398 128.103 23.6622 125.794C34.0938 113.223 46.3914 102.657 60.272 94.3519C65.3606 91.3055 65.0496 82.8557 61.007 79.6329Z" fill="black"/>
<path d="M168.49 127.879C170.752 127.911 174.483 127.318 176.123 123.197C177.537 119.638 177.508 112.294 171.006 110.595C160.546 107.853 149.804 106.346 139.117 106.121C130.043 105.849 119.47 106.843 108.501 109.023C82.4075 114.234 60.272 125.458 42.7445 142.373C39.2955 145.708 39.2672 153.581 43.8187 156.499C53.4306 162.656 64.3428 168.123 76.2446 172.741C77.2906 173.142 78.4779 173.35 79.6935 173.35C80.372 173.35 81.0222 173.286 81.6724 173.158C83.3404 172.821 85.6303 171.875 86.959 169.31C97.3624 149.14 125.406 128.52 164.73 127.927C165.974 127.895 167.218 127.879 168.462 127.895L168.49 127.879Z" fill="black"/>
<path d="M208.379 169.712C195.94 163.796 181.438 160.669 166.455 160.669H164.759C150.737 160.909 137.11 163.94 125.322 169.439C120.516 171.684 120.261 177.889 121.618 181.352C122.664 184.062 124.756 185.649 127.781 186.098C140.842 188.022 154.27 189 167.67 189C181.07 189 193.368 188.119 205.807 186.371C208.832 185.954 210.895 184.399 211.97 181.753C213.383 178.258 213.242 172.021 208.351 169.696L208.379 169.712Z" fill="black"/>
<path d="M242.897 46.7485C242.897 38.0743 244.424 29.5924 247.392 21.5435C248.862 17.5993 247.901 11.282 242.332 9.72673C237.667 8.41197 225.765 5.17317 216.041 3.21706C212.422 2.49555 206.853 2.22298 200.775 5.01284C183.134 13.1098 170.299 23.5317 164.617 34.3705C163.571 36.4709 161.818 40.7519 161.818 45.6902C161.818 59.5754 174.54 74.7272 195.121 85.5499L195.036 85.8867L196.93 86.7364C224.352 99.1305 243.406 117.681 250.587 138.974C252 143.159 255.562 144.025 257.569 144.169C257.767 144.169 258.022 144.201 258.304 144.201C259.944 144.201 262.743 143.816 264.722 141.491C270.658 134.485 273.796 127.221 273.796 120.519C273.796 111.685 268.086 103.668 263.308 98.4891C246.459 80.4031 242.925 60.3931 242.925 46.7805L242.897 46.7485Z" fill="black"/>
<path d="M280.497 24.8627C278.97 24.0449 277.019 23.7082 275.125 23.9167C273.542 24.093 271.309 24.7344 269.697 26.7546C267.577 29.4483 265.966 31.9014 264.807 34.2584C261.612 40.6879 261.612 45.2415 261.612 46.7486C261.612 55.1022 265.259 63.2793 272.496 71.0717C289.034 88.9492 292.511 107.805 292.511 120.487C292.511 126.372 291.805 132.208 290.363 137.852C289.232 142.357 290.957 147.793 296.328 149.011C296.978 149.156 297.713 149.236 298.476 149.236C300.257 149.236 302.265 148.771 303.876 147.472C324.174 131.054 335.341 112.038 335.341 93.9036C335.341 69.2118 314.817 43.4136 280.468 24.8627H280.497Z" fill="black"/>
</svg>
