<?xml version="1.0" encoding="UTF-8"?>
<svg id="Layer_1" xmlns="http://www.w3.org/2000/svg" version="1.1" viewBox="0 0 168.32 188.65">
  <!-- Generator: Adobe Illustrator 30.5.1, SVG Export Plug-In . SVG Version: 2.1.4 Build 3)  -->
  <defs>
    <style>
      .st0 {
        fill: #191616;
      }
    </style>
  </defs>
  <path class="st0" d="M114,15.29c-9.79,12.04-16.52,28.11-16.38,43.82-.02,16.43,7.64,32.35,19.89,43.62,9.35,7.58,18.36,16.95,22.77,30.51,4.66,14.68,5.23,28.58-2.02,44.67,1.64-2.04,4.39-5.46,5.48-7.01,11.42-16.29,21.09-42.31,9-66.85-6.19-13.76-14.21-27.66-16.38-43.53-1.27-8.44-1.19-17.06.29-25.52,1.52-8.53,4.48-16.76,8.39-24.35l22.4,13.42h0c-32.41,45.39,15.68,75.95-4.04,122.26-6.02,14.34-16.08,25.87-27.08,35.65-.02.02-.04.05-.06.07,0,0,0,0,0-.01,0,0,0,0,0,0,0,0,0,0,0,0-8.77-16.42-26.72-28.95-45.21-25.26-16.6,3.05-29.66,16.19-34.53,31.89l-23.64-11.06c23.76-41.32,79.3-48.83,100.68-6.3.74,1.48,2.23,5.02,2.73,7.14.02-.14.04-.3.07-.46,2.79-13.63,2.07-29.21-3.65-41.21-20.35-43.74-79.55-41.66-101.45-1.42l-21.86-14.28c8.82-12.18,20.47-21.07,33.21-26.55C16.73,80.68,1.58,51.32,0,22.29h26.11c-.62,15.38,3.61,32.29,13.1,44.59,8.28,10.97,20.69,17.27,34.23,20.09,6.05,1.15,10.74,1.46,15.94,2.56-17.26-27.05-13.19-63.03,3.44-89.54,0,0,21.1,15.23,21.17,15.29ZM32.88,177.59s0,0,0,0h0s0,0,0,0Z"/>
</svg>