<?xml version="1.0" encoding="UTF-8"?>
<svg xmlns="http://www.w3.org/2000/svg" xmlns:xlink="http://www.w3.org/1999/xlink" version="1.1" viewBox="0 0 76 68">
  <!-- Generator: Adobe Illustrator 30.3.0, SVG Export Plug-In . SVG Version: 2.1.3 Build 182)  -->
  <defs>
    <style>
      .st0 {
        fill: url(#linear-gradient5);
      }

      .st1 {
        fill: url(#linear-gradient4);
      }

      .st2 {
        fill: url(#linear-gradient);
      }

      .st3, .st4 {
        isolation: isolate;
      }

      .st4 {
        mix-blend-mode: multiply;
      }

      .st4, .st5, .st6 {
        fill: none;
      }

      .st7 {
        fill: url(#linear-gradient2);
        fill-opacity: .7;
      }

      .st5 {
        stroke: url(#linear-gradient3);
      }

      .st5, .st6 {
        stroke-opacity: .07;
        stroke-width: .48px;
      }

      .st6 {
        stroke: url(#linear-gradient1);
      }
    </style>
    <linearGradient id="linear-gradient" x1="37.98" y1="66.12" x2="37.98" y2="2.28" gradientTransform="translate(0 70) scale(1 -1)" gradientUnits="userSpaceOnUse">
      <stop offset="0" stop-color="#5bb1e0"/>
      <stop offset=".23" stop-color="#0591de"/>
    </linearGradient>
    <linearGradient id="linear-gradient1" x1="37.98" y1="60.26" x2="37.98" y2="54.93" gradientTransform="translate(0 70) scale(1 -1)" gradientUnits="userSpaceOnUse">
      <stop offset="0" stop-color="#003c5c"/>
      <stop offset="1" stop-color="#003c5c" stop-opacity="0"/>
    </linearGradient>
    <linearGradient id="linear-gradient2" x1="37.98" y1="70" x2="37.98" y2="2.28" gradientTransform="translate(0 70) scale(1 -1)" gradientUnits="userSpaceOnUse">
      <stop offset="0" stop-color="#57addb"/>
      <stop offset=".23" stop-color="#098dd6"/>
    </linearGradient>
    <linearGradient id="linear-gradient3" x1="37.98" y1="60.26" x2="37.98" y2="54.93" gradientTransform="translate(0 70) scale(1 -1)" gradientUnits="userSpaceOnUse">
      <stop offset="0" stop-color="#003c5c"/>
      <stop offset="1" stop-color="#003c5c" stop-opacity="0"/>
    </linearGradient>
    <linearGradient id="linear-gradient4" x1="37.8" y1="59.34" x2="37.8" y2="10.29" gradientTransform="translate(0 70) scale(1 -1)" gradientUnits="userSpaceOnUse">
      <stop offset="0" stop-color="#fdfdfd"/>
      <stop offset="1" stop-color="#f4f4f4"/>
    </linearGradient>
    <linearGradient id="linear-gradient5" x1="38.09" y1="52.8" x2="38.09" y2="5.94" gradientTransform="translate(0 70) scale(1 -1)" gradientUnits="userSpaceOnUse">
      <stop offset="0" stop-color="#73d7ff"/>
      <stop offset="1" stop-color="#6bcbf3"/>
    </linearGradient>
  </defs>
  <g class="st3">
    <g id="Layer_1">
      <g id="mask0_630_192">
        <path class="st2" d="M9.31,63.84h57.35c3.26,0,4.89,0,6.13-.63,1.09-.56,1.98-1.45,2.54-2.54.63-1.24.63-2.87.63-6.13V15.29c0-3.26,0-4.89-.63-6.13-.56-1.09-1.45-1.99-2.54-2.54-1.24-.63-2.87-.63-6.13-.63h-31.46c-1.74,0-3.96-.16-6.14-1.82-2.18-1.66-.32-.24-2.63-2.02-2.3-1.78-3.48-2.14-5.5-2.14h-11.62c-3.26,0-4.89,0-6.13.63-1.09.56-1.99,1.45-2.54,2.54-.63,1.24-.63,2.87-.63,6.13v45.22c0,3.26,0,4.89.63,6.13.56,1.09,1.45,1.99,2.54,2.54,1.24.63,2.87.63,6.13.63Z"/>
        <path class="st6" d="M9.31.24h11.62c.99,0,1.76.09,2.55.39.8.3,1.65.82,2.79,1.7,2.29,1.77.45.37,2.63,2.02,2.25,1.71,4.53,1.87,6.29,1.87h31.46c1.63,0,2.84,0,3.8.08.96.08,1.64.23,2.22.53,1.05.53,1.9,1.39,2.44,2.44.3.58.45,1.27.53,2.22.08.96.08,2.17.08,3.8v39.24c0,1.63,0,2.84-.08,3.8-.08.96-.23,1.64-.53,2.22-.53,1.05-1.39,1.9-2.44,2.44-.58.3-1.27.45-2.22.53-.96.08-2.17.08-3.8.08H9.31c-1.63,0-2.84,0-3.8-.08-.96-.08-1.64-.23-2.22-.53-1.05-.53-1.9-1.39-2.44-2.44-.3-.58-.45-1.27-.53-2.22-.08-.96-.08-2.17-.08-3.8V9.31c0-1.63,0-2.84.08-3.8.08-.96.23-1.64.53-2.22.53-1.05,1.39-1.9,2.44-2.44.58-.3,1.27-.45,2.22-.53.96-.08,2.17-.08,3.8-.08Z"/>
      </g>
      <path class="st7" d="M9.31,63.84h57.35c3.26,0,4.89,0,6.13-.63,1.09-.56,1.98-1.45,2.54-2.54.63-1.24.63-2.87.63-6.13V15.29c0-3.26,0-4.89-.63-6.13-.56-1.09-1.45-1.99-2.54-2.54-1.24-.63-2.87-.63-6.13-.63h-31.46c-1.74,0-3.96-.16-6.14-1.82-2.18-1.66-.32-.24-2.63-2.02-2.3-1.78-3.48-2.14-5.5-2.14h-11.62c-3.26,0-4.89,0-6.13.63-1.09.56-1.99,1.45-2.54,2.54-.63,1.24-.63,2.87-.63,6.13v45.22c0,3.26,0,4.89.63,6.13.56,1.09,1.45,1.99,2.54,2.54,1.24.63,2.87.63,6.13.63Z"/>
      <path class="st4" d="M9.31,63.84h57.35c3.26,0,4.89,0,6.13-.63,1.09-.56,1.98-1.45,2.54-2.54.63-1.24.63-2.87.63-6.13V15.29c0-3.26,0-4.89-.63-6.13-.56-1.09-1.45-1.99-2.54-2.54-1.24-.63-2.87-.63-6.13-.63h-31.46c-1.74,0-3.96-.16-6.14-1.82-2.18-1.66-.32-.24-2.63-2.02-2.3-1.78-3.48-2.14-5.5-2.14h-11.62c-3.26,0-4.89,0-6.13.63-1.09.56-1.99,1.45-2.54,2.54-.63,1.24-.63,2.87-.63,6.13v45.22c0,3.26,0,4.89.63,6.13.56,1.09,1.45,1.99,2.54,2.54,1.24.63,2.87.63,6.13.63Z"/>
      <path class="st5" d="M9.31.24h11.62c.99,0,1.76.09,2.55.39.8.3,1.65.82,2.79,1.7,2.29,1.77.45.37,2.63,2.02,2.25,1.71,4.53,1.87,6.29,1.87h31.46c1.63,0,2.84,0,3.8.08.96.08,1.64.23,2.22.53,1.05.53,1.9,1.39,2.44,2.44.3.58.45,1.27.53,2.22.08.96.08,2.17.08,3.8v39.24c0,1.63,0,2.84-.08,3.8-.08.96-.23,1.64-.53,2.22-.53,1.05-1.39,1.9-2.44,2.44-.58.3-1.27.45-2.22.53-.96.08-2.17.08-3.8.08H9.31c-1.63,0-2.84,0-3.8-.08-.96-.08-1.64-.23-2.22-.53-1.05-.53-1.9-1.39-2.44-2.44-.3-.58-.45-1.27-.53-2.22-.08-.96-.08-2.17-.08-3.8V9.31c0-1.63,0-2.84.08-3.8.08-.96.23-1.64.53-2.22.53-1.05,1.39-1.9,2.44-2.44.58-.3,1.27-.45,2.22-.53.96-.08,2.17-.08,3.8-.08Z"/>
      <rect class="st1" x="2.89" y="10.66" width="69.83" height="49.05" rx="2.89" ry="2.89"/>
      <g>
        <rect class="st0" y="17.2" width="76.18" height="46.86" rx="5.82" ry="5.82"/>
        <rect class="st4" y="17.2" width="76.18" height="46.86" rx="5.82" ry="5.82"/>
      </g>
    </g>
  </g>
</svg>