<svg width="177" height="192" viewBox="0 0 177 192" fill="none" xmlns="http://www.w3.org/2000/svg">
<path d="M144.257 84.691C142.651 84.5375 141.378 83.2178 141.385 81.6048L141.565 34.7711C141.565 27.2198 138.033 19.9946 133.515 17.5611C129.227 15.2867 120.606 13.1827 114.304 15.6031C112.358 16.3505 109.825 15.762 108.881 13.9036C105.221 6.69965 99.2389 0 87.8712 0C77.4885 0 70.4783 7.18348 66.8604 14.157C66.1525 15.5215 64.6016 16.2654 63.1003 15.935C56.7297 14.5331 48.8272 14.3871 43.6511 16.7583C36.8332 19.8692 33.9583 26.8936 33.9583 32.1118V81.5192C33.9583 83.1761 32.6127 84.5073 30.9605 84.6317C16.7219 85.7039 4.43824 94.3595 0.14205 107.049C-0.434913 108.753 0.818271 110.449 2.58907 110.767C18.2502 113.579 26.9614 124.963 27.9345 138.783C30.0702 169.565 57.9165 191.768 90.226 191.065C121.714 190.388 146.302 166.981 148.109 136.952C148.903 123.442 159.484 114.625 173.746 111.525C175.396 111.167 176.54 109.584 176.077 107.96C172.122 94.0621 159.461 86.1446 144.257 84.691ZM138.608 134.744C136.637 161.512 117.114 181.156 89.7605 182.159C63.9677 183.087 40.0094 165.401 38.038 140.012C36.8822 124.91 29.1084 112.85 15.3305 106.294C13.4766 105.412 12.8235 103.005 14.2875 101.566C21.3822 94.5903 29.4688 92.8445 40.5657 93.7018C42.3554 93.8401 43.9213 92.4508 43.9173 90.6558L43.788 33.2658C43.788 26.5424 47.2106 22.7291 53.9463 22.7291C61.4761 22.7291 65.5832 26.7933 65.6379 31.3843L66.238 91.4086C66.2545 93.0536 67.5927 94.3786 69.2379 94.3786H72.0669C73.7199 94.3786 75.0614 93.0415 75.0669 91.3886L75.3034 20.3207C75.3308 14.4754 82.532 8.5297 87.9808 8.5297C94.826 8.5297 100.138 14.9019 100.165 19.8943L100.323 92.1628C100.327 93.8171 101.669 95.1563 103.323 95.1563H106.933C108.593 95.1563 109.937 93.809 109.933 92.1495L109.803 34.7209C109.803 29.578 113.281 23.0804 120.153 23.0804C127.929 23.0804 132.146 28.4992 132.201 32.6386L132.899 90.8339C132.921 92.6457 134.535 94.0164 136.34 93.8523C148.183 92.7758 156.518 95.5428 162.108 101.992C163.334 103.406 162.671 105.527 160.984 106.335C148.499 112.318 139.592 121.317 138.608 134.744Z" fill="#191616"/>
</svg>
