<svg width="169" height="189" viewBox="0 0 169 189" fill="none" xmlns="http://www.w3.org/2000/svg">
<path d="M114.004 15.2891C104.209 27.3293 97.4825 43.4021 97.6211 59.1074C97.6048 75.5395 105.262 91.4574 117.515 102.73C126.869 110.306 135.873 119.678 140.281 133.236C144.942 147.918 145.51 161.814 138.257 177.91C139.899 175.87 142.647 172.451 143.735 170.897C155.155 154.612 164.82 128.589 152.739 104.043C146.552 90.2803 138.528 76.3784 136.364 60.5098C135.091 52.0693 135.173 43.4489 136.658 34.9922C138.177 26.4619 141.14 18.2332 145.05 10.6416L167.449 24.0615H167.44C135.033 69.4557 183.122 100.01 163.4 146.318C157.38 160.656 147.318 172.188 136.324 181.963C136.305 181.987 136.288 182.013 136.267 182.035C136.264 182.031 136.261 182.026 136.259 182.021C136.258 182.023 136.258 182.025 136.257 182.026C136.257 182.024 136.257 182.022 136.258 182.02C127.488 165.603 109.534 153.074 91.043 156.763C74.4397 159.816 61.3788 172.958 56.5137 188.655L32.875 177.592C56.6301 136.273 112.177 128.765 133.556 171.293C134.3 172.775 135.781 176.316 136.29 178.431C136.307 178.287 136.329 178.134 136.362 177.969C139.154 164.337 138.428 148.762 132.714 136.763C112.364 93.0255 53.1661 95.0986 31.2646 135.342L9.4043 121.057C18.2203 108.878 29.8768 99.9881 42.6191 94.5107C16.7262 80.6827 1.57549 51.3205 0 22.293H26.1133C25.4929 37.672 29.7213 54.5861 39.2148 66.8877C47.4921 77.8586 59.9083 85.1561 73.4424 87.9805C78.8299 87.9315 84.185 88.4452 89.3848 89.5391C72.1203 62.4871 76.1932 26.5132 92.8291 0C92.8291 0 113.933 15.2296 114.004 15.2891ZM32.875 177.592C32.8745 177.593 32.8745 177.594 32.874 177.595L32.8652 177.587L32.875 177.592Z" fill="#191616"/>
</svg>
