<svg width="370" height="184" viewBox="0 0 370 184" fill="none" xmlns="http://www.w3.org/2000/svg">
<path d="M359.142 115.991L344.172 135.829L329.202 115.991L318.733 123.895L335.954 146.699L318.733 169.503L329.202 177.406L369.593 123.895L359.142 115.991Z" fill="#203021"/>
<path d="M243.08 143.811V118.948H229.977V143.741L215.862 117.884L204.364 124.147L236.52 183.12L268.78 124.165L257.282 117.866L243.08 143.811Z" fill="#203021"/>
<path d="M111.811 162.51H95.6201V175.63H120.256L138 136.53L153.929 171.774L165.881 166.366L138.017 104.741L111.811 162.51Z" fill="#203021"/>
<path d="M0 121.615V134.736H28.2125L35.9068 171.759L48.7481 169.107L38.8903 121.615H0Z" fill="#203021"/>
<path d="M364.767 4.22949L324.358 57.7408" stroke="#203021" stroke-width="3.48949" stroke-miterlimit="10"/>
<path d="M324.358 4.22949L344.737 31.2207" stroke="#203021" stroke-width="3.48949" stroke-miterlimit="10"/>
<path d="M95.6201 52.681H116.016L138 4.22949L159.896 52.681" stroke="#203021" stroke-width="3.48949" stroke-miterlimit="10"/>
<path d="M209.989 6.28809L236.405 54.7395L262.907 6.28809" stroke="#203021" stroke-width="3.48949" stroke-miterlimit="10"/>
<path d="M236.406 54.7398V4.22949" stroke="#203021" stroke-width="3.48949" stroke-miterlimit="10"/>
<path d="M42.31 53.9698L33.5514 11.7295H0" stroke="#203021" stroke-width="3.48949" stroke-miterlimit="10"/>
</svg>
