<svg width="510" height="195" viewBox="0 0 510 195" fill="none" xmlns="http://www.w3.org/2000/svg">
<path d="M319.508 11.1639H363.739L387.86 61.8831L409.477 0H454.207L441.641 85.5425L478.839 0H510V195H321.015V167.595L430.584 149.976L318 138.901V102.657H368.374L319.508 11.1639Z" fill="#203021"/>
<path d="M33.9399 183.402L58.3627 194.834C63.3872 178.622 76.8757 165.05 94.0231 161.897C113.126 158.086 131.673 171.035 140.727 187.997C141.385 187.297 141.048 185.99 140.896 184.979C140.601 182.981 138.788 178.614 137.928 176.903C115.849 132.98 58.4807 140.736 33.9484 183.411L33.9399 183.402Z" fill="#203021"/>
<path d="M144.876 137.6C140.323 123.597 131.024 113.919 121.363 106.096C108.709 94.4536 100.802 78.0145 100.819 61.0442C100.675 44.8242 107.622 28.2248 117.738 15.79C117.738 15.7816 95.8699 0 95.8699 0C78.6889 27.3818 74.4821 64.5343 92.3123 92.4725C86.9422 91.3428 81.4119 90.8117 75.8479 90.8623C61.8703 87.9454 49.0478 80.4087 40.4994 69.0783C30.6949 56.3738 26.328 38.9061 26.9687 23.0233H0C1.62706 53.0016 17.2738 83.3256 44.0149 97.6066C30.8551 103.263 18.8165 112.444 9.71176 125.022L32.2882 139.775C54.9069 98.2136 116.044 96.0723 137.061 141.242C142.962 153.635 143.712 169.72 140.829 183.799C140.433 185.746 141.31 186.075 140.719 187.988C150.347 169.526 150.094 154.039 144.876 137.6Z" fill="#203021"/>
<path d="M172.932 24.8527L149.799 10.9932C145.761 18.8334 142.701 27.3312 141.132 36.1409C139.598 44.8747 139.514 53.7772 140.829 62.4942C143.063 78.8828 151.35 93.2397 157.74 107.453C170.217 132.803 160.236 159.679 148.442 176.498C147.059 178.471 143.088 183.36 141.832 184.928C141.2 186.049 140.635 187.71 140.719 187.988C152.1 177.88 162.52 165.951 168.75 151.114C189.118 103.289 139.455 71.7338 172.923 24.8527H172.932Z" fill="#203021"/>
<path d="M241.156 97H240.156L240.156 99H241.156L241.156 98L241.156 97ZM268.863 98.7071C269.254 98.3166 269.254 97.6834 268.863 97.2929L262.499 90.9289C262.109 90.5384 261.476 90.5384 261.085 90.9289C260.695 91.3195 260.695 91.9526 261.085 92.3431L266.742 98L261.085 103.657C260.695 104.047 260.695 104.681 261.085 105.071C261.476 105.462 262.109 105.462 262.499 105.071L268.863 98.7071ZM241.156 98L241.156 99H268.156L268.156 98L268.156 97H241.156L241.156 98Z" fill="black"/>
</svg>
