<svg width="870" height="341" viewBox="0 0 870 341" fill="none" xmlns="http://www.w3.org/2000/svg">
<path d="M414.641 246.724L414.705 251.836C414.781 257.898 414.122 267.904 410.351 279.175C409.562 268.812 405.769 260.243 402.322 254.429L399.707 250.031L390.91 255.25L393.525 259.649C397.102 265.678 401.155 275.274 400.117 286.718C399.112 297.816 393.407 308.308 384.502 316.456C376.83 322.691 369.395 326.473 364.381 328.581L359.702 330.31L359.778 330.515L359.583 330.601L361.518 335.226L363.258 339.916L363.463 339.841L363.549 340.035L368.218 338.079C376.884 334.848 384.6 330.137 390.986 324.377C397.805 318.834 404.796 311.572 410.74 302.149C422.767 283.087 425.112 264.198 424.96 251.706L424.896 246.584L414.662 246.703L414.641 246.724Z" fill="#203021"/>
<path d="M373.804 209.346L378.634 207.661L375.263 198L370.433 199.686C359.594 203.468 332.536 215.441 315.267 244.952C313.506 247.967 311.939 250.982 310.578 253.986L310.307 253.878L308.438 258.644C300.971 277.663 290.511 293.72 277.338 306.374C271.589 311.896 265.581 316.5 259.962 319.698C249.977 325.371 238.912 328.829 227.09 329.953L222 330.439L222.973 340.63L228.062 340.143C241.332 338.879 253.759 335 265.019 328.603C271.362 324.993 278.073 319.86 284.427 313.766C290.651 307.79 296.314 301.112 301.392 293.796C301.036 305.542 302.657 315.062 303.932 320.563L305.088 325.544L315.062 323.232L313.906 318.25C311.377 307.347 307.303 278.894 324.118 250.15C339.668 223.567 364.057 212.783 373.815 209.368L373.804 209.346Z" fill="#203021"/>
<path d="M383.821 284.146L385.247 279.229L375.414 276.387L373.988 281.304C372.572 286.188 369.525 293.277 362.998 299.361C354.763 307.044 345.114 309.259 338.911 309.832C338.652 307.952 338.425 305.737 338.284 303.262L339.127 298.497C339.192 298.118 340.867 289.16 348.885 285.4C350.679 284.557 352.591 284.06 354.569 283.908L359.669 283.519L358.881 273.318L353.78 273.707C350.571 273.956 347.469 274.766 344.552 276.139C343.298 276.733 342.142 277.392 341.072 278.106C343.212 271.092 346.778 264.004 352.516 257.682C357.162 252.56 362.868 248.389 369.46 245.287L374.085 243.105L369.719 233.844L365.094 236.027C357.281 239.711 350.495 244.682 344.93 250.799C323.35 274.572 327.737 306.806 329.596 316.121L330.407 320.184L334.545 320.238C334.729 320.238 334.913 320.238 335.107 320.238C341.71 320.238 357.141 318.812 369.978 306.839C378.213 299.167 382.049 290.262 383.81 284.135L383.821 284.146Z" fill="#203021"/>
<path d="M233.249 276.927C241.462 270.627 251.079 266.121 261.064 263.906C266.716 262.652 272.475 262.101 278.267 262.252C273.599 274.031 264.306 290.078 246.778 298.269C242.823 300.117 238.587 301.479 234.2 302.332L229.175 303.305L231.11 313.354L236.134 312.382C241.354 311.377 246.389 309.745 251.112 307.541C275.501 296.14 286.08 272.345 290.208 259.173L292.056 253.283L285.929 252.559C276.83 251.479 267.721 251.943 258.838 253.921C247.405 256.46 236.405 261.615 227.014 268.812L222.951 271.924L229.175 280.05L233.238 276.938L233.249 276.927Z" fill="#203021"/>
<path fill-rule="evenodd" clip-rule="evenodd" d="M582.521 8.4082H626.676V124.985H560V8.4082H581.977L582.521 6V8.4082ZM567.556 117.431H577.983C575.686 104.802 575.799 93.0732 578.343 82.4316C575.277 81.354 572.502 79.8007 570.06 77.7822L569.529 77.333C568.821 76.7162 568.165 76.0766 567.556 75.4219V117.431ZM619.132 89.9551C615.647 88.5019 605.257 85.0249 595.508 90.3799L595.014 90.6592C589.482 93.8809 586.454 98.6549 584.886 102.116L583.991 104.088C584.204 108.388 584.759 112.835 585.653 117.431H619.132V89.9551ZM619.121 53.3525C616.93 56.8276 614.112 60.2835 610.479 63.4375C604.5 68.6399 597.133 72.2568 589.161 73.915C588.797 74.7371 588.44 75.5764 588.093 76.459L587.844 77.0928H587.841C586.403 80.9176 585.355 84.9512 584.702 89.1768C586.496 87.3596 588.641 85.6258 591.209 84.1328C601.921 77.9024 613.13 80.0018 619.121 81.9346V53.3525ZM567.556 56.9668C567.962 61.0858 569.456 67.2674 574.495 71.6533C576.241 73.1726 578.254 74.3601 580.512 75.2002C580.688 74.7085 580.87 74.2124 581.065 73.7197C583.096 68.5074 585.422 64.4705 587.853 60.2686C590.493 55.6886 593.181 51.0105 595.814 44.3369C593.323 44.114 591.01 43.423 588.984 42.249V42.248C581.295 37.7883 578.152 27.1072 580.29 15.9629H567.556V56.9668ZM610.32 16.1709C609.361 25.4313 607.334 34.5301 604.282 43.2061C601.399 51.408 598.344 57.1089 595.559 61.9893L594.383 64.0361C594.271 64.2297 594.159 64.4225 594.048 64.6143C597.689 63.2069 601.715 61.0501 605.524 57.7354L605.525 57.7344C616.468 48.2307 618.679 35.3831 619.121 30.1338V15.9521H610.344L610.32 16.1709ZM588.01 15.9521C586.975 20.2397 586.924 24.4031 587.721 27.8652C588.565 31.5345 590.331 34.3145 592.764 35.7305C594.241 36.5858 596.173 36.9824 598.434 36.8428C600.529 30.0757 601.983 23.0642 602.758 15.9521H588.01Z" fill="#203021"/>
<path fill-rule="evenodd" clip-rule="evenodd" d="M814.706 0.00544947C833.932 -0.333909 849.676 15.2204 849.676 34.3883V96.9498C849.676 116.126 833.932 131.681 814.706 131.333C795.882 130.993 781 115.186 781 96.3531V34.9937C781 16.3246 795.615 0.632749 814.215 0.0298635V0.013262L814.706 0.00544947ZM795.099 90.4039C794.41 88.8125 792.036 89.3116 792.027 91.0406C792.027 92.2189 792.019 93.3974 792.011 94.5758V94.6959C792.183 97.5259 792.896 101.844 795.52 106.249C796.251 107.479 802.204 117.173 813.137 118.299C814.1 118.403 815.021 118.42 815.872 118.394C817.463 118.342 818.022 116.269 816.672 115.426V115.435C812.818 113.052 808.148 109.5 803.761 104.356C799.666 99.5563 796.931 94.6617 795.099 90.4039ZM795.003 61.1656C793.919 60.7874 792.785 61.5951 792.836 62.7388C793.765 83.4263 809.532 106.093 823.415 113.164C824.447 113.688 825.677 112.982 825.746 111.83C826.529 98.4192 814.942 68.2191 795.003 61.1656ZM838.306 62.2935C838.306 61.0549 837.343 60.3584 836.164 60.7369H836.155C827.993 63.326 821.765 69.3721 819.528 71.7808C818.995 72.3572 818.969 73.2174 819.442 73.8453C828.087 85.3201 830.461 98.1377 830.813 107.488C830.874 109.027 832.843 109.637 833.764 108.399C836.662 104.477 838.306 99.6685 838.306 94.6451V62.2935ZM812.164 44.5474C811.356 44.2035 810.427 44.3755 809.808 44.9947L802.607 52.2457C801.971 52.8821 801.79 53.8716 802.203 54.6715C803.149 56.5465 804.784 58.0088 806.779 58.7056L806.788 58.7232C808.818 59.4371 810.676 59.1791 812.035 58.7232C812.921 58.4308 813.523 57.6218 813.515 56.6842L813.472 46.4918C813.472 45.6489 812.973 44.8918 812.19 44.5562C812.19 44.5562 812.173 44.556 812.164 44.5474ZM820.688 45.0191C820.095 44.4342 819.209 44.2528 818.443 44.5797L818.436 44.5885C818.367 44.6143 818.306 44.6398 818.237 44.6656C817.455 44.9753 816.947 45.7416 816.956 46.5846L816.999 56.7349C816.999 57.612 817.558 58.4118 818.4 58.6871C820.413 59.3494 822.615 59.2371 824.542 58.3082C826.512 57.362 827.648 55.8143 828.293 54.524C828.689 53.7327 828.516 52.7693 827.889 52.15L820.688 45.0191ZM795.545 38.94C794.668 38.9401 793.868 39.4993 793.593 40.3336C792.93 42.3377 793.042 44.5484 793.971 46.4752C794.917 48.4364 796.457 49.5722 797.756 50.2174C798.547 50.613 799.511 50.4409 800.139 49.8131L807.433 42.4498C808.018 41.8563 808.19 40.97 807.872 40.1959H807.863C807.863 40.1949 807.863 40.1789 807.854 40.1705C807.536 39.3963 806.779 38.8971 805.944 38.8971L795.545 38.94ZM824.748 38.8189C823.922 38.8189 823.157 39.318 822.855 40.0836C822.821 40.1696 822.786 40.2642 822.743 40.3502C822.408 41.1241 822.589 42.0272 823.19 42.6207L830.339 49.7008C830.967 50.3199 831.913 50.4916 832.704 50.0963C834.597 49.1501 836.077 47.5154 836.773 45.5025C837.504 43.4211 837.212 41.5116 836.739 40.1353C836.455 39.3096 835.655 38.776 834.786 38.776L824.748 38.8189ZM815.347 32.5133C812.809 32.5134 810.745 34.569 810.745 37.1148L810.736 37.1236C810.736 39.661 812.792 41.7259 815.338 41.7262C815.897 41.7262 816.431 41.6224 816.93 41.4332C816.931 41.4332 816.982 41.4329 817.016 41.399C818.142 40.9603 819.046 40.0917 819.536 38.9908C819.571 38.9392 819.587 38.8871 819.604 38.8355C819.82 38.3022 819.94 37.7256 819.94 37.1148C819.94 36.5044 819.811 35.9026 819.588 35.3609C819.588 35.3609 819.588 35.3519 819.588 35.3433C819.588 35.3261 819.57 35.3086 819.562 35.2828C819.553 35.2571 819.544 35.2311 819.527 35.1969C819.028 34.1046 818.117 33.2441 816.99 32.814C816.99 32.814 816.939 32.7802 816.904 32.7799C816.414 32.6078 815.897 32.5133 815.347 32.5133ZM800.019 24.5308C799.382 23.9029 798.41 23.7301 797.618 24.1344C795.734 25.0891 794.264 26.724 793.567 28.7281C792.853 30.7495 793.12 32.6251 793.567 33.9928C793.851 34.8614 794.66 35.4547 795.571 35.4547V35.4635L805.902 35.4205C806.754 35.4204 807.52 34.9042 807.838 34.1129C808.156 33.3302 807.975 32.4271 807.373 31.8336L800.019 24.5308ZM832.603 24.0221C831.803 23.6264 830.839 23.7988 830.22 24.4351L830.211 24.4263L829.127 25.5367L823.148 31.5582C822.555 32.1603 822.375 33.0635 822.728 33.8375C822.762 33.9234 822.805 34.0094 822.839 34.0953C823.149 34.8609 823.914 35.3424 824.74 35.3424L834.805 35.2994C835.682 35.2993 836.482 34.7401 836.757 33.9058C837.419 31.9018 837.308 29.6913 836.379 27.7818C835.441 25.812 833.893 24.6672 832.603 24.0221ZM811.915 15.5338C809.919 14.8886 807.725 15.0011 805.824 15.9215C803.872 16.859 802.737 18.3813 802.092 19.6715C801.688 20.4886 801.859 21.4695 802.504 22.106L803.579 23.1724H803.588L809.747 29.2887C810.366 29.9079 811.296 30.071 812.096 29.7183C812.104 29.7183 812.113 29.718 812.121 29.7096C812.895 29.3741 813.394 28.609 813.395 27.7662L813.352 17.5387C813.352 16.6355 812.775 15.8177 811.915 15.5338ZM823.562 15.5074C821.48 14.7764 819.571 15.0686 818.194 15.5416C817.369 15.8254 816.835 16.6259 816.835 17.4947L816.878 27.6275C816.878 28.4705 817.394 29.2356 818.186 29.5367L818.177 29.5455C818.245 29.5712 818.314 29.5969 818.383 29.6226C819.148 29.9409 820.035 29.7523 820.62 29.1588L827.768 21.9498C828.387 21.3218 828.56 20.3671 828.164 19.5758C827.209 17.6834 825.574 16.2127 823.562 15.5074Z" fill="#203021"/>
<path d="M77.7452 94.6567C73.3579 92.8197 60.0124 88.3568 47.5637 95.5969C40.583 99.66 36.7901 105.657 34.8234 109.98C34.0237 111.741 33.6779 113.665 33.8076 115.588C34.0993 119.651 34.618 123.822 35.4069 128.091L35.5041 128.599C38.9081 129.82 42.5497 130.511 46.3751 130.511C64.2267 130.511 78.7393 115.988 78.7393 98.1471V96.1588C78.7393 95.4996 78.3503 94.9053 77.7344 94.6567H77.7452Z" fill="#203021"/>
<path d="M44.8947 32.8348C46.9695 34.0342 49.5845 34.5529 52.5238 34.3692C53.2154 34.326 53.8205 33.8289 54.0259 33.1698C56.6085 24.8166 58.3807 16.1502 59.2884 7.35399L59.4505 5.53856C59.5262 4.73891 59.1047 3.97168 58.3807 3.62589C54.4905 1.75644 51.2379 1 46.3751 1C44.6245 1 42.9064 1.15128 41.2206 1.42144C40.6263 1.51869 40.14 1.95094 39.9563 2.52366L39.3836 4.26345C35.3637 16.3879 37.7303 28.6636 44.9055 32.8239L44.8947 32.8348Z" fill="#203021"/>
<path d="M25.9412 123.184C27.0866 124.124 28.7832 123.184 28.5995 121.704C27.0758 109.471 27.5405 98.0277 30.0475 87.5242C30.242 86.7137 29.8097 85.8816 29.0317 85.6007C25.3036 84.2931 21.9429 82.3805 19.0361 79.8519C18.2472 79.1603 17.5124 78.4471 16.8316 77.7122C15.8267 76.6316 14.0112 77.3557 14.0112 78.8361V98.1249C14.0112 108.218 18.6687 117.23 25.9412 123.163V123.184Z" fill="#203021"/>
<path d="M14.0108 56.9766C14.0108 57.0306 14.0108 57.0954 14.0108 57.1495C14.5295 62.358 16.4422 69.9331 22.8286 75.509C25.0546 77.4541 27.6265 78.9454 30.4901 80.0043C31.3438 80.3177 32.2947 79.8639 32.5973 79.0102C32.8026 78.4591 33.0079 77.908 33.2132 77.3569C35.5906 71.273 38.3245 66.54 41.2098 61.5367C44.6353 55.6042 48.1581 49.4339 51.5944 40.2271C51.5404 40.2271 51.4755 40.2271 51.4215 40.2271C47.8987 40.2271 44.6785 39.4274 41.977 37.8498C33.3429 32.8357 29.7229 20.3763 32.6081 7.12803C32.9107 5.73405 31.4194 4.65345 30.1767 5.36665C20.5161 10.975 14 21.4245 14 33.376V49.2934H14.0216L14 49.7905V56.9766H14.0108Z" fill="#203021"/>
<path d="M66.7015 8.28321C66.0532 7.71048 65.0266 8.15353 64.9293 9.00721C63.611 20.7318 61.3309 30.1331 57.9162 39.8262C54.0368 50.87 49.8873 58.0669 46.2348 64.4101C46.1159 64.6154 45.9971 64.8207 45.8782 65.026C45.111 66.3552 46.4509 67.922 47.8773 67.3709C52.3402 65.642 57.2786 62.9944 61.9685 58.9206C72.191 50.0379 76.2541 38.7996 77.8642 30.9436L78.2857 28.8904V28.2961C77.0646 20.4833 71.2725 12.2923 66.7015 8.29401V8.28321Z" fill="#203021"/>
<path d="M78.7504 52.5662C78.7504 50.9345 76.6216 50.3078 75.7463 51.691C73.2068 55.6892 69.965 59.6658 65.7831 63.2967C58.7807 69.3805 50.1358 73.5949 40.7669 75.4968L40.2807 75.594C39.708 76.8367 39.1568 78.1118 38.6381 79.4626C36.7363 84.3362 35.3855 89.4907 34.5534 94.8937C34.3157 96.4606 36.2284 97.3899 37.3414 96.2661C39.3622 94.2237 41.7827 92.2678 44.6679 90.5929C56.8788 83.4933 69.7057 85.8706 76.6324 88.0967C77.6806 88.4316 78.7612 87.6428 78.7612 86.5406V52.577L78.7504 52.5662Z" fill="#203021"/>
<path d="M360.222 58.4882C358.432 55.6279 355.66 53.2533 352.219 51.5911C353.212 47.8349 353.675 44.1434 353.708 40.8838C353.783 32.9396 351.561 26.4634 347.614 23.0958C344.81 20.7104 341.747 19.6634 338.673 20.1276C337.799 12.7663 330.983 0.752939 322.505 0.0405576C318.666 -0.272458 312.852 1.07675 306.877 9.38787C302.078 16.0691 300.622 24.8444 302.488 32.3676C298.022 35.5301 290.235 42.5676 288.251 54.1384C288.165 54.6457 286.795 63.0755 289.966 71.732C287.194 75.7149 280.054 87.9657 284.336 103.39C289.092 120.53 303.857 127.017 306.769 128.15L306.942 128.215L307.061 128.798L307.967 128.604L310.458 129.564L310.792 128.701C314.718 130.244 318.849 131 322.948 131C331.684 131 340.258 127.589 346.363 121.167C354.29 112.834 357.03 100.627 353.697 89.4444C362.897 79.892 365.679 67.1987 360.211 58.4666L360.222 58.4882ZM339.859 27.9422C340.334 27.8558 341.294 28.1149 342.48 29.1187C344.044 30.4571 345.856 34.3104 345.791 40.7974C345.716 48.4177 342.868 58.8336 335.081 65.2235C331.792 67.9219 328.125 69.4546 324.587 70.2965C323.972 70.4152 323.379 70.5339 322.807 70.6635C322.656 70.685 322.505 70.7282 322.354 70.7498C326 64.4571 329.095 57.8622 331.587 51.0622C331.878 50.2958 332.169 49.4971 332.46 48.6552C333.291 46.2806 334.046 43.8844 334.725 41.4558C335.243 39.9987 335.664 38.1854 336.171 35.7352C336.171 35.7352 336.171 35.7352 336.171 35.7136C336.44 34.5263 336.688 33.339 336.926 32.1409C337.465 30.4139 338.694 28.1364 339.838 27.9206L339.859 27.9422ZM313.295 14.0183C317.026 8.82659 319.938 7.91993 321.502 7.91993C321.621 7.91993 321.729 7.91993 321.826 7.93072C325.989 8.28691 329.947 15.3891 330.594 21.2177C330.292 24.0349 329.883 26.8412 329.365 29.6152C329.3 29.9174 329.246 30.2196 329.182 30.5111C329.182 30.5327 329.171 30.5542 329.16 30.5758L329.106 30.8025C328.545 33.6304 327.866 36.4476 327.1 39.2323C326.971 39.5022 326.841 39.6749 326.712 39.7936C325.471 40.9809 322.948 41.2507 319.755 40.5384C316.368 39.7828 314.114 37.6241 313.079 36.4044C312.874 36.1669 312.691 35.8971 312.496 35.6381L312.54 35.6164L310.738 32.3783C308.581 26.7656 309.433 19.372 313.284 14.0183H313.295ZM296.049 55.4876C297.386 47.6622 302.272 42.5352 305.756 39.8044C306.165 40.4088 306.608 40.9917 307.082 41.553C308.765 43.5282 312.432 47.0254 318.083 48.2774C319.777 48.6552 321.405 48.8387 322.937 48.8387C323.304 48.8387 323.649 48.8171 324.005 48.7955C323.983 48.8711 323.951 48.9358 323.918 49.0114C321.405 55.4768 319.043 59.3517 316.746 63.1187C314.772 66.346 312.745 69.6705 310.728 74.3981L307.805 78.8019L309.002 78.8451C308.97 78.9422 308.927 79.0394 308.894 79.1473L308.732 79.6006C308.646 79.8381 308.56 80.0755 308.484 80.3238C306.316 79.4927 304.364 78.3377 302.682 76.8698C301.226 75.6069 300.072 74.1822 299.155 72.7035L299.349 72.4444L298.702 71.9479C294.571 64.5758 295.973 55.9301 296.049 55.4768V55.4876ZM291.961 101.285C289.416 92.132 292.101 84.2635 294.431 79.6977C295.326 80.7987 296.34 81.8565 297.483 82.8495C299.996 85.0406 302.897 86.7244 306.122 87.8902C304.256 95.0787 302.995 104.707 305.076 118.415C300.697 115.662 294.485 110.33 291.972 101.285H291.961ZM340.636 115.738C333.841 122.883 322.969 125.053 313.597 121.329C312.766 117.001 312.292 113.104 312.076 109.553L313.025 107.686C314.718 104.35 317.878 99.6228 323.314 96.0609C331.997 90.3619 341.455 90.9663 346.136 91.7758C348.649 100.26 346.589 109.467 340.636 115.727V115.738ZM347.927 84.0476C341.768 82.8927 330.077 82.1587 318.968 89.4444C316.735 90.9124 314.664 92.6393 312.788 94.5714C313.047 93.0387 313.359 91.6032 313.694 90.2647L314.384 90.4374L315.355 86.6057C316.433 82.3422 318.148 79.9136 324.328 78.4565C325.062 78.327 325.795 78.1759 326.539 78.0032L330.077 77.3555L330.012 76.9778C333.431 75.7905 336.872 74.0095 340.086 71.3758C344.281 67.9435 347.333 63.6368 349.48 59.1035C351.745 60.3447 352.931 61.7911 353.503 62.6977C356.523 67.5333 355.153 76.6 347.916 84.0692L347.927 84.0476Z" fill="#203021"/>
<path d="M856.154 267.096C858.001 264.308 859.028 260.991 859.028 257.468C859.028 247.851 851.204 240.016 841.576 240.016C838.507 240.016 835.535 240.838 832.942 242.307C831.462 234.181 824.33 228 815.782 228C807.234 228 800.091 234.181 798.6 242.307C796.007 240.838 793.046 240.016 789.977 240.016C780.36 240.016 772.536 247.84 772.536 257.468C772.536 260.937 773.563 264.244 775.389 267.032C767.716 268.869 762 275.774 762 283.997C762 292.221 768.268 299.85 776.599 301.211L815.004 310.991C815.004 310.991 815.058 310.991 815.08 311.002C815.123 311.002 815.177 311.023 815.22 311.034C815.404 311.066 815.587 311.088 815.771 311.088C815.966 311.088 816.149 311.066 816.333 311.034C816.376 311.034 816.42 311.023 816.452 311.012C816.484 311.012 816.517 311.012 816.549 310.991L854.63 301.222C862.983 299.882 869.261 292.502 869.261 284.008C869.261 275.514 863.675 269.031 856.143 267.107L856.154 267.096ZM853.528 294.976C853.42 294.998 853.311 295.009 853.214 295.041L821.045 303.297C823.627 298.856 828.177 293.172 835.719 289.778C841.965 286.969 847.93 286.807 851.82 287.163C853.56 287.304 855.105 286.04 855.267 284.3C855.43 282.56 854.144 281.015 852.404 280.853C845.726 280.237 839.058 281.317 833.115 283.997C827.939 286.331 823.951 289.552 820.904 292.869C822.611 286.126 825.691 278.767 831.04 271.797C834.509 267.28 838.669 263.293 843.413 259.932C844.84 258.916 845.185 256.939 844.17 255.512C843.165 254.086 841.187 253.74 839.75 254.756C834.487 258.484 829.862 262.914 826.015 267.939C823.087 271.754 820.774 275.666 818.959 279.545V245.463C818.959 243.712 817.543 242.296 815.793 242.296C814.042 242.296 812.627 243.712 812.627 245.463V279.545C810.811 275.666 808.499 271.754 805.57 267.939C801.712 262.914 797.098 258.484 791.836 254.756C790.409 253.74 788.432 254.086 787.416 255.512C786.4 256.939 786.746 258.916 788.172 259.932C792.916 263.282 797.077 267.28 800.545 271.797C805.894 278.778 808.974 286.126 810.681 292.869C807.634 289.552 803.647 286.331 798.471 283.997C792.527 281.317 785.849 280.237 779.182 280.853C777.442 281.015 776.156 282.56 776.318 284.3C776.48 286.04 778.036 287.315 779.765 287.163C783.655 286.796 789.62 286.958 795.866 289.778C803.409 293.172 807.969 298.866 810.552 303.308L778.047 295.03C777.95 295.009 777.853 294.987 777.744 294.965C772.395 294.144 768.365 289.422 768.365 283.997C768.365 277.87 773.346 272.889 779.473 272.889C780.781 272.889 782.045 273.105 783.234 273.537C784.844 274.12 786.627 273.31 787.254 271.721C787.881 270.133 787.135 268.328 785.568 267.648C781.516 265.886 778.901 261.899 778.901 257.468C778.901 251.341 783.882 246.36 790.009 246.36C793.878 246.36 797.487 248.391 799.497 251.687C799.843 252.573 800.232 253.384 800.686 254.151C801.507 255.566 803.279 256.117 804.76 255.426C806.24 254.734 806.964 253.027 806.413 251.492C806.121 250.682 805.754 249.872 805.289 249.05C804.889 247.872 804.695 246.662 804.695 245.441C804.695 239.314 809.687 234.332 815.814 234.332C821.941 234.332 826.923 239.314 826.923 245.441C826.923 246.684 826.718 247.905 826.318 249.061C825.907 249.807 825.54 250.585 825.226 251.428C824.643 252.973 825.345 254.702 826.826 255.404C828.317 256.107 830.1 255.566 830.932 254.14C831.386 253.373 831.775 252.562 832.11 251.687C834.12 248.38 837.74 246.338 841.619 246.338C847.746 246.338 852.728 251.32 852.728 257.447C852.728 261.639 850.437 265.389 846.72 267.313C845.866 267.572 845.023 267.907 844.18 268.307C842.711 269.031 842.03 270.749 842.603 272.283C843.175 273.818 844.84 274.65 846.417 274.218C847.282 273.98 848.146 273.656 849.011 273.256C849.94 273.007 850.902 272.878 851.874 272.878C858.001 272.878 862.983 277.859 862.983 283.986C862.983 289.433 858.941 294.144 853.582 294.955L853.528 294.976Z" fill="#203021"/>
<path d="M631.895 242.073C630.171 228.767 626.379 215.731 620.636 203.333C620.506 203.041 620.151 202.922 619.871 203.052L613.276 206.165C612.996 206.295 612.878 206.641 613.007 206.922C618.384 218.531 621.929 230.713 623.545 243.165C626.357 264.859 623.028 284.186 617.737 299.913C617.543 300.497 616.681 300.4 616.627 299.784C616.164 294.757 615.043 287.796 614.149 282.673C613.427 278.554 613.255 274.36 613.686 270.199C614.505 262.243 614.171 254.288 612.673 246.473C609.365 229.091 601.047 216.315 594.507 208.543C594.302 208.305 593.947 208.273 593.699 208.489L588.16 213.245C587.923 213.451 587.891 213.796 588.096 214.045C593.968 221.039 601.424 232.496 604.387 248.072C604.635 249.348 604.84 250.634 605.012 251.91C605.098 252.547 604.226 252.807 603.935 252.234C595.153 234.615 583.667 222.163 574.692 214.294C574.455 214.088 574.099 214.121 573.884 214.359L569.121 219.893C568.917 220.131 568.938 220.487 569.175 220.693C577.914 228.356 589.195 240.668 597.491 258.265C597.75 258.817 597.082 259.325 596.608 258.946C594.981 257.606 593.354 256.287 591.705 254.99C584.217 249.078 576.394 243.414 568.421 238.171C568.152 237.998 567.796 238.074 567.624 238.333L563.637 244.451C563.465 244.711 563.54 245.067 563.799 245.24C571.557 250.353 579.185 255.866 586.48 261.627C589.949 264.362 593.375 267.194 596.737 270.102C602.114 274.739 605.669 281.138 606.855 288.153C607.695 293.136 608.158 297.903 608.352 302.378C608.374 302.983 607.566 303.21 607.286 302.68C602.588 293.828 595.907 284.499 586.383 276.09C577.569 268.307 567.43 262.286 556.235 258.201C555.933 258.093 555.599 258.244 555.491 258.547L553.035 265.432C552.927 265.724 553.078 266.048 553.38 266.156C563.572 269.885 572.796 275.366 580.812 282.435C596.963 296.703 604.182 313.9 607.393 325.812L609.753 334.578C609.882 335.076 610.561 335.151 610.809 334.708L615.162 326.742C625.376 308.02 636.582 278.133 631.906 242.073H631.895Z" fill="#203021"/>
<path d="M86.9386 261.484C84.2167 254.61 81.6352 248.123 82.6829 239.535C83.2122 235.182 84.7567 230.861 87.2518 226.691L77.3039 220.743C73.9664 226.303 71.9033 232.154 71.1689 238.134C69.7647 249.632 73.1563 258.187 76.1482 265.73C78.5245 271.721 80.5767 276.904 80.3931 283.196C80.3066 286.073 79.7018 288.993 78.6001 291.935C76.5802 282.324 71.1689 273.477 63.0788 267.637C59.7088 264.911 55.1831 260.224 52.7745 253.295C47.3739 237.703 57.2678 223.351 58.4127 221.767L49.0157 215C46.553 218.394 34.6609 236.41 41.8221 257.077C42.2433 258.295 42.7186 259.459 43.2155 260.579C42.9562 260.558 31.6474 259.146 25.588 254.987C11.9569 245.623 11.568 228.189 11.568 226.239H0C0 230.452 0.918097 252.067 19.0424 264.512C19.5069 264.835 19.9822 265.137 20.4574 265.439C13.9659 268.801 8.19808 273.811 3.95323 280.287L13.6527 286.612C22.9309 272.453 41.9409 267.702 55.1723 276.246C62.4091 280.912 66.9132 288.886 67.7881 297.323C64.591 294.381 60.4649 291.752 55.2371 290.416C40.2127 286.569 24.011 295.081 16.7202 310.63L27.2189 315.533C32.0795 305.178 42.8806 299.198 52.364 301.611C61.5882 303.971 65.6495 313.604 66.0815 314.703L69.3651 323L75.6189 316.621C86.1393 305.878 91.6479 294.758 91.9827 283.552C92.2419 274.878 89.5416 268.068 86.9278 261.484H86.9386Z" fill="#203021"/>
</svg>
