<svg width="432" height="175" viewBox="0 0 432 175" fill="none" xmlns="http://www.w3.org/2000/svg">
<path d="M13.5052 10.0373H101.891C102.559 10.0373 103.195 10.2612 103.729 10.709L155.043 53.7313C156.279 54.7761 157.984 54.6269 159.087 53.3955L204.918 1.04478C205.487 0.373134 206.289 0 207.125 0H301.895C304.068 0 305.572 2.46269 304.737 4.73881L282.841 64.1791C281.637 67.4627 285.147 70.3731 287.621 68.1343L360.997 0.783582C361.566 0.261194 362.234 0 362.97 0H428.925C430.629 0 432 1.52985 432 3.43284V171.567C432 173.47 430.629 175 428.925 175H9.86149C8.15662 175 6.78604 173.47 6.78604 171.567V153.619C6.78604 151.791 8.05633 150.299 9.66091 150.187L187.201 138.806C191.112 138.545 191.045 132.127 187.134 131.978L2.94174 124.739C1.30373 124.664 0 123.172 0 121.306V95.5224C0 93.6194 1.37057 92.0896 3.07544 92.0896H103.261C106.303 92.0896 107.473 87.7239 104.966 85.8209L11.8004 16.2687C9.29319 14.403 10.4632 10 13.5052 10V10.0373Z" fill="#203021"/>
</svg>
