<svg width="492" height="247" viewBox="0 0 492 247" fill="none" xmlns="http://www.w3.org/2000/svg">
<path d="M3.5076 13.1639H47.7386L71.8603 63.8831L93.4772 2H138.207L125.641 87.5425L162.839 2H194V197H5.01521V169.595L114.584 151.976L2 140.901V104.657H52.3742L3.5076 13.1639Z" fill="#EDE8E4" stroke="#203021" stroke-width="4" stroke-linecap="round" stroke-linejoin="round" stroke-dasharray="0.1 11"/>
<path d="M109.547 9L74.5204 55.1907L39.494 9L15 27.4031L55.2926 80.5L15 133.597L39.494 152L134 27.4031L109.547 9Z" fill="#203021"/>
<path d="M151.359 133.504L115.127 97.272L96.1453 116.254L132.276 152.384L74.1467 135.15L66.6182 160.935L199.141 200.293L159.96 67.644L134.125 75.1215L151.359 133.504Z" fill="#203021"/>
<path d="M301.508 13.1639H345.739L369.86 63.8831L391.477 2H436.207L423.641 87.5425L460.839 2H492V197H303.015V169.595L412.584 151.976L300 140.901V104.657H350.374L301.508 13.1639Z" fill="#203021"/>
</svg>
