<svg width="985" height="336" viewBox="0 0 985 336" fill="none" xmlns="http://www.w3.org/2000/svg">
<path d="M10.7229 27.4697H80.8995C81.4303 27.4697 81.9346 27.6288 82.3593 27.9469L123.101 58.5116C124.083 59.2538 125.437 59.1478 126.313 58.273L162.701 21.0811C163.153 20.604 163.79 20.3389 164.453 20.3389H239.699C241.424 20.3389 242.619 22.0885 241.955 23.7055L224.57 65.9341C223.615 68.2669 226.402 70.3345 228.366 68.744L286.625 20.8956C287.076 20.5244 287.607 20.3389 288.191 20.3389H340.558C341.912 20.3389 343 21.4257 343 22.7777V142.227C343 143.578 341.912 144.665 340.558 144.665H7.82984C6.47621 144.665 5.38799 143.578 5.38799 142.227V129.476C5.38799 128.177 6.39658 127.116 7.67059 127.037L148.634 118.952C151.74 118.766 151.687 114.207 148.581 114.101L2.33568 108.958C1.03513 108.905 0 107.845 0 106.519V88.2015C0 86.8496 1.08821 85.7627 2.44184 85.7627H81.9877C84.403 85.7627 85.332 82.6612 83.3413 81.3092L9.36926 31.8967C7.37862 30.5713 8.30759 27.4432 10.7229 27.4432V27.4697Z" fill="#F2FFD1"/>
<path d="M6.48085 216.473L15.9244 172.033H20.1215L10.678 216.473H6.48085ZM23.6594 203.202C23.4125 205.177 23.4948 206.865 23.9063 208.264C24.3178 209.621 24.9968 210.732 25.9432 211.597C26.8896 212.461 28.0623 213.099 29.4613 213.51C30.8604 213.88 32.4034 214.065 34.0905 214.065C36.0656 214.065 37.8144 213.819 39.3369 213.325C40.9006 212.831 42.2173 212.173 43.2872 211.35C44.3982 210.486 45.2828 209.498 45.9412 208.387C46.6407 207.276 47.1139 206.103 47.3608 204.869C47.7312 203.141 47.6283 201.742 47.0522 200.672C46.5173 199.602 45.6737 198.738 44.5216 198.079C43.4106 197.38 42.0939 196.824 40.5714 196.413C39.0489 196.001 37.4852 195.61 35.8805 195.24C34.2757 194.829 32.7121 194.355 31.1896 193.821C29.6671 193.286 28.3709 192.566 27.3011 191.66C26.2312 190.755 25.4494 189.603 24.9556 188.204C24.503 186.764 24.503 184.953 24.9556 182.772C25.2848 181.25 25.9226 179.768 26.869 178.328C27.8154 176.888 29.0293 175.612 30.5106 174.501C31.992 173.39 33.7408 172.506 35.757 171.847C37.8144 171.189 40.0776 170.86 42.5465 170.86C45.0565 170.86 47.1551 171.21 48.8422 171.909C50.5704 172.609 51.9283 173.576 52.9158 174.81C53.9034 176.003 54.5412 177.402 54.8292 179.007C55.1173 180.612 55.0555 182.32 54.6441 184.13H50.6321C51.0024 182.443 51.0024 180.982 50.6321 179.748C50.3029 178.513 49.7269 177.505 48.9039 176.723C48.0809 175.942 47.0316 175.366 45.756 174.995C44.5216 174.625 43.2049 174.44 41.8058 174.44C39.6661 174.44 37.7939 174.748 36.1891 175.366C34.6254 175.942 33.3087 176.703 32.2388 177.649C31.169 178.596 30.346 179.645 29.77 180.797C29.1939 181.949 28.8853 183.101 28.8441 184.254C28.7618 185.694 29.0704 186.846 29.77 187.71C30.5106 188.574 31.4776 189.294 32.6709 189.87C33.8642 190.405 35.2221 190.858 36.7446 191.228C38.2671 191.557 39.8101 191.928 41.3738 192.339C42.9374 192.71 44.4393 193.162 45.8795 193.697C47.3197 194.232 48.5336 194.952 49.5211 195.857C50.5087 196.763 51.2082 197.935 51.6197 199.376C52.0723 200.775 52.0723 202.544 51.6197 204.684C50.7556 208.799 48.657 211.987 45.324 214.251C41.991 216.514 37.7527 217.645 32.6092 217.645C30.3049 217.645 28.2269 217.337 26.3752 216.72C24.5236 216.143 23.0011 215.259 21.8078 214.065C20.6556 212.831 19.8738 211.329 19.4623 209.56C19.0508 207.749 19.092 205.63 19.5858 203.202H23.6594ZM53.6768 216.473L63.1203 172.033H67.3174L63.2437 191.105H89.5375L93.6111 172.033H97.8083L88.3647 216.473H84.1676L88.7968 194.685H62.5031L57.8739 216.473H53.6768ZM100.628 172.033H132.97L132.23 175.612H118.157L109.454 216.473H105.257L113.96 175.612H99.887L100.628 172.033ZM116.667 216.473L143.578 172.033H148.331L155.923 216.473H151.602L149.442 202.523H129.197L120.988 216.473H116.667ZM131.357 198.944H148.763L145.06 175.612L131.357 198.944ZM181.105 192.71C182.669 192.71 184.15 192.545 185.549 192.216C186.989 191.887 188.265 191.372 189.376 190.673C190.528 189.932 191.495 189.006 192.277 187.895C193.1 186.784 193.676 185.447 194.005 183.883C194.375 182.237 194.375 180.879 194.005 179.81C193.635 178.74 193.017 177.896 192.153 177.279C191.289 176.662 190.219 176.23 188.944 175.983C187.709 175.736 186.393 175.612 184.994 175.612H171.661L168.02 192.71H181.105ZM167.279 196.289L162.959 216.473H158.762L168.205 172.033H185.611C190.507 172.033 194.046 172.958 196.227 174.81C198.449 176.621 199.128 179.583 198.264 183.698C197.688 186.496 196.638 188.718 195.116 190.364C193.635 192.01 191.495 193.409 188.697 194.561C189.931 195.014 190.816 195.672 191.351 196.536C191.927 197.4 192.277 198.388 192.4 199.499C192.565 200.61 192.565 201.783 192.4 203.017C192.236 204.252 192.05 205.445 191.845 206.597C191.516 208.284 191.269 209.683 191.104 210.794C190.981 211.905 190.919 212.81 190.919 213.51C190.919 214.21 190.981 214.765 191.104 215.176C191.227 215.547 191.413 215.835 191.66 216.041L191.598 216.473H186.969C186.681 215.691 186.578 214.662 186.66 213.387C186.742 212.07 186.886 210.691 187.092 209.251C187.298 207.811 187.524 206.412 187.771 205.054C188.018 203.655 188.141 202.544 188.141 201.721C188.141 200.528 187.936 199.581 187.524 198.882C187.113 198.141 186.557 197.586 185.858 197.215C185.199 196.845 184.397 196.598 183.45 196.475C182.504 196.351 181.516 196.289 180.488 196.289H167.279ZM21.3376 243.916C23.8692 243.916 25.8382 243.564 27.2446 242.861C29.4547 241.756 30.5598 239.767 30.5598 236.894C30.5598 234 29.3844 232.051 27.0337 231.047C25.7076 230.484 23.7386 230.203 21.1266 230.203H10.4277V243.916H21.3376ZM23.3569 264.349C27.0337 264.349 29.6557 263.284 31.2228 261.155C32.2073 259.808 32.6996 258.181 32.6996 256.272C32.6996 253.058 31.263 250.868 28.3899 249.702C26.8629 249.079 24.8437 248.768 22.3322 248.768H10.4277V264.349H23.3569ZM4.55082 225.2H23.5678C28.7515 225.2 32.4384 226.747 34.6284 229.841C35.9143 231.67 36.5572 233.779 36.5572 236.17C36.5572 238.963 35.7636 241.254 34.1763 243.042C33.3526 243.986 32.1672 244.85 30.6201 245.634C32.8905 246.498 34.5882 247.472 35.7134 248.557C37.7025 250.486 38.697 253.148 38.697 256.544C38.697 259.397 37.8029 261.978 36.0148 264.289C33.3425 267.745 29.0931 269.473 23.2664 269.473H4.55082V225.2ZM42.2111 237.195H47.3647V242.77C47.7866 241.686 48.8213 240.37 50.4689 238.822C52.1164 237.255 54.0151 236.472 56.1649 236.472C56.2654 236.472 56.4362 236.482 56.6773 236.502C56.9184 236.522 57.3303 236.562 57.9129 236.622V242.349C57.5915 242.288 57.2901 242.248 57.0088 242.228C56.7476 242.208 56.4563 242.198 56.1348 242.198C53.4023 242.198 51.3027 243.082 49.836 244.85C48.3693 246.598 47.6359 248.617 47.6359 250.908V269.473H42.2111V237.195ZM63.6874 260.883C63.6874 262.451 64.26 263.686 65.4052 264.59C66.5505 265.494 67.9067 265.947 69.4738 265.947C71.3826 265.947 73.231 265.505 75.0192 264.62C78.033 263.154 79.5399 260.753 79.5399 257.418V253.048C78.8768 253.469 78.0229 253.821 76.9782 254.102C75.9334 254.384 74.9087 254.585 73.9041 254.705L70.6191 255.127C68.6501 255.388 67.1733 255.8 66.1888 256.363C64.5212 257.307 63.6874 258.814 63.6874 260.883ZM76.8275 249.913C78.0732 249.752 78.907 249.23 79.3289 248.346C79.57 247.864 79.6906 247.171 79.6906 246.266C79.6906 244.418 79.0275 243.082 77.7015 242.258C76.3955 241.414 74.5169 240.992 72.0657 240.992C69.2327 240.992 67.2235 241.756 66.0381 243.283C65.3751 244.127 64.9431 245.382 64.7422 247.05H59.679C59.7795 243.072 61.0654 240.309 63.5367 238.762C66.0281 237.195 68.9113 236.411 72.1862 236.411C75.9836 236.411 79.0677 237.135 81.4386 238.581C83.7893 240.028 84.9647 242.278 84.9647 245.332V263.927C84.9647 264.49 85.0752 264.942 85.2962 265.283C85.5373 265.625 86.0296 265.796 86.773 265.796C87.0141 265.796 87.2853 265.786 87.5867 265.766C87.8881 265.726 88.2095 265.675 88.5511 265.615V269.623C87.7072 269.864 87.0643 270.015 86.6223 270.075C86.1803 270.136 85.5775 270.166 84.814 270.166C82.9455 270.166 81.5893 269.503 80.7454 268.177C80.3034 267.474 79.9919 266.479 79.8111 265.193C78.7061 266.64 77.1188 267.895 75.0493 268.96C72.9799 270.025 70.6994 270.558 68.208 270.558C65.2143 270.558 62.7631 269.653 60.8544 267.845C58.9658 266.017 58.0214 263.736 58.0214 261.004C58.0214 258.01 58.9557 255.69 60.8243 254.042C62.6928 252.395 65.144 251.38 68.1779 250.998L76.8275 249.913ZM90.7994 237.195H95.953V241.776C97.48 239.887 99.0974 238.531 100.805 237.707C102.513 236.884 104.412 236.472 106.501 236.472C111.082 236.472 114.176 238.069 115.784 241.264C116.668 243.012 117.11 245.513 117.11 248.768V269.473H111.595V249.13C111.595 247.161 111.303 245.573 110.721 244.368C109.756 242.359 108.008 241.354 105.477 241.354C104.191 241.354 103.136 241.485 102.312 241.746C100.825 242.188 99.5193 243.072 98.3941 244.398C97.49 245.463 96.8973 246.568 96.616 247.713C96.3548 248.838 96.2242 250.456 96.2242 252.565V269.473H90.7994V237.195ZM125.506 253.711C125.506 257.166 126.24 260.06 127.706 262.39C129.173 264.721 131.524 265.886 134.758 265.886C137.27 265.886 139.329 264.811 140.937 262.661C142.564 260.492 143.378 257.387 143.378 253.349C143.378 249.27 142.544 246.256 140.876 244.308C139.209 242.339 137.149 241.354 134.698 241.354C131.966 241.354 129.746 242.399 128.038 244.488C126.35 246.578 125.506 249.652 125.506 253.711ZM133.674 236.622C136.145 236.622 138.214 237.145 139.882 238.19C140.846 238.792 141.941 239.847 143.167 241.354V225.049H148.381V269.473H143.498V264.982C142.233 266.971 140.736 268.408 139.008 269.292C137.28 270.176 135.301 270.618 133.071 270.618C129.474 270.618 126.36 269.111 123.728 266.097C121.096 263.063 119.78 259.035 119.78 254.012C119.78 249.31 120.975 245.242 123.366 241.806C125.777 238.35 129.213 236.622 133.674 236.622ZM153.342 237.346H158.857V269.473H153.342V237.346ZM153.342 225.2H158.857V231.348H153.342V225.2ZM163.998 237.195H169.152V241.776C170.679 239.887 172.296 238.531 174.004 237.707C175.712 236.884 177.611 236.472 179.7 236.472C184.281 236.472 187.375 238.069 188.983 241.264C189.867 243.012 190.309 245.513 190.309 248.768V269.473H184.793V249.13C184.793 247.161 184.502 245.573 183.919 244.368C182.955 242.359 181.207 241.354 178.675 241.354C177.39 241.354 176.335 241.485 175.511 241.746C174.024 242.188 172.718 243.072 171.593 244.398C170.689 245.463 170.096 246.568 169.815 247.713C169.554 248.838 169.423 250.456 169.423 252.565V269.473H163.998V237.195ZM206.661 236.622C209.193 236.622 211.403 237.245 213.292 238.491C214.316 239.194 215.361 240.219 216.426 241.565V237.496H221.429V266.851C221.429 270.949 220.826 274.184 219.621 276.555C217.37 280.935 213.121 283.125 206.872 283.125C203.397 283.125 200.473 282.342 198.102 280.774C195.731 279.227 194.405 276.796 194.124 273.481H199.639C199.901 274.928 200.423 276.043 201.206 276.826C202.432 278.032 204.361 278.635 206.993 278.635C211.152 278.635 213.874 277.168 215.16 274.234C215.924 272.507 216.275 269.422 216.215 264.982C215.13 266.63 213.824 267.855 212.297 268.659C210.77 269.463 208.751 269.864 206.24 269.864C202.744 269.864 199.679 268.629 197.047 266.157C194.436 263.666 193.13 259.557 193.13 253.831C193.13 248.426 194.446 244.207 197.078 241.173C199.73 238.139 202.924 236.622 206.661 236.622ZM216.426 253.198C216.426 249.2 215.602 246.236 213.955 244.308C212.307 242.379 210.208 241.414 207.656 241.414C203.839 241.414 201.227 243.202 199.82 246.779C199.077 248.688 198.705 251.189 198.705 254.283C198.705 257.92 199.438 260.692 200.905 262.601C202.392 264.49 204.381 265.434 206.872 265.434C210.77 265.434 213.513 263.676 215.1 260.16C215.984 258.171 216.426 255.85 216.426 253.198ZM254.285 242.409C256.194 241.063 257.51 239.968 258.233 239.124C259.419 237.758 260.012 236.241 260.012 234.573C260.012 233.267 259.58 232.142 258.716 231.198C257.852 230.253 256.686 229.781 255.22 229.781C252.989 229.781 251.442 230.524 250.578 232.011C250.136 232.775 249.915 233.609 249.915 234.513C249.915 235.738 250.247 236.914 250.91 238.039C251.593 239.164 252.718 240.621 254.285 242.409ZM252.899 265.736C255.129 265.736 257.048 265.223 258.655 264.199C260.263 263.174 261.498 262.029 262.362 260.763L252.356 248.557C249.524 250.446 247.675 251.892 246.811 252.897C245.485 254.404 244.822 256.242 244.822 258.412C244.822 260.763 245.676 262.571 247.384 263.837C249.112 265.103 250.95 265.736 252.899 265.736ZM249.343 244.85C247.474 242.7 246.218 240.892 245.575 239.425C244.953 237.958 244.641 236.542 244.641 235.176C244.641 232.323 245.606 229.962 247.534 228.093C249.463 226.205 252.045 225.26 255.28 225.26C258.354 225.26 260.755 226.134 262.483 227.882C264.211 229.63 265.075 231.72 265.075 234.151C265.075 236.984 264.181 239.465 262.392 241.595C261.348 242.841 259.6 244.277 257.148 245.905L265.225 255.549C265.768 253.942 266.14 252.746 266.34 251.963C266.561 251.159 266.782 250.044 267.003 248.617H272.157C271.816 251.45 271.132 254.173 270.108 256.785C269.083 259.376 268.571 260.421 268.571 259.919L276.437 269.473H269.445L265.286 264.409C263.638 266.198 262.131 267.504 260.765 268.327C258.374 269.774 255.621 270.497 252.507 270.497C247.906 270.497 244.561 269.262 242.471 266.79C240.382 264.299 239.337 261.496 239.337 258.382C239.337 255.027 240.352 252.224 242.381 249.973C243.627 248.607 245.947 246.899 249.343 244.85ZM6.05771 278.2H12.1154V322.473H6.05771V278.2ZM21.5064 306.711C21.5064 310.166 22.2397 313.06 23.7065 315.39C25.1732 317.721 27.5239 318.886 30.7587 318.886C33.2702 318.886 35.3296 317.811 36.937 315.661C38.5644 313.492 39.3781 310.387 39.3781 306.349C39.3781 302.27 38.5443 299.256 36.8767 297.308C35.2091 295.339 33.1497 294.354 30.6984 294.354C27.9659 294.354 25.7458 295.399 24.038 297.488C22.3502 299.578 21.5064 302.652 21.5064 306.711ZM29.6738 289.622C32.1451 289.622 34.2145 290.145 35.8822 291.19C36.8466 291.792 37.9416 292.847 39.1672 294.354V278.049H44.381V322.473H39.4987V317.982C38.2329 319.971 36.7361 321.408 35.0082 322.292C33.2803 323.176 31.3012 323.618 29.071 323.618C25.4745 323.618 22.3603 322.111 19.7283 319.097C17.0962 316.063 15.7802 312.035 15.7802 307.012C15.7802 302.31 16.9757 298.242 19.3666 294.806C21.7776 291.35 25.2133 289.622 29.6738 289.622ZM62.7832 289.472C65.0737 289.472 67.2939 290.014 69.4437 291.099C71.5935 292.164 73.231 293.55 74.3562 295.258C75.4411 296.886 76.1644 298.784 76.5261 300.954C76.8476 302.441 77.0083 304.812 77.0083 308.067H53.3501C53.4505 311.342 54.2241 313.974 55.6707 315.963C57.1173 317.932 59.3575 318.916 62.3914 318.916C65.2244 318.916 67.4847 317.982 69.1724 316.114C70.1369 315.029 70.82 313.773 71.2218 312.346H76.5562C76.4156 313.532 75.9434 314.858 75.1397 316.325C74.3562 317.771 73.4721 318.957 72.4876 319.881C70.8401 321.488 68.8007 322.573 66.3696 323.136C65.0637 323.457 63.5869 323.618 61.9394 323.618C57.921 323.618 54.5154 322.161 51.7226 319.248C48.9298 316.314 47.5335 312.216 47.5335 306.952C47.5335 301.768 48.9399 297.559 51.7528 294.324C54.5656 291.089 58.2424 289.472 62.7832 289.472ZM71.4328 303.757C71.2118 301.406 70.6994 299.528 69.8958 298.121C68.409 295.509 65.9276 294.203 62.4517 294.203C59.9603 294.203 57.8707 295.107 56.183 296.916C54.4953 298.704 53.6012 300.984 53.5008 303.757H71.4328ZM80.6128 290.195H85.7664V294.776C87.2934 292.887 88.9108 291.531 90.6186 290.707C92.3264 289.884 94.2251 289.472 96.3146 289.472C100.896 289.472 103.99 291.069 105.597 294.264C106.481 296.012 106.923 298.513 106.923 301.768V322.473H101.408V302.13C101.408 300.161 101.117 298.573 100.534 297.368C99.5695 295.359 97.8215 294.354 95.2899 294.354C94.0041 294.354 92.9492 294.485 92.1255 294.746C90.6387 295.188 89.3327 296.072 88.2075 297.398C87.3034 298.463 86.7107 299.568 86.4294 300.713C86.1682 301.838 86.0376 303.456 86.0376 305.565V322.473H80.6128V290.195ZM112.969 281.184H118.454V290.195H123.607V294.625H118.454V315.692C118.454 316.817 118.836 317.57 119.599 317.952C120.021 318.173 120.724 318.283 121.709 318.283C121.97 318.283 122.251 318.283 122.553 318.283C122.854 318.263 123.206 318.233 123.607 318.193V322.473C122.985 322.653 122.332 322.784 121.649 322.864C120.985 322.945 120.262 322.985 119.479 322.985C116.947 322.985 115.229 322.342 114.325 321.056C113.421 319.75 112.969 318.062 112.969 315.993V294.625H108.599V290.195H112.969V281.184ZM125.976 290.346H131.492V322.473H125.976V290.346ZM125.976 278.2H131.492V284.348H125.976V278.2ZM137.718 281.184H143.203V290.195H148.357V294.625H143.203V315.692C143.203 316.817 143.585 317.57 144.348 317.952C144.77 318.173 145.474 318.283 146.458 318.283C146.719 318.283 147.001 318.283 147.302 318.283C147.603 318.263 147.955 318.233 148.357 318.193V322.473C147.734 322.653 147.081 322.784 146.398 322.864C145.735 322.945 145.011 322.985 144.228 322.985C141.696 322.985 139.978 322.342 139.074 321.056C138.17 319.75 137.718 318.062 137.718 315.993V294.625H133.348V290.195H137.718V281.184ZM170.888 290.195H176.885C176.122 292.264 174.424 296.986 171.792 304.36C169.823 309.905 168.175 314.426 166.849 317.922C163.715 326.16 161.505 331.183 160.219 332.991C158.933 334.799 156.723 335.703 153.589 335.703C152.825 335.703 152.232 335.673 151.811 335.613C151.409 335.552 150.906 335.442 150.304 335.281V330.339C151.248 330.6 151.931 330.761 152.353 330.821C152.775 330.881 153.147 330.911 153.468 330.911C154.473 330.911 155.206 330.74 155.668 330.399C156.15 330.077 156.552 329.676 156.874 329.193C156.974 329.033 157.336 328.209 157.959 326.722C158.581 325.235 159.034 324.13 159.315 323.407L147.38 290.195H153.528L162.178 316.475L170.888 290.195Z" fill="#F2FFD1"/>
<path d="M857.61 198.99H854.23V215.24H857.61V198.99Z" fill="#F2FFD1"/>
<path d="M864.17 201.871C864.69 201.521 865.39 201.341 866.26 201.341C867.05 201.341 867.71 201.481 868.23 201.751C869.02 202.161 869.45 202.861 869.51 203.831H872.77C872.71 202.101 872.08 200.791 870.87 199.881C869.66 198.971 868.2 198.521 866.49 198.521C864.44 198.521 862.88 199.001 861.83 199.961C860.78 200.921 860.24 202.131 860.24 203.591C860.24 205.191 860.79 206.361 861.88 207.111C862.53 207.561 863.69 207.971 865.39 208.361L867.11 208.751C868.12 208.971 868.86 209.221 869.33 209.511C869.8 209.801 870.04 210.221 870.04 210.761C870.04 211.681 869.57 212.311 868.62 212.651C868.12 212.831 867.47 212.911 866.67 212.911C865.33 212.911 864.39 212.581 863.84 211.911C863.54 211.541 863.34 210.991 863.23 210.241H859.99C859.99 211.931 860.6 213.261 861.81 214.231C863.02 215.201 864.69 215.681 866.8 215.681C868.91 215.681 870.48 215.191 871.61 214.211C872.74 213.231 873.31 212.001 873.31 210.511C873.31 209.021 872.82 207.961 871.85 207.191C871.23 206.701 870.3 206.301 869.07 206.011L866.27 205.341C865.19 205.081 864.48 204.861 864.15 204.671C863.63 204.381 863.38 203.951 863.38 203.371C863.38 202.741 863.64 202.251 864.16 201.891L864.17 201.871Z" fill="#F2FFD1"/>
<path d="M888.89 198.99H885.52V205.19H879.17V198.99H875.81V215.25H879.17V207.99H885.52V215.25H888.89V198.99Z" fill="#F2FFD1"/>
<path d="M903.95 198.99H890.78V201.87H895.67V215.25H899.08V201.87H903.95V198.99Z" fill="#F2FFD1"/>
<path d="M903.12 215.25H906.67L907.79 211.91H913.78L914.83 215.25H918.51L912.75 199H908.91L903.11 215.25H903.12ZM912.83 209.11H908.71L910.81 202.71L912.84 209.11H912.83Z" fill="#F2FFD1"/>
<path d="M930.09 211.46L930.11 212.97C930.11 213.45 930.16 213.91 930.25 214.37C930.29 214.59 930.37 214.88 930.47 215.24H934.21V214.83C933.89 214.63 933.68 214.32 933.59 213.9C933.53 213.64 933.5 213.13 933.5 212.39V211.3C933.5 210.16 933.34 209.31 933.03 208.76C932.72 208.21 932.19 207.78 931.44 207.48C932.34 207.17 932.98 206.64 933.37 205.9C933.76 205.15 933.95 204.39 933.95 203.62C933.95 202.98 933.85 202.41 933.64 201.91C933.43 201.41 933.15 200.95 932.8 200.54C932.37 200.04 931.85 199.66 931.24 199.4C930.63 199.14 929.75 199 928.61 198.98H920.64V215.23H923.96V208.86H927.47C928.47 208.86 929.15 209.03 929.51 209.38C929.88 209.73 930.06 210.42 930.08 211.45L930.09 211.46ZM923.97 206.18V201.81H927.92C928.65 201.81 929.21 201.91 929.57 202.1C930.22 202.44 930.55 203.1 930.55 204.08C930.55 204.99 930.21 205.6 929.54 205.91C929.16 206.09 928.58 206.17 927.82 206.17H923.97V206.18Z" fill="#F2FFD1"/>
<path d="M954.6 212.33H946.55V198.99H943.16V215.25H954.6V212.33Z" fill="#F2FFD1"/>
<path d="M967.1 198.99H953.93V201.87H958.82V215.25H962.23V201.87H967.1V198.99Z" fill="#F2FFD1"/>
<path d="M969.08 198.99V215.24H976.08C978.54 215.24 980.35 214.23 981.53 212.21C982.4 210.71 982.83 208.88 982.83 206.72C982.83 205.87 982.73 204.97 982.52 204.03C982.31 203.09 981.93 202.21 981.36 201.41C980.65 200.41 979.73 199.72 978.59 199.35C977.92 199.13 977.08 199.01 976.08 199H969.08V198.99ZM978.61 203.14C979.13 204.03 979.38 205.3 979.38 206.96C979.38 208.16 979.21 209.19 978.86 210.06C978.23 211.64 977.11 212.43 975.51 212.43H972.38V201.82H975.51C977.05 201.82 978.09 202.26 978.61 203.14Z" fill="#F2FFD1"/>
<path d="M860.26 234.75V233.67H853.83V242.53H860.35V241.47H855V238.47H859.86V237.44H855V234.75H860.26Z" fill="#F2FFD1"/>
<path d="M866.59 242.15C867.29 241.73 867.63 241.03 867.63 240.05C867.63 239.26 867.36 238.66 866.81 238.25C866.49 238.01 866.05 237.83 865.47 237.69L864.27 237.41C863.46 237.22 862.94 237.06 862.71 236.93C862.36 236.73 862.18 236.41 862.18 235.98C862.18 235.59 862.33 235.24 862.63 234.94C862.93 234.64 863.42 234.49 864.09 234.49C864.93 234.49 865.53 234.72 865.88 235.18C866.07 235.43 866.19 235.8 866.25 236.27H867.38C867.38 235.29 867.06 234.57 866.43 234.12C865.8 233.67 865.03 233.45 864.13 233.45C863.15 233.45 862.39 233.71 861.85 234.22C861.31 234.73 861.05 235.38 861.05 236.18C861.05 236.92 861.32 237.47 861.87 237.84C862.19 238.05 862.72 238.25 863.48 238.42L864.64 238.69C865.27 238.84 865.73 239.01 866.03 239.21C866.32 239.42 866.47 239.76 866.47 240.24C866.47 240.88 866.13 241.33 865.44 241.58C865.08 241.71 864.69 241.77 864.26 241.77C863.29 241.77 862.62 241.48 862.23 240.89C862.03 240.58 861.91 240.17 861.89 239.67H860.76C860.75 240.63 861.05 241.38 861.65 241.94C862.26 242.5 863.1 242.78 864.17 242.78C865.09 242.78 865.9 242.57 866.6 242.15H866.59Z" fill="#F2FFD1"/>
<path d="M871.92 242.53V234.72H874.9V233.67H867.72V234.72H870.7V242.53H871.92Z" fill="#F2FFD1"/>
<path d="M875.66 239.87H879.16L880.06 242.52H881.37L878.16 233.66H876.8L873.46 242.52H874.69L875.65 239.87H875.66ZM877.43 234.98L878.77 238.89H876L877.43 234.98Z" fill="#F2FFD1"/>
<path d="M881.57 242.53H885.34C886.51 242.53 887.37 242.18 887.91 241.49C888.27 241.03 888.45 240.51 888.45 239.94C888.45 239.26 888.25 238.73 887.85 238.34C887.62 238.12 887.28 237.93 886.83 237.76C887.14 237.6 887.38 237.43 887.54 237.24C887.86 236.88 888.02 236.42 888.02 235.86C888.02 235.38 887.89 234.96 887.63 234.59C887.19 233.97 886.45 233.66 885.4 233.66H881.57V242.52V242.53ZM882.75 234.67H884.91C885.44 234.67 885.84 234.73 886.11 234.84C886.58 235.04 886.82 235.43 886.82 236.01C886.82 236.59 886.6 236.98 886.15 237.2C885.87 237.34 885.47 237.41 884.96 237.41H882.75V234.67ZM882.75 238.38H885.15C885.66 238.38 886.07 238.44 886.37 238.57C886.95 238.8 887.24 239.24 887.24 239.88C887.24 240.26 887.14 240.59 886.94 240.86C886.62 241.29 886.09 241.5 885.35 241.5H882.74V238.38H882.75Z" fill="#F2FFD1"/>
<path d="M888.98 233.67V242.53H894.62V241.47H890.18V233.67H888.98Z" fill="#F2FFD1"/>
<path d="M896.46 233.67H895.25V242.53H896.46V233.67Z" fill="#F2FFD1"/>
<path d="M904.09 240.05C904.09 239.26 903.82 238.66 903.27 238.25C902.95 238.01 902.51 237.83 901.93 237.69L900.73 237.41C899.92 237.22 899.4 237.06 899.17 236.93C898.82 236.73 898.64 236.41 898.64 235.98C898.64 235.59 898.79 235.24 899.09 234.94C899.39 234.64 899.88 234.49 900.55 234.49C901.39 234.49 901.99 234.72 902.34 235.18C902.53 235.43 902.65 235.8 902.71 236.27H903.84C903.84 235.29 903.52 234.57 902.89 234.12C902.26 233.67 901.49 233.45 900.59 233.45C899.61 233.45 898.85 233.71 898.31 234.22C897.77 234.73 897.51 235.38 897.51 236.18C897.51 236.92 897.78 237.47 898.33 237.84C898.65 238.05 899.18 238.25 899.94 238.42L901.1 238.69C901.73 238.84 902.19 239.01 902.49 239.21C902.78 239.42 902.93 239.76 902.93 240.24C902.93 240.88 902.59 241.33 901.9 241.58C901.54 241.71 901.15 241.77 900.72 241.77C899.75 241.77 899.08 241.48 898.69 240.89C898.49 240.58 898.37 240.17 898.35 239.67H897.22C897.21 240.63 897.51 241.38 898.11 241.94C898.72 242.5 899.56 242.78 900.63 242.78C901.55 242.78 902.36 242.57 903.06 242.15C903.76 241.73 904.1 241.03 904.1 240.05H904.09Z" fill="#F2FFD1"/>
<path d="M911.93 242.53V233.67H910.72V237.33H906.17V233.67H904.95V242.53H906.17V238.38H910.72V242.53H911.93Z" fill="#F2FFD1"/>
<path d="M919.61 241.47H914.26V238.47H919.13V237.44H914.26V234.75H919.52V233.67H913.09V242.53H919.61V241.47Z" fill="#F2FFD1"/>
<path d="M927.11 240.51C927.46 239.75 927.63 238.9 927.63 237.96C927.63 236.74 927.33 235.74 926.74 234.96C926.08 234.1 925.14 233.66 923.94 233.66H920.4V242.52H923.93C925.43 242.52 926.49 241.85 927.1 240.51H927.11ZM921.62 241.5V234.7H923.7C924.65 234.7 925.33 235 925.76 235.61C926.19 236.22 926.4 237.07 926.4 238.17C926.4 238.46 926.37 238.76 926.31 239.1C926.21 239.66 926.04 240.12 925.81 240.48C925.52 240.93 925.15 241.23 924.69 241.38C924.43 241.46 924.11 241.51 923.71 241.51H921.62V241.5Z" fill="#F2FFD1"/>
<path d="M937.97 242.53H939.28L936.07 233.67H934.71L931.37 242.53H932.6L933.56 239.88H937.06L937.96 242.53H937.97ZM933.91 238.9L935.34 234.99L936.68 238.9H933.91Z" fill="#F2FFD1"/>
<path d="M946.59 233.67H945.38V239.15C945.38 239.79 945.28 240.3 945.08 240.68C944.71 241.38 944.01 241.72 942.99 241.72C942.14 241.72 941.53 241.4 941.17 240.76C940.93 240.33 940.8 239.8 940.8 239.16V233.68H939.59V238.66C939.59 239.75 939.74 240.59 940.03 241.17C940.57 242.24 941.59 242.77 943.09 242.77C944.59 242.77 945.61 242.23 946.15 241.17C946.44 240.58 946.59 239.75 946.59 238.66V233.68V233.67Z" fill="#F2FFD1"/>
<path d="M951.3 234.491C951.98 234.491 952.54 234.641 952.98 234.931C953.43 235.221 953.72 235.701 953.86 236.341H955.05C954.86 235.181 954.32 234.371 953.46 233.911C952.86 233.591 952.15 233.431 951.33 233.431C950.13 233.431 949.16 233.851 948.41 234.681C947.62 235.561 947.22 236.741 947.22 238.221C947.22 239.701 947.63 240.881 948.44 241.731C949.18 242.411 950.07 242.751 951.1 242.751C951.9 242.751 952.56 242.601 953.08 242.301C953.39 242.131 953.74 241.821 954.14 241.371L954.43 242.511H955.2V237.771H951.31V238.771H954.08C954.07 239.811 953.8 240.561 953.29 241.021C952.78 241.481 952.13 241.721 951.34 241.721C950.32 241.721 949.58 241.391 949.12 240.731C948.66 240.071 948.44 239.211 948.44 238.161C948.44 236.941 948.72 236.031 949.26 235.411C949.8 234.791 950.49 234.491 951.29 234.491H951.3Z" fill="#F2FFD1"/>
<path d="M964.44 242.53V233.78H963.01C963.01 233.86 962.99 233.97 962.94 234.13C962.86 234.39 962.75 234.6 962.6 234.76C962.38 234.99 962.1 235.14 961.76 235.22C961.54 235.27 961.16 235.3 960.62 235.33V236.5H962.68V242.53H964.44Z" fill="#F2FFD1"/>
<path d="M971.81 240.76C972.08 240.05 972.21 239.17 972.21 238.11C972.21 237.05 972.07 236.14 971.79 235.47C971.29 234.29 970.38 233.7 969.05 233.7C968.19 233.7 967.48 233.99 966.94 234.57C966.4 235.15 966.13 235.91 966.13 236.85C966.13 237.79 966.4 238.45 966.94 238.93C967.48 239.41 968.1 239.65 968.79 239.65C969.26 239.65 969.66 239.55 969.98 239.36C970.16 239.26 970.32 239.1 970.48 238.91C970.45 239.57 970.37 240.08 970.24 240.42C970.01 241.05 969.61 241.36 969.05 241.36C968.76 241.36 968.52 241.28 968.34 241.12C968.16 240.96 968.05 240.75 968.01 240.49H966.3C966.38 241.23 966.68 241.8 967.2 242.19C967.72 242.58 968.31 242.77 968.97 242.77C970.35 242.77 971.29 242.1 971.8 240.75L971.81 240.76ZM969.84 238.05C969.63 238.19 969.41 238.26 969.17 238.26C968.73 238.26 968.41 238.13 968.2 237.87C967.99 237.61 967.88 237.22 967.88 236.7C967.88 236.08 968.04 235.65 968.37 235.39C968.58 235.22 968.83 235.14 969.12 235.14C969.52 235.14 969.84 235.28 970.07 235.57C970.3 235.86 970.42 236.25 970.42 236.75C970.42 237.37 970.22 237.8 969.84 238.05Z" fill="#F2FFD1"/>
<path d="M977.35 241.98C977.89 241.46 978.17 240.84 978.17 240.1C978.17 239.61 978.06 239.17 977.84 238.77C977.62 238.37 977.3 238.05 976.87 237.81C977.29 237.57 977.57 237.28 977.69 236.96C977.82 236.63 977.88 236.33 977.88 236.04C977.88 235.4 977.64 234.86 977.16 234.41C976.68 233.96 976.01 233.74 975.13 233.74C974.25 233.74 973.58 233.96 973.1 234.41C972.62 234.86 972.38 235.4 972.38 236.04C972.38 236.33 972.44 236.63 972.57 236.96C972.7 237.29 972.97 237.59 973.39 237.87C972.96 238.07 972.63 238.37 972.41 238.77C972.19 239.17 972.08 239.61 972.08 240.1C972.08 240.84 972.33 241.46 972.83 241.98C973.33 242.5 974.07 242.76 975.05 242.76C976.03 242.76 976.79 242.5 977.33 241.98H977.35ZM974.33 235.42C974.52 235.22 974.79 235.13 975.14 235.13C975.49 235.13 975.76 235.23 975.95 235.42C976.14 235.61 976.24 235.88 976.24 236.23C976.24 236.55 976.15 236.81 975.95 237.01C975.75 237.21 975.49 237.31 975.14 237.31C974.79 237.31 974.52 237.21 974.33 237.01C974.13 236.81 974.03 236.55 974.03 236.23C974.03 235.88 974.13 235.61 974.32 235.42H974.33ZM973.88 239.99C973.88 239.54 973.99 239.2 974.22 238.97C974.45 238.74 974.75 238.62 975.14 238.62C975.53 238.62 975.83 238.74 976.06 238.97C976.29 239.2 976.4 239.54 976.4 239.99C976.4 240.44 976.29 240.75 976.07 240.99C975.85 241.23 975.54 241.35 975.14 241.35C974.74 241.35 974.44 241.23 974.21 240.99C973.99 240.75 973.88 240.42 973.88 239.99Z" fill="#F2FFD1"/>
<path d="M981.62 239.871L982.31 239.381C982.89 238.971 983.31 238.601 983.56 238.261C983.95 237.761 984.14 237.181 984.14 236.531C984.14 235.691 983.87 235.011 983.32 234.491C982.77 233.981 982.04 233.721 981.11 233.721C979.94 233.721 979.13 234.161 978.67 235.031C978.43 235.491 978.29 236.091 978.27 236.831H979.94C979.96 236.341 980.02 235.981 980.13 235.761C980.32 235.371 980.67 235.181 981.2 235.181C981.58 235.181 981.87 235.301 982.08 235.551C982.29 235.801 982.39 236.101 982.39 236.471C982.39 236.921 982.21 237.341 981.85 237.721C981.62 237.971 981.1 238.371 980.31 238.941C979.4 239.591 978.82 240.211 978.57 240.791C978.32 241.311 978.18 241.881 978.17 242.511H984.16V241.001H980.34C980.45 240.821 980.58 240.661 980.74 240.521C980.9 240.381 981.19 240.161 981.62 239.861V239.871Z" fill="#F2FFD1"/>
<path d="M885.23 291.231C883.42 291.231 881.85 291.851 880.51 293.091C879.08 294.421 878.37 296.091 878.37 298.091C878.37 300.091 879.03 301.651 880.35 302.971C881.67 304.291 883.3 304.951 885.23 304.951C887.16 304.951 888.7 304.301 890.04 303.011C891.41 301.681 892.1 300.031 892.1 298.081C892.1 296.131 891.43 294.571 890.09 293.231C888.75 291.891 887.13 291.221 885.24 291.221L885.23 291.231ZM889.22 302.141C888.12 303.261 886.78 303.821 885.22 303.821C883.66 303.821 882.32 303.261 881.22 302.151C880.11 301.041 879.55 299.691 879.55 298.101C879.55 296.511 880.1 295.241 881.19 294.121C882.3 292.981 883.65 292.411 885.22 292.411C886.79 292.411 888.11 292.981 889.22 294.121C890.32 295.241 890.87 296.571 890.87 298.101C890.87 299.631 890.32 301.021 889.21 302.141H889.22Z" fill="#F2FFD1"/>
<path d="M888.33 301.48C888.33 301.41 888.32 301.33 888.32 301.26V300.58C888.32 299.8 888.1 299.24 887.65 298.88C887.41 298.69 887.05 298.54 886.57 298.44C887.09 298.38 887.53 298.21 887.89 297.93C888.25 297.64 888.43 297.18 888.43 296.54C888.43 295.7 888.09 295.1 887.42 294.72C887.02 294.5 886.52 294.37 885.92 294.33C885.81 294.33 885.29 294.32 884.35 294.32C883.41 294.32 882.7 294.32 882.23 294.32V301.93H884.22V299.24H884.64L885.08 299.27C885.38 299.29 885.61 299.33 885.76 299.39C886.03 299.5 886.22 299.68 886.32 299.95C886.38 300.11 886.42 300.42 886.44 300.88C886.46 301.34 886.5 301.69 886.56 301.93H888.46L888.39 301.72C888.36 301.64 888.35 301.57 888.34 301.5L888.33 301.48ZM886.08 297.57C885.82 297.76 885.46 297.85 884.99 297.85H884.22V295.64H884.7C885.2 295.64 885.58 295.69 885.85 295.8C886.26 295.96 886.47 296.25 886.47 296.67C886.47 297.09 886.34 297.39 886.08 297.57Z" fill="#F2FFD1"/>
<path d="M861.13 291.231C859.32 291.231 857.75 291.851 856.41 293.091C854.98 294.421 854.27 296.091 854.27 298.091C854.27 300.091 854.93 301.651 856.25 302.971C857.57 304.291 859.2 304.951 861.13 304.951C863.06 304.951 864.6 304.301 865.94 303.011C867.31 301.681 868 300.031 868 298.081C868 296.131 867.33 294.571 865.99 293.231C864.65 291.891 863.03 291.221 861.14 291.221L861.13 291.231ZM865.12 302.141C864.02 303.261 862.68 303.821 861.12 303.821C859.56 303.821 858.22 303.261 857.12 302.151C856.01 301.041 855.45 299.691 855.45 298.101C855.45 296.511 856 295.241 857.09 294.121C858.2 292.981 859.55 292.411 861.12 292.411C862.69 292.411 864.01 292.981 865.12 294.121C866.22 295.241 866.77 296.571 866.77 298.101C866.77 299.631 866.22 301.021 865.11 302.141H865.12Z" fill="#F2FFD1"/>
<path d="M861.28 295.6C861.62 295.6 861.94 295.69 862.22 295.87C862.56 296.06 862.78 296.44 862.89 297L864.64 297.03C864.43 295.82 863.89 294.97 863.02 294.49C862.49 294.19 861.86 294.04 861.13 294.04C859.99 294.04 859.09 294.44 858.44 295.23C857.78 296.02 857.45 296.99 857.45 298.12C857.45 299.33 857.83 300.31 858.59 301.05C859.35 301.79 860.25 302.17 861.3 302.17C862 302.17 862.68 301.96 863.34 301.52C863.99 301.09 864.42 300.33 864.6 299.25H862.9C862.83 299.63 862.68 299.95 862.44 300.21C862.2 300.46 861.85 300.59 861.38 300.59C860.87 300.59 860.44 300.4 860.07 300.01C859.7 299.62 859.53 299.01 859.53 298.16C859.53 297.31 859.69 296.66 860.02 296.24C860.35 295.82 860.77 295.6 861.29 295.6H861.28Z" fill="#F2FFD1"/>
<path d="M862.14 259.951V265.881H863.44V255.841H861.5L858.63 264.331L855.74 255.841H853.79V265.881H855.09V259.951C855.09 259.711 855.09 259.341 855.07 258.841C855.06 258.341 855.05 257.961 855.05 257.721V257.411L857.94 265.881H859.29L862.16 257.411C862.16 257.951 862.16 258.461 862.15 258.931C862.15 259.401 862.14 259.741 862.14 259.951Z" fill="#F2FFD1"/>
<path d="M869.96 255.83H868.42L864.64 265.87H866.03L867.12 262.86H871.09L872.11 265.87H873.6L869.96 255.83ZM867.51 261.76L869.13 257.32L870.65 261.76H867.51Z" fill="#F2FFD1"/>
<path d="M878.91 255.83H874.9V265.87H878.9C880.6 265.87 881.8 265.11 882.5 263.59C882.9 262.73 883.09 261.76 883.09 260.7C883.09 259.32 882.76 258.19 882.08 257.3C881.33 256.32 880.27 255.83 878.91 255.83ZM881.59 261.98C881.47 262.61 881.28 263.13 881.02 263.54C880.69 264.05 880.27 264.39 879.75 264.57C879.46 264.67 879.09 264.71 878.64 264.71H876.27V257H878.63C879.7 257 880.48 257.34 880.97 258.03C881.46 258.72 881.7 259.68 881.7 260.93C881.7 261.25 881.67 261.6 881.6 261.98H881.59Z" fill="#F2FFD1"/>
<path d="M892.47 264.68H886.4V261.27H891.91V260.11H886.4V257.06H892.36V255.83H885.08V265.87H892.47V264.68Z" fill="#F2FFD1"/>
<path d="M901.28 255.83H899.91V265.87H901.28V255.83Z" fill="#F2FFD1"/>
<path d="M904.79 257.77L909.88 265.87H911.4V255.83H910.11V263.94L905.1 255.83H903.5V265.87H904.79V257.77Z" fill="#F2FFD1"/>
<path d="M926.52 258.711C926.52 257.801 926.25 257.091 925.7 256.591C925.15 256.091 924.44 255.841 923.55 255.841H919.06V265.881H920.42V261.631H923.56C924.56 261.631 925.31 261.341 925.8 260.761C926.29 260.181 926.53 259.501 926.53 258.711H926.52ZM924.58 260.091C924.2 260.351 923.71 260.481 923.1 260.481H920.41V257.001H923.1C923.62 257.001 924.03 257.071 924.33 257.211C924.87 257.471 925.14 257.981 925.14 258.711C925.14 259.371 924.95 259.821 924.57 260.081L924.58 260.091Z" fill="#F2FFD1"/>
<path d="M935.78 264.67H929.72V261.27H935.23V260.11H929.72V257.06H935.68V255.83H928.39V265.87H935.78V264.67Z" fill="#F2FFD1"/>
<path d="M940.52 255.83L936.74 265.87H938.13L939.22 262.86H943.19L944.21 265.87H945.7L942.06 255.83H940.52ZM939.61 261.76L941.23 257.32L942.75 261.76H939.61Z" fill="#F2FFD1"/>
<path d="M954.13 264.85C954.79 264.13 955.17 263.25 955.29 262.19H953.96C953.83 262.85 953.62 263.38 953.35 263.79C952.84 264.56 952.09 264.95 951.1 264.95C950.03 264.95 949.23 264.58 948.69 263.85C948.15 263.12 947.88 262.16 947.88 260.99C947.88 259.55 948.18 258.49 948.78 257.79C949.38 257.09 950.16 256.75 951.13 256.75C951.93 256.75 952.55 256.94 952.99 257.32C953.43 257.7 953.72 258.21 953.87 258.86H955.2C955.12 258.01 954.74 257.25 954.04 256.58C953.35 255.91 952.37 255.58 951.11 255.58C949.64 255.58 948.48 256.1 947.64 257.13C946.87 258.08 946.48 259.29 946.48 260.78C946.48 262.73 947 264.18 948.03 265.11C948.81 265.82 949.78 266.17 950.94 266.17C952.28 266.17 953.34 265.74 954.13 264.88V264.85Z" fill="#F2FFD1"/>
<path d="M957.18 265.87H964.57V264.67H958.51V261.27H964.01V260.11H958.51V257.06H964.47V255.83H957.18V265.87Z" fill="#F2FFD1"/>
<path d="M973.39 255.83H972.02V265.87H973.39V255.83Z" fill="#F2FFD1"/>
<path d="M976.9 257.77L981.98 265.87H983.51V255.83H982.21V263.94L977.2 255.83H975.6V265.87H976.9V257.77Z" fill="#F2FFD1"/>
<path d="M856.03 279.871H858.15V271.581H861.16V269.801H853V271.581H856.03V279.871Z" fill="#F2FFD1"/>
<path d="M868.4 273.641H864.46V269.801H862.38V279.871H864.46V275.371H868.4V279.871H870.49V269.801H868.4V273.641Z" fill="#F2FFD1"/>
<path d="M874.62 275.471H879.51V273.721H874.62V271.581H879.95V269.801H872.56V279.871H880.2V278.061H874.62V275.471Z" fill="#F2FFD1"/>
<path d="M893.14 277.721L891.31 269.801H888.25V279.881H890.21V273.061C890.21 272.861 890.21 272.591 890.21 272.241C890.21 271.891 890.21 271.611 890.21 271.421L892.1 279.881H894.14L896.05 271.421C896.05 271.611 896.05 271.881 896.05 272.241C896.05 272.591 896.05 272.871 896.05 273.061V279.881H898.01V269.801H894.98L893.16 277.721H893.14Z" fill="#F2FFD1"/>
<path d="M901.86 269.79H899.77V279.87H901.86V269.79Z" fill="#F2FFD1"/>
<path d="M911.44 271.29C911 270.67 910.43 270.24 909.72 270.01C909.3 269.87 908.79 269.8 908.16 269.79H903.82V279.87H908.16C909.68 279.87 910.81 279.24 911.54 277.99C912.08 277.06 912.35 275.93 912.35 274.59C912.35 274.06 912.29 273.51 912.16 272.92C912.03 272.34 911.79 271.79 911.44 271.29ZM909.89 276.65C909.5 277.63 908.81 278.12 907.81 278.12H905.87V271.54H907.81C908.77 271.54 909.41 271.81 909.73 272.36C910.05 272.91 910.21 273.7 910.21 274.73C910.21 275.47 910.1 276.11 909.89 276.65Z" fill="#F2FFD1"/>
<path d="M921.55 271.29C921.11 270.67 920.54 270.24 919.83 270.01C919.41 269.87 918.9 269.8 918.27 269.79H913.93V279.87H918.27C919.79 279.87 920.92 279.24 921.65 277.99C922.19 277.06 922.46 275.93 922.46 274.59C922.46 274.06 922.4 273.51 922.27 272.92C922.14 272.34 921.9 271.79 921.55 271.29ZM920 276.65C919.61 277.63 918.92 278.12 917.92 278.12H915.98V271.54H917.92C918.88 271.54 919.52 271.81 919.84 272.36C920.16 272.91 920.32 273.7 920.32 274.73C920.32 275.47 920.21 276.11 920 276.65Z" fill="#F2FFD1"/>
<path d="M926.15 269.79H924.05V279.87H931.14V278.06H926.15V269.79Z" fill="#F2FFD1"/>
<path d="M934.72 275.47H939.61V273.72H934.72V271.58H940.05V269.79H932.66V279.87H940.3V278.06H934.72V275.47Z" fill="#F2FFD1"/>
<path d="M950.49 275.47H955.38V273.72H950.49V271.58H955.82V269.79H948.43V279.87H956.07V278.06H950.49V275.47Z" fill="#F2FFD1"/>
<path d="M960.59 269.79L956.99 279.87H959.19L959.89 277.8H963.6L964.25 279.87H966.53L962.96 269.79H960.58H960.59ZM960.46 276.06L961.76 272.1L963.02 276.06H960.46Z" fill="#F2FFD1"/>
<path d="M972.97 274.14L971.23 273.72C970.56 273.56 970.12 273.42 969.92 273.3C969.6 273.12 969.44 272.85 969.44 272.49C969.44 272.1 969.6 271.79 969.93 271.57C970.25 271.35 970.69 271.24 971.23 271.24C971.72 271.24 972.13 271.32 972.45 271.49C972.94 271.74 973.21 272.18 973.24 272.78H975.26C975.22 271.71 974.83 270.89 974.08 270.33C973.33 269.77 972.42 269.49 971.36 269.49C970.09 269.49 969.12 269.79 968.47 270.39C967.82 270.99 967.49 271.74 967.49 272.64C967.49 273.63 967.83 274.36 968.51 274.82C968.91 275.1 969.63 275.36 970.68 275.59L971.75 275.83C972.37 275.97 972.83 276.12 973.12 276.3C973.41 276.48 973.56 276.74 973.56 277.07C973.56 277.64 973.27 278.03 972.68 278.24C972.37 278.35 971.97 278.4 971.47 278.4C970.64 278.4 970.05 278.19 969.71 277.78C969.52 277.55 969.4 277.21 969.33 276.75H967.32C967.32 277.8 967.7 278.62 968.45 279.22C969.2 279.82 970.23 280.12 971.55 280.12C972.87 280.12 973.83 279.82 974.53 279.21C975.23 278.6 975.59 277.84 975.59 276.92C975.59 276 975.29 275.34 974.69 274.86C974.3 274.55 973.73 274.31 972.97 274.13V274.14Z" fill="#F2FFD1"/>
<path d="M976.32 269.79V271.58H979.34V279.87H981.46V271.58H984.48V269.79H976.32Z" fill="#F2FFD1"/>
<path d="M853.71 229.55H854.86V222.4L859.34 229.55H860.69V220.69H859.55V227.85L855.13 220.69H853.71V229.55Z" fill="#F2FFD1"/>
<path d="M868.48 226.99C868.48 226.48 868.35 226.04 868.1 225.68C867.84 225.32 867.49 225.08 867.04 224.96C867.32 224.84 867.55 224.68 867.73 224.48C868.02 224.15 868.16 223.72 868.16 223.19C868.16 222.45 867.92 221.88 867.44 221.49C866.96 221.1 866.28 220.9 865.4 220.9C864.29 220.9 863.51 221.3 863.07 222.11C862.81 222.56 862.68 223.11 862.68 223.75H863.75C863.77 223.26 863.86 222.88 864.01 222.62C864.29 222.14 864.79 221.9 865.51 221.9C865.92 221.9 866.27 222.02 866.58 222.25C866.89 222.48 867.04 222.81 867.04 223.25C867.04 223.83 866.81 224.23 866.35 224.46C866.09 224.59 865.76 224.65 865.35 224.65C865.26 224.65 865.18 224.65 865.1 224.65C865.02 224.65 864.93 224.64 864.82 224.63V225.59C864.9 225.59 864.97 225.59 865.05 225.59C865.12 225.59 865.2 225.59 865.27 225.59C865.92 225.59 866.42 225.71 866.79 225.95C867.15 226.19 867.34 226.6 867.34 227.2C867.34 227.68 867.17 228.08 866.82 228.38C866.47 228.69 866.02 228.84 865.44 228.84C864.7 228.84 864.2 228.61 863.91 228.16C863.75 227.91 863.64 227.5 863.6 226.94H862.47C862.47 227.74 862.7 228.43 863.16 228.99C863.62 229.55 864.36 229.83 865.38 229.83C866.4 229.83 867.15 229.57 867.69 229.05C868.23 228.53 868.5 227.86 868.5 227.04L868.48 226.99Z" fill="#F2FFD1"/>
<path d="M875.33 222.111V221.061H870.84L870.18 225.711L871.12 225.761C871.31 225.501 871.54 225.301 871.8 225.161C872.06 225.021 872.39 224.941 872.76 224.941C873.27 224.941 873.72 225.101 874.08 225.431C874.44 225.761 874.63 226.231 874.63 226.831C874.63 227.331 874.47 227.781 874.17 228.191C873.87 228.601 873.38 228.811 872.74 228.811C872.4 228.811 872.1 228.751 871.85 228.631C871.35 228.391 871.06 227.961 870.99 227.351H869.86C869.92 228.171 870.23 228.781 870.77 229.171C871.31 229.561 871.93 229.761 872.64 229.761C873.75 229.761 874.55 229.451 875.06 228.831C875.57 228.211 875.82 227.491 875.82 226.671C875.82 225.851 875.54 225.241 874.99 224.731C874.44 224.221 873.77 223.961 872.98 223.961C872.56 223.961 872.19 224.031 871.86 224.161C871.68 224.241 871.49 224.351 871.29 224.501L871.66 222.101H875.33V222.111Z" fill="#F2FFD1"/>
<path d="M880.56 224.04C880.92 223.69 881.11 223.26 881.11 222.73C881.11 222.2 880.94 221.79 880.58 221.44C880.23 221.09 879.8 220.91 879.29 220.91C878.78 220.91 878.36 221.09 878 221.44C877.64 221.79 877.46 222.23 877.46 222.74C877.46 223.22 877.63 223.64 877.97 224.01C878.31 224.37 878.75 224.55 879.29 224.55C879.77 224.55 880.2 224.38 880.56 224.03V224.04ZM878.12 222.75C878.12 222.42 878.24 222.15 878.47 221.92C878.7 221.69 878.98 221.58 879.29 221.58C879.6 221.58 879.88 221.7 880.11 221.92C880.34 222.15 880.45 222.42 880.45 222.73C880.45 223.04 880.33 223.33 880.1 223.56C879.87 223.79 879.6 223.9 879.29 223.9C878.98 223.9 878.69 223.79 878.46 223.56C878.23 223.33 878.12 223.06 878.12 222.75Z" fill="#F2FFD1"/>
<path d="M886.56 229.55V220.95H885.7C885.55 221.62 885.32 222.04 885.01 222.22C884.7 222.4 884.15 222.53 883.37 222.6V223.43H885.4V229.55H886.56Z" fill="#F2FFD1"/>
<path d="M895.83 228.521H891.11C891.21 228.091 891.47 227.711 891.87 227.361C892.09 227.161 892.4 226.961 892.8 226.741L893.63 226.281C894.36 225.871 894.86 225.531 895.14 225.241C895.63 224.751 895.87 224.161 895.87 223.471C895.87 222.811 895.64 222.221 895.19 221.681C894.73 221.141 894.01 220.881 893.02 220.881C891.83 220.881 891 221.301 890.53 222.131C890.26 222.601 890.13 223.221 890.11 223.971H891.21C891.23 223.431 891.31 223.011 891.46 222.711C891.75 222.151 892.26 221.861 893 221.861C893.5 221.861 893.9 222.011 894.21 222.301C894.52 222.591 894.66 223.001 894.66 223.501C894.66 223.931 894.5 224.311 894.17 224.651C893.96 224.861 893.6 225.121 893.08 225.421L891.92 226.091C891.14 226.541 890.62 227.041 890.36 227.591C890.09 228.141 889.94 228.791 889.9 229.531H895.83V228.501V228.521Z" fill="#F2FFD1"/>
<path d="M897.86 223.26V223.83C898.29 223.78 898.62 223.57 898.83 223.21C899.04 222.85 899.15 222.41 899.15 221.9V220.69H897.86V222H898.52C898.52 222 898.53 222.05 898.54 222.08C898.54 222.1 898.54 222.13 898.54 222.16C898.54 222.44 898.48 222.68 898.37 222.9C898.25 223.11 898.08 223.24 897.86 223.27V223.26Z" fill="#F2FFD1"/>
<path d="M905.22 229.551V227.441H906.49V226.491H905.22V220.891H904.3L900.34 226.381V227.441H904.13V229.551H905.21H905.22ZM904.12 226.491H901.35L904.12 222.571V226.491Z" fill="#F2FFD1"/>
<path d="M910.65 226.741L911.48 226.281C912.21 225.871 912.71 225.531 912.99 225.241C913.48 224.751 913.72 224.161 913.72 223.471C913.72 222.811 913.49 222.221 913.04 221.681C912.58 221.141 911.86 220.881 910.87 220.881C909.68 220.881 908.85 221.301 908.38 222.131C908.11 222.601 907.98 223.221 907.96 223.971H909.06C909.08 223.431 909.16 223.011 909.31 222.711C909.6 222.151 910.11 221.861 910.85 221.861C911.35 221.861 911.75 222.011 912.06 222.301C912.37 222.591 912.51 223.001 912.51 223.501C912.51 223.931 912.35 224.311 912.02 224.651C911.81 224.861 911.45 225.121 910.93 225.421L909.77 226.091C908.99 226.541 908.47 227.041 908.21 227.591C907.94 228.141 907.79 228.791 907.75 229.531H913.68V228.501H908.96C909.06 228.071 909.32 227.691 909.72 227.341C909.94 227.141 910.25 226.941 910.65 226.721V226.741Z" fill="#F2FFD1"/>
<path d="M917.18 223.26V223.83C917.65 223.77 917.98 223.56 918.18 223.18C918.38 222.8 918.47 222.38 918.47 221.9V220.69H917.18V222H917.84C917.86 222.17 917.84 222.37 917.78 222.6C917.68 222.99 917.49 223.21 917.18 223.26Z" fill="#F2FFD1"/>
<path d="M915.16 223.26V223.83C915.62 223.77 915.95 223.55 916.15 223.18C916.35 222.81 916.44 222.38 916.44 221.9V220.69H915.16V222H915.82C915.84 222.17 915.82 222.37 915.77 222.6C915.67 222.99 915.47 223.21 915.17 223.26H915.16Z" fill="#F2FFD1"/>
<path d="M926.83 228.49H921.48V225.49H926.34V224.46H921.48V221.77H926.74V220.69H920.31V229.55H926.83V228.49Z" fill="#F2FFD1"/>
<path d="M930.45 223.26V223.83C930.92 223.77 931.25 223.56 931.45 223.18C931.65 222.8 931.74 222.38 931.74 221.9V220.69H930.45V222H931.11C931.13 222.17 931.11 222.37 931.05 222.6C930.95 222.99 930.76 223.21 930.45 223.26Z" fill="#F2FFD1"/>
<path d="M928.42 223.26V223.83C928.88 223.77 929.21 223.55 929.41 223.18C929.61 222.81 929.7 222.38 929.7 221.9V220.69H928.42V222H929.08C929.1 222.17 929.08 222.37 929.03 222.6C928.93 222.99 928.73 223.21 928.43 223.26H928.42Z" fill="#F2FFD1"/>
<path d="M932.83 222.88C932.58 223.58 932.45 224.43 932.45 225.41C932.45 226.68 932.66 227.69 933.08 228.44C933.59 229.34 934.36 229.79 935.4 229.79C936.55 229.79 937.38 229.24 937.89 228.14C938.24 227.37 938.41 226.4 938.41 225.23C938.41 223.99 938.22 223.02 937.83 222.3C937.33 221.38 936.52 220.92 935.41 220.92C934.17 220.92 933.31 221.58 932.83 222.89V222.88ZM934.06 222.79C934.36 222.19 934.82 221.89 935.46 221.89C936.16 221.89 936.63 222.21 936.87 222.84C937.11 223.47 937.23 224.28 937.23 225.26C937.23 226.62 937.06 227.55 936.73 228.05C936.4 228.55 935.95 228.8 935.38 228.8C934.68 228.8 934.18 228.39 933.89 227.58C933.7 227.05 933.61 226.34 933.61 225.46C933.61 224.29 933.76 223.4 934.05 222.8L934.06 222.79Z" fill="#F2FFD1"/>
<path d="M944.57 229.551V227.441H945.84V226.491H944.57V220.891H943.65L939.69 226.381V227.441H943.48V229.551H944.56H944.57ZM943.47 226.491H940.7L943.47 222.571V226.491Z" fill="#F2FFD1"/>
<path d="M948.19 222H948.85C948.85 222 948.86 222.05 948.87 222.08C948.87 222.1 948.87 222.13 948.87 222.16C948.87 222.44 948.81 222.68 948.7 222.9C948.58 223.11 948.41 223.24 948.19 223.27V223.84C948.62 223.79 948.95 223.58 949.16 223.22C949.37 222.86 949.48 222.42 949.48 221.91V220.7H948.19V222.01V222Z" fill="#F2FFD1"/>
<path d="M954.8 224.96C955.08 224.84 955.31 224.68 955.49 224.48C955.78 224.15 955.92 223.72 955.92 223.19C955.92 222.45 955.68 221.88 955.2 221.49C954.72 221.1 954.04 220.9 953.16 220.9C952.05 220.9 951.27 221.3 950.83 222.11C950.57 222.56 950.44 223.11 950.44 223.75H951.51C951.53 223.26 951.62 222.88 951.77 222.62C952.05 222.14 952.55 221.9 953.27 221.9C953.68 221.9 954.03 222.02 954.34 222.25C954.65 222.48 954.8 222.81 954.8 223.25C954.8 223.83 954.57 224.23 954.11 224.46C953.85 224.59 953.52 224.65 953.11 224.65C953.02 224.65 952.94 224.65 952.86 224.65C952.78 224.65 952.69 224.64 952.58 224.63V225.59C952.66 225.59 952.73 225.59 952.81 225.59C952.88 225.59 952.96 225.59 953.03 225.59C953.68 225.59 954.18 225.71 954.55 225.95C954.91 226.19 955.1 226.6 955.1 227.2C955.1 227.68 954.93 228.08 954.58 228.38C954.23 228.69 953.78 228.84 953.2 228.84C952.46 228.84 951.96 228.61 951.67 228.16C951.51 227.91 951.4 227.5 951.36 226.94H950.23C950.23 227.74 950.46 228.43 950.92 228.99C951.38 229.55 952.12 229.83 953.14 229.83C954.16 229.83 954.91 229.57 955.45 229.05C955.99 228.53 956.26 227.86 956.26 227.04C956.26 226.53 956.13 226.09 955.88 225.73C955.62 225.37 955.27 225.13 954.82 225.01L954.8 224.96Z" fill="#F2FFD1"/>
<path d="M960.06 222.22C959.75 222.4 959.2 222.53 958.42 222.6V223.43H960.45V229.55H961.61V220.95H960.75C960.6 221.62 960.37 222.04 960.06 222.22Z" fill="#F2FFD1"/>
<path d="M967.06 224.56C967.54 224.56 967.97 224.39 968.33 224.04C968.69 223.69 968.88 223.26 968.88 222.73C968.88 222.2 968.71 221.79 968.35 221.44C968 221.09 967.57 220.91 967.06 220.91C966.55 220.91 966.13 221.09 965.77 221.44C965.41 221.79 965.23 222.23 965.23 222.74C965.23 223.22 965.4 223.64 965.74 224.01C966.08 224.37 966.52 224.55 967.06 224.55V224.56ZM966.23 221.92C966.46 221.69 966.74 221.58 967.05 221.58C967.36 221.58 967.64 221.7 967.87 221.92C968.1 222.15 968.21 222.42 968.21 222.73C968.21 223.04 968.09 223.33 967.86 223.56C967.63 223.79 967.36 223.9 967.05 223.9C966.74 223.9 966.45 223.79 966.22 223.56C965.99 223.33 965.88 223.06 965.88 222.75C965.88 222.44 966 222.15 966.23 221.92Z" fill="#F2FFD1"/>
<path d="M974.22 220.891L970.26 226.381V227.441H974.05V229.551H975.13V227.441H976.4V226.491H975.13V220.891H974.21H974.22ZM974.04 226.491H971.27L974.04 222.571V226.491Z" fill="#F2FFD1"/>
<path d="M978.96 229.551H980.16C980.34 228.671 980.5 228.021 980.61 227.631C980.79 227.011 981.06 226.331 981.41 225.571C981.76 224.801 982.17 224.081 982.63 223.411C983.09 222.741 983.46 222.271 983.74 222.001V221.051H977.73V222.141H982.51C981.9 222.841 981.32 223.661 980.77 224.621C979.84 226.251 979.23 227.891 978.96 229.541V229.551Z" fill="#F2FFD1"/>
<path d="M854.67 171.511H856.43V174.191H857.56V168.101H856.43V170.471H854.67V168.101H853.53V174.191H854.67V171.511Z" fill="#F2FFD1"/>
<path d="M860.01 172.831H862.03L862.4 174.191H863.62L861.69 168.101H860.36L858.43 174.191H859.65C859.76 173.781 859.9 173.261 860.02 172.831H860.01ZM861.01 169.391L861.74 171.801H860.29C860.55 170.921 860.77 170.211 861.01 169.391Z" fill="#F2FFD1"/>
<path d="M865.6 170.411L867.39 174.191H868.5V168.101H867.36V171.911L865.58 168.101H864.47V174.191H865.6V170.411Z" fill="#F2FFD1"/>
<path d="M874.32 171.081C874.32 168.911 873.17 168.091 871.59 168.091H870.12V174.181H871.67C873.16 174.181 874.31 173.221 874.31 171.071L874.32 171.081ZM871.26 169.131H871.68C872.51 169.131 873.19 169.601 873.19 171.081C873.19 172.461 872.42 173.141 871.68 173.141H871.26V169.131Z" fill="#F2FFD1"/>
<path d="M878.14 174.27C879.1 174.27 879.81 173.71 879.81 173.71L879.42 172.83C879.42 172.83 878.7 173.25 878.13 173.25C876.94 173.25 876.53 172.22 876.53 171.1C876.53 169.87 876.96 169.04 878.21 169.04C878.68 169.04 879.43 169.46 879.43 169.46L879.79 168.54C879.79 168.54 879.06 168 878.21 168C876.33 168 875.39 169.13 875.39 171.1C875.39 172.75 876.17 174.27 878.13 174.27H878.14Z" fill="#F2FFD1"/>
<path d="M882.36 171.841H883.22L884.28 174.191H885.52C885.16 173.411 884.7 172.431 884.32 171.631C884.97 171.361 885.42 170.841 885.42 169.901C885.42 168.331 884.23 168.101 883.03 168.101H881.22V174.191H882.36V171.841ZM882.36 169.111H883.09C883.78 169.111 884.28 169.171 884.28 169.901C884.28 170.791 883.67 170.821 882.99 170.821H882.35V169.111H882.36Z" fill="#F2FFD1"/>
<path d="M887.6 172.831H889.62L889.99 174.191H891.21L889.28 168.101H887.95L886.02 174.191H887.24C887.35 173.781 887.49 173.261 887.61 172.831H887.6ZM888.61 169.391L889.34 171.801H887.89C888.15 170.921 888.37 170.211 888.61 169.391Z" fill="#F2FFD1"/>
<path d="M893.3 171.681H895.83V170.651H893.3V169.181H896.27V168.101H892.16V174.191H893.3V171.681Z" fill="#F2FFD1"/>
<path d="M898.91 174.191H900.04V169.161H902.01V168.101H896.94V169.161H898.91V174.191Z" fill="#F2FFD1"/>
<path d="M906.8 173.111H904.09V171.511H906.63V170.471H904.09V169.181H906.8V168.101H902.96V174.191H906.8V173.111Z" fill="#F2FFD1"/>
<path d="M912.72 171.081C912.72 168.911 911.57 168.091 909.99 168.091H908.52V174.181H910.07C911.56 174.181 912.71 173.221 912.71 171.071L912.72 171.081ZM909.66 169.131H910.08C910.91 169.131 911.59 169.601 911.59 171.081C911.59 172.461 910.82 173.141 910.08 173.141H909.66V169.131Z" fill="#F2FFD1"/>
<path d="M921.84 174.27C922.8 174.27 923.51 173.71 923.51 173.71L923.12 172.83C923.12 172.83 922.4 173.25 921.83 173.25C920.64 173.25 920.23 172.22 920.23 171.1C920.23 169.87 920.66 169.04 921.91 169.04C922.38 169.04 923.13 169.46 923.13 169.46L923.49 168.54C923.49 168.54 922.76 168 921.91 168C920.03 168 919.09 169.13 919.09 171.1C919.09 172.75 919.87 174.27 921.83 174.27H921.84Z" fill="#F2FFD1"/>
<path d="M926.06 171.841H926.92L927.98 174.191H929.22C928.86 173.411 928.4 172.431 928.02 171.631C928.67 171.361 929.12 170.841 929.12 169.901C929.12 168.331 927.93 168.101 926.73 168.101H924.92V174.191H926.06V171.841ZM926.06 169.111H926.79C927.48 169.111 927.98 169.171 927.98 169.901C927.98 170.791 927.37 170.821 926.69 170.821H926.05V169.111H926.06Z" fill="#F2FFD1"/>
<path d="M932.39 174.271C933.77 174.271 934.41 173.461 934.41 172.261V168.091H933.27V172.391C933.27 172.791 933.12 173.241 932.39 173.241C931.66 173.241 931.51 172.791 931.51 172.391V168.091H930.37V172.261C930.37 173.451 931.01 174.271 932.39 174.271Z" fill="#F2FFD1"/>
<path d="M939.86 173.111H937.15V171.511H939.69V170.471H937.15V169.181H939.86V168.101H936.02V174.191H939.86V173.111Z" fill="#F2FFD1"/>
<path d="M945.6 173.111H942.71V168.101H941.57V174.191H945.6V173.111Z" fill="#F2FFD1"/>
<path d="M948.33 174.191H949.46V169.161H951.43V168.101H946.36V169.161H948.33V174.191Z" fill="#F2FFD1"/>
<path d="M953.73 174.191H954.86V171.801L957.14 168.091H955.79C955.3 168.971 954.79 169.911 954.3 170.821L952.8 168.091H951.46C952.15 169.251 953.02 170.631 953.73 171.801V174.191Z" fill="#F2FFD1"/>
<path d="M964.37 171.681H966.91V170.651H964.37V169.181H967.34V168.101H963.24V174.191H964.37V171.681Z" fill="#F2FFD1"/>
<path d="M969.93 171.841H970.79L971.85 174.191H973.09C972.73 173.411 972.27 172.431 971.89 171.631C972.54 171.361 972.99 170.841 972.99 169.901C972.99 168.331 971.8 168.101 970.6 168.101H968.79V174.191H969.93V171.841ZM969.93 169.111H970.66C971.35 169.111 971.85 169.171 971.85 169.901C971.85 170.791 971.24 170.821 970.56 170.821H969.92V169.111H969.93Z" fill="#F2FFD1"/>
<path d="M978.18 173.111H975.47V171.511H978V170.471H975.47V169.181H978.18V168.101H974.33V174.191H978.18V173.111Z" fill="#F2FFD1"/>
<path d="M983.73 173.111H981.02V171.511H983.55V170.471H981.02V169.181H983.73V168.101H979.88V174.191H983.73V173.111Z" fill="#F2FFD1"/>
<path d="M855.44 178.62H853.63V184.71H854.77V182.69H855.45C856.73 182.69 857.83 182.19 857.83 180.58C857.83 178.97 856.74 178.61 855.45 178.61L855.44 178.62ZM855.32 181.68H854.77V179.64H855.32C856.03 179.64 856.69 179.81 856.69 180.59C856.69 181.56 856 181.68 855.32 181.68Z" fill="#F2FFD1"/>
<path d="M863.38 180.42C863.38 178.85 862.19 178.62 860.99 178.62H859.18V184.71H860.32V182.36H861.18L862.24 184.71H863.48C863.12 183.93 862.66 182.95 862.28 182.15C862.93 181.88 863.38 181.36 863.38 180.42ZM860.96 181.35H860.32V179.64H861.05C861.74 179.64 862.24 179.7 862.24 180.43C862.24 181.32 861.63 181.35 860.95 181.35H860.96Z" fill="#F2FFD1"/>
<path d="M866.65 184.8C867.91 184.8 868.92 183.89 868.92 181.63C868.92 179.37 867.9 178.53 866.65 178.53C865.4 178.53 864.37 179.4 864.37 181.63C864.37 183.86 865.39 184.8 866.65 184.8ZM866.65 179.56C867.16 179.56 867.79 179.94 867.79 181.62C867.79 183.3 867.13 183.77 866.65 183.77C866.17 183.77 865.51 183.37 865.51 181.62C865.51 179.87 866.14 179.56 866.65 179.56Z" fill="#F2FFD1"/>
<path d="M871.76 178.62H870.29V184.71H871.84C873.33 184.71 874.48 183.75 874.48 181.6C874.48 179.45 873.33 178.61 871.75 178.61L871.76 178.62ZM871.84 183.67H871.42V179.66H871.84C872.67 179.66 873.35 180.13 873.35 181.61C873.35 182.99 872.58 183.67 871.84 183.67Z" fill="#F2FFD1"/>
<path d="M875.73 178.62V182.79C875.73 183.98 876.37 184.8 877.75 184.8C879.13 184.8 879.77 183.99 879.77 182.79V178.62H878.63V182.92C878.63 183.32 878.48 183.77 877.75 183.77C877.02 183.77 876.87 183.32 876.87 182.92V178.62H875.73Z" fill="#F2FFD1"/>
<path d="M883.86 184.8C884.82 184.8 885.53 184.24 885.53 184.24L885.14 183.36C885.14 183.36 884.42 183.78 883.85 183.78C882.66 183.78 882.25 182.75 882.25 181.63C882.25 180.4 882.69 179.57 883.93 179.57C884.4 179.57 885.15 179.99 885.15 179.99L885.51 179.07C885.51 179.07 884.78 178.53 883.93 178.53C882.05 178.53 881.11 179.66 881.11 181.63C881.11 183.28 881.89 184.8 883.85 184.8H883.86Z" fill="#F2FFD1"/>
<path d="M886.17 179.68H888.14V184.71H889.27V179.68H891.24V178.62H886.17V179.68Z" fill="#F2FFD1"/>
<path d="M901.76 181.621C901.76 179.391 900.74 178.521 899.49 178.521C898.24 178.521 897.21 179.391 897.21 181.621C897.21 183.851 898.23 184.791 899.49 184.791C900.75 184.791 901.76 183.881 901.76 181.621ZM898.35 181.621C898.35 179.941 898.98 179.561 899.49 179.561C900 179.561 900.63 179.941 900.63 181.621C900.63 183.301 899.97 183.771 899.49 183.771C899.01 183.771 898.35 183.371 898.35 181.621Z" fill="#F2FFD1"/>
<path d="M903.13 184.71H904.26V182.21H906.8V181.17H904.26V179.7H907.23V178.62H903.13V184.71Z" fill="#F2FFD1"/>
<path d="M915.26 184.71H916.39V179.68H918.36V178.62H913.29V179.68H915.26V184.71Z" fill="#F2FFD1"/>
<path d="M919.21 178.62V184.71H920.35V182.03H922.11V184.71H923.24V178.62H922.11V181H920.35V178.62H919.21Z" fill="#F2FFD1"/>
<path d="M928.7 183.63H925.99V182.03H928.53V181H925.99V179.7H928.7V178.62H924.86V184.71H928.7V183.63Z" fill="#F2FFD1"/>
<path d="M936.83 182.03H938.59V184.71H939.73V178.62H938.59V181H936.83V178.62H935.7V184.71H936.83V182.03Z" fill="#F2FFD1"/>
<path d="M943.26 184.8C944.52 184.8 945.54 183.89 945.54 181.63C945.54 179.37 944.52 178.53 943.26 178.53C942 178.53 940.98 179.4 940.98 181.63C940.98 183.86 942 184.8 943.26 184.8ZM943.26 179.56C943.77 179.56 944.4 179.94 944.4 181.62C944.4 183.3 943.74 183.77 943.26 183.77C942.78 183.77 942.12 183.37 942.12 181.62C942.12 179.87 942.75 179.56 943.26 179.56Z" fill="#F2FFD1"/>
<path d="M946.89 178.62V184.71H950.92V183.63H948.03V178.62H946.89Z" fill="#F2FFD1"/>
<path d="M954.37 181.35L952.87 178.62H951.53C952.22 179.78 953.09 181.16 953.8 182.33V184.72H954.93V182.33L957.21 178.62H955.86C955.37 179.5 954.86 180.44 954.37 181.35Z" fill="#F2FFD1"/>
<path d="M964.51 178.62H963.37V184.71H967.41V183.63H964.51V178.62Z" fill="#F2FFD1"/>
<path d="M969.76 183.35H971.78L972.15 184.71H973.37L971.44 178.62H970.11L968.18 184.71H969.4C969.51 184.3 969.65 183.79 969.77 183.35H969.76ZM970.76 179.91L971.49 182.32H970.04C970.3 181.44 970.52 180.73 970.76 179.91Z" fill="#F2FFD1"/>
<path d="M975.36 180.93L977.14 184.71H978.25V178.62H977.11V182.44L975.33 178.62H974.22V184.71H975.36V180.93Z" fill="#F2FFD1"/>
<path d="M984.07 181.61C984.07 179.44 982.92 178.62 981.34 178.62H979.87V184.71H981.42C982.91 184.71 984.06 183.75 984.06 181.6L984.07 181.61ZM981.01 179.66H981.43C982.26 179.66 982.94 180.13 982.94 181.61C982.94 182.99 982.17 183.67 981.43 183.67H981.01V179.66Z" fill="#F2FFD1"/>
<path d="M900.91 298.091C900.91 301.571 903.73 304.391 907.2 304.391C907.45 304.391 907.69 304.391 907.92 304.351V302.281C907.69 302.331 907.44 302.351 907.2 302.351C904.86 302.351 902.95 300.441 902.95 298.091C902.95 295.741 904.86 293.841 907.2 293.841C907.44 293.841 907.69 293.861 907.92 293.911V291.841C907.69 291.811 907.45 291.801 907.2 291.801C903.73 291.801 900.91 294.621 900.91 298.091Z" fill="#F2FFD1"/>
<path d="M911.42 298.091C911.42 301.571 914.24 304.391 917.71 304.391C917.96 304.391 918.2 304.391 918.43 304.351V302.281C918.2 302.331 917.95 302.351 917.71 302.351C915.75 302.351 914.1 301.001 913.62 299.181H917.19V297.141H913.58C914.02 295.261 915.7 293.851 917.71 293.851C917.95 293.851 918.2 293.871 918.43 293.921V291.851C918.2 291.821 917.96 291.811 917.71 291.811C914.24 291.811 911.42 294.631 911.42 298.101V298.091Z" fill="#F2FFD1"/>
<path d="M876.413 9.22461L878.02 14.3174L870.739 16.5732L875.49 23.375L871.115 26.4854L866.364 20.0596L861.477 26.4854L857.102 23.375L861.887 16.5732L854.606 14.3174L856.213 9.22461L863.356 11.5488V3.31152H869.27V11.5488L876.413 9.22461Z" fill="#F2FFD1"/>
</svg>
