<svg width="96" height="176" viewBox="0 0 96 176" fill="none" xmlns="http://www.w3.org/2000/svg">
<path d="M2.65009 10.0044H21.5365C22.2083 10.0044 22.7682 10.4523 22.9548 11.0869L33.0325 49.3873C33.4431 50.8805 35.5706 50.8058 35.8692 49.2753L45.1631 1.15721C45.3124 0.485278 45.9096 0 46.5815 0H66.0277C66.8862 0 67.558 0.709259 67.4834 1.56784L62.8924 58.1598C62.7431 59.9516 65.3186 60.3623 65.7665 58.6077L79.5767 1.11989C79.726 0.485284 80.3232 0 80.995 0H93.8721C94.6559 0 95.3278 0.634604 95.3278 1.45586V173.583C95.3278 174.367 94.6932 175.039 93.8721 175.039H2.9487C2.16487 175.039 1.49303 174.405 1.49303 173.583V151.522C1.49303 150.887 1.9036 150.327 2.53812 150.14L49.9407 136.366C51.3964 135.955 51.2844 133.827 49.7914 133.529L1.19442 124.905C0.485251 124.793 0 124.196 0 123.487V93.6231C0 92.8391 0.634521 92.1672 1.45567 92.1672H23.0668C24.0373 92.1672 24.7464 91.234 24.4478 90.3007L1.30639 11.9082C1.04512 10.9749 1.71695 10.0417 2.6874 10.0417L2.65009 10.0044Z" fill="#203021"/>
</svg>
