<svg width="714" height="175" viewBox="0 0 714 175" fill="none" xmlns="http://www.w3.org/2000/svg">
<path d="M16.4602 10.0416H169.272C169.771 10.0416 170.315 10.1536 170.723 10.3776L258.058 54.6875C259.1 55.2101 260.37 55.1355 261.322 54.5009L339.361 0.559946C339.86 0.223982 340.494 0.0373373 341.175 0.0373373H502.013C504.099 0.0373373 505.414 1.82914 504.507 3.35965L464.558 68.9846C463.288 71.1124 466.236 73.2402 468.594 71.8963L597.418 0.410625C597.872 0.14932 598.416 0 598.96 0H711.234C712.776 0 714 1.04522 714 2.27709V172.723C714 173.992 712.73 175 711.234 175H14.0116C12.4698 175 11.2455 173.955 11.2455 172.723V152.602C11.2455 151.371 12.4245 150.363 13.9209 150.325L345.482 137.447C349.065 137.297 349.019 132.93 345.437 132.855L2.72069 124.755C1.17897 124.717 0 123.709 0 122.44V94.4433C0 93.1741 1.26966 92.1662 2.76604 92.1662H176.437C179.339 92.1662 180.291 88.9932 177.797 87.8733L15.1452 14.3345C12.6059 13.1773 13.6035 10.0416 16.5055 10.0416H16.4602Z" fill="#203021"/>
</svg>
