<svg width="487" height="209" viewBox="0 0 487 209" fill="none" xmlns="http://www.w3.org/2000/svg">
<path d="M350.804 187.263L374.409 198.312C379.265 182.643 392.302 169.524 408.876 166.477C427.339 162.794 445.265 175.31 454.016 191.704C454.652 191.027 454.326 189.764 454.179 188.787C453.894 186.855 452.142 182.635 451.311 180.981C429.971 138.529 374.523 146.025 350.812 187.271L350.804 187.263Z" fill="#203021"/>
<path d="M458.026 142.994C453.626 129.46 444.639 120.106 435.301 112.544C423.07 101.292 415.427 85.403 415.444 69.0008C415.305 53.3237 422.019 37.28 431.797 25.2615C431.797 25.2533 410.661 10 410.661 10C394.055 36.4652 389.989 72.3741 407.222 99.3771C402.032 98.2852 396.687 97.7719 391.309 97.8208C377.799 95.0015 365.406 87.717 357.144 76.7659C347.667 64.4867 343.447 47.6037 344.066 32.2526H318C319.573 61.2274 334.696 90.5363 360.541 104.339C347.822 109.807 336.187 118.68 327.387 130.837L349.207 145.096C371.069 104.926 430.159 102.856 450.473 146.514C456.176 158.492 456.901 174.039 454.115 187.646C453.732 189.528 454.579 189.846 454.009 191.696C463.314 173.851 463.07 158.883 458.026 142.994Z" fill="#203021"/>
<path d="M485.143 34.0206L462.785 20.625C458.882 28.2028 455.924 36.4161 454.408 44.9309C452.925 53.3724 452.844 61.9769 454.115 70.402C456.274 86.2421 464.284 100.118 470.46 113.856C482.519 138.358 472.872 164.334 461.473 180.589C460.136 182.496 456.299 187.222 455.085 188.738C454.474 189.821 453.928 191.427 454.009 191.695C465.009 181.926 475.08 170.396 481.102 156.055C500.788 109.831 452.787 79.3324 485.135 34.0206H485.143Z" fill="#203021"/>
<path d="M140.312 184.863C125.225 205.971 96.2632 212.352 71.7019 207.423C46.54 202.371 27.0405 185.119 26.587 158.631C26.3419 144.576 24.6995 127.214 16.5982 116.05C8.49689 104.886 -1.63895 110.926 0.223988 104.716C11.2055 92.9539 24.2583 88.0858 40.3751 94.4546L40.4855 32.0227C40.4977 23.1161 47.496 17.0645 56.0017 16.7716C61.4802 16.5886 66.2969 17.5525 70.5375 21.5178C70.5375 18.0893 70.415 15.6736 70.8439 12.7088C71.7264 6.73033 76.2489 1.23993 82.5241 0.324865C85.5391 -0.114367 89.1056 -0.102166 92.1942 0.324865C98.261 1.16673 103.335 6.4131 104.132 12.3305C104.548 15.4662 104.438 18.0161 104.646 21.5666C109.488 17.0645 115.089 16.1494 121.168 16.9791C129.036 18.0527 134.711 23.7872 134.711 32.0471L134.735 94.3692C150.203 88.2932 163.77 92.7709 174.531 104.533C174.752 105.204 175.034 106.253 174.997 106.765C174.948 107.388 173.698 108.034 172.962 108.29C166.675 108.4 161.564 111.548 158.022 116.526C150.117 128.385 148.854 143.868 148.487 158.119C148.229 167.77 145.925 177.018 140.312 184.875V184.863Z" fill="#203021"/>
<path d="M241.156 104H240.156L240.156 106H241.156L241.156 105L241.156 104ZM268.863 105.707C269.254 105.317 269.254 104.683 268.863 104.293L262.499 97.9289C262.109 97.5384 261.476 97.5384 261.085 97.9289C260.695 98.3195 260.695 98.9526 261.085 99.3431L266.742 105L261.085 110.657C260.695 111.047 260.695 111.681 261.085 112.071C261.476 112.462 262.109 112.462 262.499 112.071L268.863 105.707ZM241.156 105L241.156 106H268.156L268.156 105L268.156 104H241.156L241.156 105Z" fill="black"/>
</svg>
