<svg width="180" height="175" viewBox="0 0 180 175" fill="none" xmlns="http://www.w3.org/2000/svg">
<path d="M7.38223 10.0373H40.968C42.1652 10.0373 43.2625 10.7463 43.8278 11.9403L62.1836 48.8806C63.5138 51.5672 67.0386 51.3433 68.1027 48.4701L84.9289 2.27612C85.4277 0.895522 86.6248 0 87.9549 0H123.769C125.797 0 127.36 2.05224 126.994 4.32836L119.546 52.7985C118.914 56.9776 124.001 58.8806 125.697 55.1119L149.873 2.01493C150.438 0.783582 151.568 0 152.799 0H176.708C178.537 0 180 1.64179 180 3.69403V171.306C180 173.358 178.537 175 176.708 175H6.15186C4.32293 175 2.85978 173.358 2.85978 171.306V153.619C2.85978 151.791 4.0569 150.224 5.68631 149.963L76.0835 139.142C79.9741 138.545 79.8079 132.201 75.9172 131.828L3.02605 124.963C1.33013 124.813 0 123.209 0 121.306V95.8582C0 93.806 1.46314 92.1642 3.29207 92.1642H41.3006C43.8943 92.1642 45.4572 88.9925 44.0939 86.5299L4.58895 15.6716C3.22557 13.209 4.78847 10.0373 7.38223 10.0373Z" fill="#203021"/>
</svg>
